<ttFont>
          <CharString index="0">
            -147 -15 callsubr
            -347 vlineto
            -15 -40 -60 -16 -36 hhcurveto
            -69 -12 24 44 hvcurveto
            380 -26 -73 callsubr
            89 -10 rlineto
            -321 vlineto
            -60 27 -59 87 70 66 33 23 56 vhcurveto
            -32 5 33 -18 26 hhcurveto
            26 39 4 12 41 hvcurveto
            return
          </CharString>
          <CharString index="1">
            86 -19 rlineto
            -322 vlineto
            -115 -43 -81 -123 -129 -21 103 120 vhcurveto
            294 vlineto
            -44 callsubr
            -264 -33 vlineto
            91 -20 rlineto
            -294 vlineto
            -145 30 -129 199 return
          </CharString>
          <CharString index="2">
            -208 -81 -144 -174 -174 83 -143 206 206 81 143 174 -60 callgsubr
            hvcurveto
            197 -318 rmoveto
            -69 callsubr
            -166 -36 158 111 -84 callgsubr
            vhcurveto
            return
          </CharString>
          <CharString index="3">
            rmoveto
            -54 callgsubr
            -223 -33 vlineto
            -81 callsubr
            return
          </CharString>
          <CharString index="4">
            rmoveto
            33 100 rlineto
            229 hlineto
            36 -102 -60 -17 rlineto
            -33 217 33 vlineto
            -72 19 -197 572 -58 -13 -187 -559 -72 -19 rlineto
            -33 203 33 vlineto
            73 459 rmoveto
            102 -294 rlineto
            -200 hlineto
            return
          </CharString>
          <CharString index="5">
            rmoveto
            -31 12 rlineto
            0 -20 -35 -23 vhcurveto
            -35 -73 40 -34 hhcurveto
            -33 -20 -42 -52 -21 hvcurveto
            30 -12 rlineto
            0 23 36 22 vhcurveto
            33 75 -40 34 hhcurveto
            -67 callgsubr
            return
          </CharString>
          <CharString index="6">
            -33 vlineto
            -106 callsubr
            return
          </CharString>
          <CharString index="7">
            rmoveto
            33 -29 27 -31 -16 callsubr
            vhcurveto
            return
          </CharString>
          <CharString index="8">
            -103 callsubr
            endchar
          </CharString>
          <CharString index="9">
            rmoveto
            92 24 55 59 hvcurveto
            -33 2 rlineto
            -32 -15 -30 -70 -68 -14 30 32 vhcurveto
            -34 -2 rlineto
            -59 25 -55 93 vhcurveto
            return
          </CharString>
          <CharString index="10">
            -21 -66 rlineto
            -145 236 196 -41 callgsubr
            132 -434 -33 hlineto
            95 -20 rlineto
            -505 vlineto
            -95 -20 rlineto
            return
          </CharString>
          <CharString index="11">
            rmoveto
            15 -4 24 -9 18 vhcurveto
            -68 -14 -6 -13 rlineto
            3 -13 2 -16 -12 vvcurveto
            -44 -27 -9 -39 vhcurveto
            return
          </CharString>
          <CharString index="12">
            rmoveto
            24 -97 rlineto
            38 hlineto
            14 127 rlineto
            21 -45 -79 9 -54 hhcurveto
            -225 -80 -144 -174 -173 76 -147 222 73 62 15 27 45 hvcurveto
            203 vlineto
            71 20 rlineto
            34 -243 -34 vlineto
            89 -20 rlineto
            -178 vlineto
            -14 -28 -30 -5 -35 hhcurveto
            -174 -38 159 113 113 36 156 179 40 37 -5 -6 25 hvcurveto
            endchar
          </CharString>
          <CharString index="13">
            rmoveto
            -69 callgsubr
            -28 254 28 vlineto
            -82 25 -25 callsubr
            36 51 6 42 hhcurveto
            79 21 -13 -53 hvcurveto
            -321 vlineto
            -82 -25 rlineto
            -28 255 28 vlineto
            -90 25 rlineto
            338 vlineto
            82 -62 27 -71 -66 -74 -23 -17 -39 vhcurveto
            return
          </CharString>
          <CharString index="14">
            rmoveto
            21 32 -7 -8 17 hvcurveto
            21 -73 -19 callsubr
            16 107 rlineto
            20 -44 -46 12 -44 hhcurveto
            -116 -57 -53 -88 -67 31 -38 72 -27 hvcurveto
            63 -22 rlineto
            65 -23 19 -22 -33 vvcurveto
            -62 -40 -27 -65 -38 -28 6 6 -21 vhcurveto
            -21 82 rlineto
            -31 hlineto
            -14 -116 rlineto
            -17 44 60 -9 44 hhcurveto
            122 63 59 93 63 -22 37 -89 31 hvcurveto
            -72 26 rlineto
            -52 19 -20 16 44 vvcurveto
            45 36 26 64 vhcurveto
            return
          </CharString>
          <CharString index="15">
            rmoveto
            18 18 -102 131 rlineto
            -60 hlineto
            -100 -131 17 -18 111 82 rlineto
            return
          </CharString>
          <CharString index="16">
            -44 callsubr
            -263 -33 vlineto
            90 -20 rlineto
            -505 21 callgsubr
            return
          </CharString>
          <CharString index="17">
            rmoveto
            -87 42 -45 60 -23 vhcurveto
            111 -43 rlineto
            66 -26 22 -38 -53 vvcurveto
            -61 -51 -42 -83 -44 -41 8 6 -23 vhcurveto
            -19 86 rlineto
            -37 hlineto
            -14 -118 rlineto
            -21 52 68 -10 52 hhcurveto
            147 74 67 107 86 -35 45 -69 26 hvcurveto
            -108 44 rlineto
            -60 24 -32 28 58 vvcurveto
            67 49 36 78 25 43 -4 -6 19 vhcurveto
            22 -97 rlineto
            37 hlineto
            10 130 rlineto
            17 -52 -56 10 -54 hhcurveto
            -128 -71 -64 -107 hvcurveto
            return
          </CharString>
          <CharString index="18">
            rmoveto
            -277 -404 16 -34 rlineto
            354 hlineto
            9 130 rlineto
            -35 hlineto
            -31 -79 rlineto
            -209 hlineto
            282 407 -17 33 rlineto
            -357 hlineto
            13 -129 rlineto
            37 hlineto
            16 76 rlineto
            return
          </CharString>
          <CharString index="19">
            146 33 hlineto
            -78 21 -97 187 10 30 -70 21 rlinecurve
            115 27 30 77 61 vvcurveto
            80 -61 74 -153 vhcurveto
            -243 -33 hlineto
            93 -20 rlineto
            -505 vlineto
            -93 -20 rlineto
            -33 269 33 vlineto
            -93 20 rlineto
            226 38 vlineto
            68 -14 -2 -277 133 hvcurveto
            -164 319 rmoveto
            -61 240 hlineto
            6 21 23 4 19 hhcurveto
            86 41 -47 -71 -78 -43 -54 -86 hvcurveto
            return
          </CharString>
          <CharString index="20">
            -67 callsubr
            -506 vlineto
            -80 -20 rlineto
            -33 224 33 vlineto
            -86 20 rlineto
            435 vlineto
            return
          </CharString>
          <CharString index="21">
            62 45 16 28 55 hvcurveto
            -6 32 rlineto
            -14 -41 -59 -8 -51 hhcurveto
            -104 -25 83 119 122 25 81 100 29 31 -5 -8 25 hvcurveto
            24 -90 rlineto
            31 hlineto
            19 123 rlineto
            21 -54 -44 10 -62 hhcurveto
            -156 -60 -114 -143 return
          </CharString>
          <CharString index="22">
            -147 -34 callsubr
            return
          </CharString>
          <CharString index="23">
            -11 callsubr
            -125 261 18 callgsubr
            -225 -33 vlineto
            68 -20 167 -334 rlineto
            -171 vlineto
            -107 -20 rlineto
            -33 296 33 vlineto
            -107 20 rlineto
            171 vlineto
            168 1 callgsubr
            return
          </CharString>
          <CharString index="24">
            rmoveto
            21 -79 rlineto
            33 hlineto
            15 144 rlineto
            1 -9 -7 0 -10 hhcurveto
            -50 -59 -19 -29 -46 hvcurveto
            46 -35 vlineto
            -134 -34 callsubr
            89 -12 rlineto
            -374 vlineto
            -89 -26 rlineto
            -28 285 30 vlineto
            -113 23 rlineto
            364 vlineto
            11 32 37 8 40 hhcurveto
            return
          </CharString>
          <CharString index="25">
            651 rmoveto
            60 hlineto
            100 131 -18 18 -111 -82 -116 82 -17 -18 rlineto
            return
          </CharString>
          <CharString index="26">
            -106 callsubr
            -59 callsubr
            vhcurveto
            return
          </CharString>
          <CharString index="27">
            rmoveto
            -39 hlineto
            -37 -93 rlineto
            -251 hlineto
            324 525 -5 32 rlineto
            -402 hlineto
            9 -132 rlineto
            38 hlineto
            22 79 rlineto
            237 hlineto
            -327 -525 18 -33 rlineto
            402 hlineto
            return
          </CharString>
          <CharString index="28">
            -98 callsubr
            -167 -71 callsubr
            return
          </CharString>
          <CharString index="29">
            rmoveto
            63 21 rlineto
            29 -204 -29 vlineto
            86 -21 -103 -329 -116 341 -53 -7 -109 -334 -110 329 62 21 rlineto
            29 -203 -29 vlineto
            56 -21 156 -454 49 9 112 328 117 -337 49 9 rlineto
            endchar
          </CharString>
          <CharString index="30">
            -32 5 32 -18 26 hhcurveto
            28 39 4 12 39 -12 callgsubr
            -89 18 rlineto
            669 -27 -10 callsubr
            -27 callgsubr
            -178 vlineto
            2 -57 20 -60 -145 -83 -98 -159 -133 59 -120 119 return
          </CharString>
          <CharString index="31">
            rmoveto
            -262 -33 hlineto
            90 -20 rlineto
            -505 21 callgsubr
            -33 279 vlineto
            203 78 143 175 174 -82 119 -216 hvcurveto
            -10 -47 rmoveto
            141 77 -98 -148 -112 -28 -165 -152 -39 -53 8 9 -25 hvcurveto
            500 vlineto
            3 17 29 3 33 hhcurveto
            return
          </CharString>
          <CharString index="32">
            rmoveto
            14 19 -153 130 -77 -28 rlineto
            -18 vlineto
            return
          </CharString>
          <CharString index="33">
            715 rmoveto
            -22 -18 100 -139 rlineto
            60 hlineto
            98 139 -21 18 -107 -90 rlineto
            return
          </CharString>
          <CharString index="34">
            vlineto
            -85 callsubr
            return
          </CharString>
          <CharString index="35">
            147 -39 hlineto
            -56 callsubr
            return
          </CharString>
          <CharString index="36">
            -613 -103 callsubr
            return
          </CharString>
          <CharString index="37">
            652 rmoveto
            23 15 -75 133 rlineto
            -75 -17 hlineto
            289 -131 rmoveto
            22 15 -75 133 rlineto
            -75 -17 hlineto
            return
          </CharString>
          <CharString index="38">
            -111 -30 -158 -164 return
          </CharString>
          <CharString index="39">
            32 vlineto
            -89 21 rlineto
            338 vlineto
            82 -63 27 -71 -65 -72 -23 -17 -40 vhcurveto
            267 -25 vlineto
            -148 -38 rlineto
            -23 -28 callsubr
            -603 vlineto
            -90 -21 rlineto
            -32 257 32 vlineto
            -83 21 -25 callsubr
            34 50 6 43 hhcurveto
            79 21 -13 -53 hvcurveto
            -321 vlineto
            -83 -21 rlineto
            -32 vlineto
            return
          </CharString>
          <CharString index="40">
            -33 vlineto
            85 -19 rlineto
            -429 vlineto
            -345 481 rlineto
            -148 -33 hlineto
            80 -19 rlineto
            return
          </CharString>
          <CharString index="41">
            261 33 hlineto
            -89 20 rlineto
            227 302 -227 -1 callgsubr
            506 vlineto
            89 -21 callgsubr
            -261 -33 vlineto
            89 -19 rlineto
            -230 -302 230 vlineto
            89 -21 callgsubr
            -261 -33 vlineto
            89 -19 rlineto
            -506 vlineto
            -89 -20 rlineto
            return
          </CharString>
          <CharString index="42">
            27 -17 callgsubr
            20 rlineto
            382 vlineto
            165 -8 rlineto
            59 -165 110 -37 vlineto
            -37 -100 -81 -25 rlineto
            -36 73 -367 vlineto
            return
          </CharString>
          <CharString index="43">
            31 29 24 33 return
          </CharString>
          <CharString index="44">
            rmoveto
            -58 callsubr
            33 75 -40 34 hhcurveto
            return
          </CharString>
          <CharString index="45">
            -164 184 608 rmoveto
            48 14 -22 -39 hvcurveto
            -61 vlineto
            -110 -19 rlineto
            -84 -15 -12 -53 -37 vvcurveto
            -46 29 -47 50 50 40 20 27 39 vhcurveto
            -27 4 25 -15 25 hhcurveto
            22 28 4 9 30 hvcurveto
            23 vlineto
            -65 14 rlineto
            245 vlineto
            64 -47 19 -69 -52 -50 -11 -17 -42 vhcurveto
            12 -91 rlineto
            27 hlineto
            17 66 rlineto
            7 23 26 2 22 hhcurveto
            -10 -168 rmoveto
            72 12 rlineto
            -106 vlineto
            -13 -23 -33 -14 -27 hhcurveto
            -29 -22 14 41 29 14 29 48 8 hvcurveto
            endchar
          </CharString>
          <CharString index="46">
            rmoveto
            58 hlineto
            28 87 rlineto
            -3 18 19 -2 21 hhcurveto
            167 65 114 139 110 -37 92 -93 37 hvcurveto
            33 102 rlineto
            -60 hlineto
            -28 -87 rlineto
            2 -15 -15 1 -17 hhcurveto
            -167 -66 -114 -143 -103 37 -89 86 -39 hvcurveto
            19 59 rmoveto
            -38 36 -12 64 75 vvcurveto
            117 29 90 109 13 11 -1 -2 11 vhcurveto
            -29 -412 rmoveto
            -17 -14 2 4 -14 hvcurveto
            125 382 rlineto
            44 -35 13 -66 -79 vvcurveto
            -64 callgsubr
            vhcurveto
            endchar
          </CharString>
          <CharString index="47">
            rmoveto
            -197 572 -58 -13 -187 -559 -72 -19 rlineto
            -33 203 33 vlineto
            -72 19 33 100 rlineto
            229 hlineto
            36 -102 -60 -17 rlineto
            -33 217 33 vlineto
            -408 165 rmoveto
            98 294 102 -294 rlineto
            endchar
          </CharString>
          <CharString index="48">
            198 29 157 89 return
          </CharString>
          <CharString index="49">
            -67 callgsubr
            -31 12 rlineto
            0 -20 -35 -23 vhcurveto
            -35 -73 40 -34 hhcurveto
            -33 -20 -42 -52 -21 hvcurveto
            30 -12 rlineto
            0 23 36 22 vhcurveto
            return
          </CharString>
          <CharString index="50">
            204 34 hlineto
            -69 19 108 210 rlineto
            147 hlineto
            14 -210 -93 -20 rlineto
            -33 400 147 -39 vlineto
            -26 -91 rlineto
            -161 hlineto
            -14 207 rlineto
            100 hlineto
            23 -69 rlineto
            37 182 -37 hlineto
            -21 -66 rlineto
            -105 hlineto
            -17 249 rlineto
            163 -41 callgsubr
            132 -400 -33 hlineto
            67 -14 -269 -511 -72 -20 rlineto
            267 277 rmoveto
            106 205 14 -205 rlineto
            endchar
          </CharString>
          <CharString index="51">
            -26 -91 rlineto
            -216 221 142 hlineto
            24 -69 rlineto
            36 181 -36 hlineto
            -97 callsubr
            return
          </CharString>
          <CharString index="52">
            -37 rlineto
            -23 -36 callsubr
            -89 return
          </CharString>
          <CharString index="53">
            402 rmoveto
            169 -71 56 -89 -89 -72 -58 -167 -166 72 -59 89 89 71 56 169 vhcurveto
            -17 -402 rmoveto
            223 611 rlineto
            -54 hlineto
            -223 -611 rlineto
            -88 246 rmoveto
            -52 -65 27 127 132 65 27 52 51 64 -26 -127 -130 -64 -30 -51 hvcurveto
            615 -28 rmoveto
            169 -71 55 -89 -90 -72 -58 -166 -167 72 -59 90 89 71 57 169 vhcurveto
            return
          </CharString>
          <CharString index="54">
            -18 381 552 -83 callgsubr
            -142 vmoveto
            -104 callgsubr
            return
          </CharString>
          <CharString index="55">
            -65 482 10 rmoveto
            23 vlineto
            -74 15 rlineto
            368 -22 vlineto
            -123 -30 rlineto
            -20 vlineto
            75 -8 rlineto
            -289 vlineto
            -15 -32 -39 -11 -43 hhcurveto
            -57 -10 20 37 hvcurveto
            316 -21 vlineto
            -123 -30 rlineto
            -20 vlineto
            74 -8 rlineto
            -578 72 vlineto
            -19 233 rlineto
            -15 7 20 -7 22 hhcurveto
            41 61 22 25 50 hvcurveto
            -26 6 25 -15 22 hhcurveto
            23 32 3 10 33 hvcurveto
            endchar
          </CharString>
          <CharString index="56">
            rmoveto
            32 -27 28 -32 -31 -26 -28 -32 -31 26 -25 31 32 27 25 31 vhcurveto
            return
          </CharString>
          <CharString index="57">
            vhcurveto
            -63 -31 -22 -41 -50 vvcurveto
            76 241 rmoveto
            43 34 19 40 43 22 -28 return
          </CharString>
          <CharString index="58">
            -23 80 rlineto
            -32 hlineto
            -18 -114 rlineto
            -34 65 57 -16 79 hhcurveto
            return
          </CharString>
          <CharString index="59">
            33 hlineto
            7 callsubr
            -494 hlineto
            9 callgsubr
            return
          </CharString>
          <CharString index="60">
            rmoveto
            30 27 25 30 -1 callsubr
            hvcurveto
            194 hmoveto
            30 28 25 30 0 callgsubr
            hvcurveto
            return
          </CharString>
          <CharString index="61">
            725 -100 callsubr
            return
          </CharString>
          <CharString index="62">
            rmoveto
            1 19 1 15 16 vvcurveto
            129 -60 59 -128 -139 -75 -90 -167 -167 76 -87 149 68 45 12 32 57 vhcurveto
            -6 31 rlineto
            -14 -50 -57 -8 -43 hhcurveto
            -93 -54 71 117 hvcurveto
            32 vlineto
            128 189 rmoveto
            64 28 -39 -82 hvcurveto
            -23 vlineto
            -218 -10 rlineto
            111 5 35 43 86 hhcurveto
            endchar
          </CharString>
          <CharString index="63">
            90 -53 callgsubr
            return
          </CharString>
          <CharString index="64">
            544 rmoveto
            126 153 rlineto
            17 -75 vlineto
            -70 -159 rlineto
            return
          </CharString>
          <CharString index="65">
            -11 callgsubr
            3 -587 -38 callgsubr
          </CharString>
          <CharString index="66">
            180 567 rmoveto
            49 27 -31 -44 -52 -27 -40 -48 -47 hvcurveto
            -147 -143 10 -38 rlineto
            298 hlineto
            9 102 -33 3 -28 -56 rlineto
            -178 hlineto
            114 103 rlineto
            56 51 49 59 60 vvcurveto
            86 -64 31 -78 -52 -51 -17 -20 -36 vhcurveto
            17 -35 rlineto
            18 28 callgsubr
            return
          </CharString>
          <CharString index="67">
            rmoveto
            167 171 -6 17 rlineto
            -82 hlineto
            -99 -175 rlineto
            return
          </CharString>
          <CharString index="68">
            rmoveto
            -167 -66 -114 -143 -139 67 -114 166 167 65 114 139 143 -63 114 -169 hvcurveto
            3 -462 -8 callgsubr
          </CharString>
          <CharString index="69">
            -79 20 -184 225 138 165 95 21 rlineto
            29 -257 -29 vlineto
            87 -21 -148 -183 168 -209 -44 -17 rlineto
            return
          </CharString>
          <CharString index="70">
            652 rmoveto
            128 131 rlineto
            17 -75 vlineto
            -75 -133 rlineto
            184 -15 14 callgsubr
            -75 vlineto
            -75 -133 rlineto
            return
          </CharString>
          <CharString index="71">
            -28 callsubr
            -377 vlineto
            return
          </CharString>
          <CharString index="72">
            rmoveto
            296 33 hlineto
            -107 20 rlineto
            171 vlineto
            169 1 callgsubr
            -206 -33 vlineto
            -11 callsubr
            -126 261 59 -53 callgsubr
            -226 -33 vlineto
            68 -20 167 -334 rlineto
            -171 vlineto
            -107 -20 rlineto
            endchar
          </CharString>
          <CharString index="73">
            -37 rlineto
            -23 vlineto
            return
          </CharString>
          <CharString index="74">
            rmoveto
            -16 callsubr
            33 -29 27 -31 hvcurveto
            endchar
          </CharString>
          <CharString index="75">
            vvcurveto
            -43 27 -42 67 64 30 50 0 vhcurveto
            -16 16 rlineto
            -16 -16 -18 -6 -16 hhcurveto
            return
          </CharString>
          <CharString index="76">
            rmoveto
            20 13 -99 175 rlineto
            -82 hlineto
            -6 -17 rlineto
            return
          </CharString>
          <CharString index="77">
            72 63 46 57 37 -34 33 -73 hvcurveto
            return
          </CharString>
          <CharString index="78">
            179 -13 14 -70 -15 rlineto
            endchar
          </CharString>
          <CharString index="79">
            vlineto
            89 -10 rlineto
            return
          </CharString>
          <CharString index="80">
            33 -28 27 -32 -32 -28 -27 -33 -32 28 -26 32 32 28 26 32 vhcurveto
            return
          </CharString>
          <CharString index="81">
            -52 10 611 rmoveto
            5 callgsubr
            296 33 vlineto
            7 callsubr
            return
          </CharString>
          <CharString index="82">
            rlineto
            371 vlineto
            10 return
          </CharString>
          <CharString index="83">
            rmoveto
            18 vlineto
            -76 28 -154 -130 16 -19 rlineto
            return
          </CharString>
          <CharString index="84">
            -102 callsubr
            -146 return
          </CharString>
          <CharString index="85">
            3 callsubr
            63 -25 -128 -130 -63 -30 -51 hvcurveto
            return
          </CharString>
          <CharString index="86">
            637 -51 callsubr
            return
          </CharString>
          <CharString index="87">
            vlineto
            -64 -19 rlineto
            -24 193 24 vlineto
            -58 19 rlineto
            272 vlineto
            7 25 35 4 31 hhcurveto
            56 14 -10 -37 hvcurveto
            -236 vlineto
            -57 -19 rlineto
            -24 194 24 vlineto
            return
          </CharString>
          <CharString index="88">
            rlineto
            30 hlineto
            return
          </CharString>
          <CharString index="89">
            -90 20 rlineto
            return
          </CharString>
          <CharString index="90">
            -12 22 hmoveto
            508 38 hlineto
            -229 573 rlineto
            -45 hlineto
            -158 -567 rmoveto
            170 457 162 -437 rlineto
            -20 vlineto
            endchar
          </CharString>
          <CharString index="91">
            -32 -28 -27 -33 -33 28 -24 32 -64 callsubr
            return
          </CharString>
          <CharString index="92">
            -37 -48 callgsubr
            return
          </CharString>
          <CharString index="93">
            459 147 return
          </CharString>
          <CharString index="94">
            rmoveto
            141 77 -98 -148 -112 -28 -165 -152 -39 -53 8 9 -25 hvcurveto
            500 vlineto
            3 17 29 3 33 hhcurveto
            endchar
          </CharString>
          <CharString index="95">
            rmoveto
            169 -70 55 -89 -90 -73 -58 -166 -167 73 -59 90 89 70 57 169 vhcurveto
            -159 -157 rmoveto
            -53 -64 28 return
          </CharString>
          <CharString index="96">
            71 -20 -130 -261 return
          </CharString>
          <CharString index="97">
            vlineto
            -146 return
          </CharString>
          <CharString index="98">
            128 -20 rlineto
            89 vlineto
            -128 -19 18 128 rlineto
            -86 hlineto
            19 -128 -126 19 rlineto
            -89 vlineto
            127 20 -24 return
          </CharString>
          <CharString index="99">
            502 rmoveto
            34 hlineto
            16 55 rlineto
            186 hlineto
            -176 -383 75 -6 165 395 -11 39 rlineto
            -295 hlineto
            return
          </CharString>
          <CharString index="100">
            -56 228 117 rmoveto
            52 164 167 53 -167 166 -52 -166 -165 -53 165 hlineto
            return
          </CharString>
          <CharString index="101">
            133 110 110 133 134 -110 110 -133 -134 -109 -110 -134 return
          </CharString>
          <CharString index="102">
            -210 vvcurveto
            -211 9 -77 144 -41 vhcurveto
            11 24 rlineto
            -100 45 0 111 149 vvcurveto
            endchar
          </CharString>
          <CharString index="103">
            19 -41 rlineto
            24 48 45 12 37 hhcurveto
            75 36 -36 -53 -70 -43 -52 -117 -12 hvcurveto
            3 -44 rlineto
            return
          </CharString>
          <CharString index="104">
            -44 42 -89 -98 -42 -49 -59 return
          </CharString>
          <CharString index="105">
            651 rmoveto
            111 82 15 callsubr
            rlineto
            return
          </CharString>
          <CharString index="106">
            32 -27 26 -30 -30 -27 -26 -32 -30 27 -25 30 return
          </CharString>
          <CharString index="107">
            vlineto
            -15 callgsubr
            return
          </CharString>
          <CharString index="108">
            11 -33 rlineto
            203 hlineto
            -145 46 rmoveto
            145 2 callgsubr
          </CharString>
          <CharString index="109">
            63 35 hvcurveto
            -32 20 rlineto
            -40 -25 -19 -14 -37 -59 -56 52 -60 hhcurveto
            -42 -38 -28 return
          </CharString>
          <CharString index="110">
            -53 -64 28 127 132 64 26 53 51 return
          </CharString>
          <CharString index="111">
            288 28 hlineto
            -115 25 return
          </CharString>
          <CharString index="112">
            248 rmoveto
            135 -177 34 22 -81 155 81 155 -34 23 rlineto
            return
          </CharString>
          <CharString index="113">
            -29 -40 -63 -58 -19 58 71 -1 hvcurveto
            endchar
          </CharString>
          <CharString index="114">
            -106 20 rlineto
            506 141 vlineto
            19 -88 rlineto
            39 hlineto
            6 140 rlineto
            return
          </CharString>
          <CharString index="115">
            rmoveto
            -226 -13 -18 -187 16 -17 rlineto
            115 60 -22 -75 -57 -44 return
          </CharString>
          <CharString index="116">
            26 -29 -31 -27 -26 -31 -31 27 -25 31 return
          </CharString>
          <CharString index="117">
            -10 callgsubr
            -14 -30 hhcurveto
            -41 -33 return
          </CharString>
          <CharString index="118">
            384 52 -384 hlineto
            endchar
          </CharString>
          <CharString index="119">
            102 652 rmoveto
            -83 -211 14 -17 76 18 15 205 rlineto
            return
          </CharString>
          <CharString index="120">
            rmoveto
            113 -373 31 callgsubr
          </CharString>
          <CharString index="121">
            rlineto
            -20 vlineto
            64 -7 rlineto
            return
          </CharString>
          <CharString index="122">
            116 -82 18 18 -102 131 rlineto
            -60 hlineto
            -100 -131 return
          </CharString>
          <CharString index="123">
            rmoveto
            63 179 -13 14 -70 -15 -13 -178 rlineto
            endchar
          </CharString>
          <CharString index="124">
            vlineto
            -69 -36 -42 -59 -56 vvcurveto
            -43 28 -42 67 vhcurveto
            endchar
          </CharString>
          <CharString index="125">
            107 -90 22 18 -100 139 rlineto
            -60 hlineto
            -98 -139 return
          </CharString>
          <CharString index="126">
            -101 -138 -10 -15 1 1 -9 hvcurveto
            -12 -37 rlineto
            -8 return
          </CharString>
          <CharString index="127">
            70 50 23 33 50 return
          </CharString>
          <CharString index="128">
            rmoveto
            -149 0 -111 -100 -45 vhcurveto
            11 -24 rlineto
            return
          </CharString>
          <CharString index="129">
            72 -53 callgsubr
            return
          </CharString>
          <CharString index="130">
            -3 26 hhcurveto
            141 74 100 143 143 return
          </CharString>
          <CharString index="131">
            vlineto
            132 48 rlineto
            45 vlineto
            -132 -48 rlineto
            return
          </CharString>
          <CharString index="132">
            54 32 40 50 63 18 -54 -101 hvcurveto
            endchar
          </CharString>
          <CharString index="133">
            rmoveto
            384 54 -384 hlineto
            return
          </CharString>
          <CharString index="134">
            27 87 9 11 41 return
          </CharString>
          <CharString index="135">
            rmoveto
            -33 vlineto
            71 -20 return
          </CharString>
          <CharString index="136">
            rlineto
            5 -21 -22 3 -21 hhcurveto
            -85 -134 return
          </CharString>
          <CharString index="137">
            -128 -130 -64 -31 -51 hvcurveto
            endchar
          </CharString>
        <CharString name=".notdef">
          -362 endchar
        </CharString>
        <CharString name="A">
          29 131 52 -99 callsubr
        </CharString>
        <CharString name="AE">
          171 -14 hmoveto
          -57 callsubr
        </CharString>
        <CharString name="AEacute">
          171 322 650 -97 callgsubr
          -320 -669 rmoveto
          -57 callsubr
        </CharString>
        <CharString name="Aacute">
          29 214 650 -97 callgsubr
          -67 -617 -99 callsubr
        </CharString>
        <CharString name="Abreve">
          29 295 -75 callgsubr
          -164 -71 callsubr
          endchar
        </CharString>
        <CharString name="Acircumflex">
          29 398 651 -92 callsubr
          -151 -681 -99 callsubr
        </CharString>
        <CharString name="Adieresis">
          29 246 722 -100 callgsubr
          -310 -670 -99 callsubr
        </CharString>
        <CharString name="Agrave">
          29 362 648 -75 callsubr
          -15 -699 -99 callsubr
        </CharString>
        <CharString name="Amacron">
          29 182 749 -43 callgsubr
          -268 -697 -99 callsubr
        </CharString>
        <CharString name="Aogonek">
          29 0 vmoveto
          207 33 hlineto
          -71 20 32 99 rlineto
          225 hlineto
          28 -80 rlineto
          2 -7 1 -4 -5 -43 -127 -51 -113 vvcurveto
          -39 26 -46 66 64 30 50 0 vhcurveto
          -16 16 rlineto
          -16 -15 -17 -7 -18 hhcurveto
          -30 -25 22 46 48 39 77 67 hvcurveto
          126 33 hlineto
          -72 19 -202 572 -61 -13 -187 -558 -72 -20 rlineto
          278 455 rmoveto
          100 -290 rlineto
          -196 hlineto
          endchar
        </CharString>
        <CharString name="Aring">
          29 288 633 -74 callgsubr
          -288 -668 rmoveto
          203 33 hlineto
          -72 19 33 100 rlineto
          229 hlineto
          36 -102 -60 -17 rlineto
          -33 217 33 vlineto
          -72 19 -197 572 -58 -13 -187 -559 -72 -19 rlineto
          178 165 rmoveto
          98 294 102 -294 rlineto
          endchar
        </CharString>
        <CharString name="Aringacute">
          29 253 831 -97 callgsubr
          60 -217 -74 callgsubr
          -166 -616 -99 callsubr
        </CharString>
        <CharString name="Atilde">
          29 436 762 -102 callsubr
          -305 -710 -99 callsubr
        </CharString>
        <CharString name="B">
          -7 350 323 rmoveto
          86 16 46 48 79 vvcurveto
          81 -56 64 -149 vhcurveto
          -239 -33 hlineto
          90 -20 rlineto
          -505 21 callgsubr
          -33 245 vlineto
          138 82 69 100 78 -46 54 -107 22 hvcurveto
          -92 17 rmoveto
          -47 219 hlineto
          5 21 21 4 20 hhcurveto
          67 56 -34 -77 -81 -54 -36 -84 hvcurveto
          -47 -291 rmoveto
          250 41 vlineto
          105 57 -41 -84 -98 -67 -35 -76 -19 -21 2 6 -20 hvcurveto
          endchar
        </CharString>
        <CharString name="C">
          -13 502 23 rmoveto
          -88 callgsubr
          -175 81 -143 202 76 49 12 20 53 hvcurveto
          endchar
        </CharString>
        <CharString name="Cacute">
          -39 227 650 -97 callgsubr
          291 -646 rmoveto
          -88 callgsubr
          -175 81 -143 202 76 49 12 20 53 hvcurveto
          endchar
        </CharString>
        <CharString name="Cacute.loclPLK">
          -13 317 -42 callgsubr
          207 -644 rmoveto
          -88 callgsubr
          -175 81 -143 202 76 49 12 20 53 hvcurveto
          endchar
        </CharString>
        <CharString name="Ccaron">
          -39 284 -82 callsubr
          142 -791 rmoveto
          76 49 12 20 53 hvcurveto
          -88 callgsubr
          -175 81 -143 202 hvcurveto
          endchar
        </CharString>
        <CharString name="Ccedilla">
          -39 324 -9 rmoveto
          76 49 12 20 53 hvcurveto
          -88 callgsubr
          -164 71 -136 175 -16 hvcurveto
          -20 -60 -73 callgsubr
          -30 callsubr
          12 37 rlineto
          endchar
        </CharString>
        <CharString name="Ccircumflex">
          -13 439 651 -92 callsubr
          179 -710 rmoveto
          -88 callgsubr
          -175 81 -143 202 76 49 12 20 53 hvcurveto
          endchar
        </CharString>
        <CharString name="Cdotaccent">
          -13 386 -46 callsubr
          116 -702 rmoveto
          -88 callgsubr
          -175 81 -143 202 76 49 12 20 53 hvcurveto
          endchar
        </CharString>
        <CharString name="D">
          74 300 611 -76 callsubr
          endchar
        </CharString>
        <CharString name="Dcaron">
          65 284 -82 callsubr
          -144 -782 rmoveto
          -6 callgsubr
          -505 16 callgsubr
          500 -3 callgsubr
        </CharString>
        <CharString name="Dcroat">
          -49 callgsubr
        </CharString>
        <CharString name="E">
          -21 383 389 -99 callgsubr
          endchar
        </CharString>
        <CharString name="Eacute">
          -21 209 650 -97 callgsubr
          -154 -669 rmoveto
          459 -72 callsubr
          endchar
        </CharString>
        <CharString name="Ebreve">
          -21 273 -75 callgsubr
          110 -276 -99 callgsubr
          endchar
        </CharString>
        <CharString name="Ecaron">
          -21 257 -82 callsubr
          -116 -782 rmoveto
          459 -72 callsubr
          endchar
        </CharString>
        <CharString name="Ecircumflex">
          -21 393 651 -92 callsubr
          106 -344 -99 callgsubr
          endchar
        </CharString>
        <CharString name="Edieresis">
          -21 244 722 -100 callgsubr
          -56 -333 -99 callgsubr
          endchar
        </CharString>
        <CharString name="Edotaccent">
          -21 356 -46 callsubr
          27 -336 -99 callgsubr
          endchar
        </CharString>
        <CharString name="Egrave">
          -21 387 650 -75 callsubr
          -132 -753 rmoveto
          459 -72 callsubr
          endchar
        </CharString>
        <CharString name="Emacron">
          -21 172 749 -43 callgsubr
          -6 -360 -99 callgsubr
          endchar
        </CharString>
        <CharString name="Eng">
          127 462 -167 rmoveto
          75 48 54 170 hvcurveto
          502 vlineto
          81 -21 callgsubr
          -222 -87 callsubr
          327 -467 rlineto
          -41 vlineto
          -39 -16 -54 -53 vhcurveto
          -46 hlineto
          -5 -31 rlineto
          -17 33 32 -6 16 hhcurveto
          endchar
        </CharString>
        <CharString name="Eogonek">
          -21 421 -236 rmoveto
          64 30 50 0 hvcurveto
          -16 16 rlineto
          -16 -16 -18 -6 -16 hhcurveto
          -34 -21 21 38 51 31 51 30 31 hvcurveto
          43 -72 callsubr
          -33 382 vlineto
          -67 -53 -27 -56 -42 vvcurveto
          -43 27 -42 67 vhcurveto
          endchar
        </CharString>
        <CharString name="Eth">
          -49 callgsubr
        </CharString>
        <CharString name="Euro">
          -63 192 307 rmoveto
          22 199 vlineto
          8 43 rlineto
          -205 hlineto
          165 13 59 30 81 hhcurveto
          27 18 -4 -5 18 hvcurveto
          21 -80 rlineto
          32 hlineto
          15 113 rlineto
          17 -44 -47 11 -58 hhcurveto
          -93 -105 -38 -209 -19 hvcurveto
          -71 hlineto
          -8 -43 rlineto
          76 -22 hlineto
          -17 0 -16 1 -14 vhcurveto
          -69 hlineto
          -8 -43 rlineto
          80 hlineto
          -191 23 102 -32 108 hhcurveto
          52 39 8 17 37 hvcurveto
          -8 41 rlineto
          -9 -35 -31 -4 -26 hhcurveto
          -121 -42 77 93 -13 hvcurveto
          193 hlineto
          8 43 rlineto
          -206 hlineto
          -1 14 0 17 16 vvcurveto
          endchar
        </CharString>
        <CharString name="F">
          -67 473 611 rmoveto
          -435 -33 hlineto
          95 -20 rlineto
          -505 vlineto
          -95 -20 rlineto
          -33 292 34 vlineto
          -113 20 rlineto
          213 142 vlineto
          24 -69 rlineto
          36 181 -36 hlineto
          -21 -66 rlineto
          -145 246 196 -41 callgsubr
          hlineto
          endchar
        </CharString>
        <CharString name="G">
          35 448 567 -95 callsubr
        </CharString>
        <CharString name="G_tilde.loclGUA">
          16 473 792 -102 callsubr
          -25 -225 -95 callsubr
        </CharString>
        <CharString name="Gbreve">
          16 321 -75 callgsubr
          127 -98 -95 callsubr
        </CharString>
        <CharString name="Gcaron">
          35 271 -82 callsubr
          279 -215 -95 callsubr
        </CharString>
        <CharString name="Gcircumflex">
          35 413 651 -92 callsubr
          151 -166 -95 callsubr
        </CharString>
        <CharString name="Gcommaaccent">
          16 339 -11 rmoveto
          73 62 15 27 45 hvcurveto
          203 vlineto
          71 20 rlineto
          34 -243 -34 vlineto
          89 -20 rlineto
          -178 vlineto
          -14 -28 -30 -5 -35 hhcurveto
          -174 -38 159 113 113 36 156 179 40 37 -5 -6 25 hvcurveto
          24 -97 rlineto
          38 hlineto
          14 127 rlineto
          21 -45 -79 9 -54 hhcurveto
          -225 -80 -144 -174 -173 76 -147 222 hvcurveto
          -62 -210 rmoveto
          33 hlineto
          64 -29 callsubr
        </CharString>
        <CharString name="Gdotaccent">
          35 360 -46 callsubr
          88 -158 -95 callsubr
        </CharString>
        <CharString name="H">
          158 39 hmoveto
          -66 callsubr
          endchar
        </CharString>
        <CharString name="Hbar">
          158 596 53 rmoveto
          340 86 46 -86 120 vlineto
          89 -21 callgsubr
          -261 -33 vlineto
          89 -19 rlineto
          -120 -302 120 vlineto
          89 -21 callgsubr
          -261 -33 vlineto
          89 -19 rlineto
          -120 -86 -46 86 -340 vlineto
          -89 -20 rlineto
          -33 261 33 vlineto
          -89 20 rlineto
          197 302 -197 0 callsubr
          -475 266 rmoveto
          94 302 -94 vlineto
          endchar
        </CharString>
        <CharString name="Hcircumflex">
          158 475 651 -92 callsubr
          -320 -733 rmoveto
          -66 callsubr
          endchar
        </CharString>
        <CharString name="I">
          -226 38 hmoveto
          -23 callgsubr
          505 vlineto
          -91 callsubr
          endchar
        </CharString>
        <CharString name="IJ">
          57 38 hmoveto
          -23 callgsubr
          505 vlineto
          -91 callsubr
          347 -182 -77 callgsubr
        </CharString>
        <CharString name="Iacute">
          -226 73 650 -97 callgsubr
          -19 -669 rmoveto
          -23 callgsubr
          505 vlineto
          -91 callsubr
          endchar
        </CharString>
        <CharString name="Iacute_J.loclNLD">
          57 124 650 -97 callgsubr
          322 -19 -97 callgsubr
          -376 -669 rmoveto
          -23 callgsubr
          505 vlineto
          -91 callsubr
          347 -182 -77 callgsubr
        </CharString>
        <CharString name="Ibreve">
          -226 171 -75 callgsubr
          -133 -665 rmoveto
          -23 callgsubr
          505 vlineto
          -91 callsubr
          endchar
        </CharString>
        <CharString name="Icircumflex">
          -226 55 -2 callsubr
          -669 vmoveto
          -23 callgsubr
          505 vlineto
          -91 callsubr
          endchar
        </CharString>
        <CharString name="Idieresis">
          -226 73 667 -47 callsubr
          -229 -667 rmoveto
          -23 callgsubr
          505 vlineto
          -91 callsubr
          endchar
        </CharString>
        <CharString name="Idotaccent">
          -226 169 668 -50 callgsubr
          -131 -668 rmoveto
          -23 callgsubr
          505 vlineto
          -91 callsubr
          endchar
        </CharString>
        <CharString name="Igrave">
          -226 269 650 -75 callsubr
          -15 -753 rmoveto
          -23 callgsubr
          505 vlineto
          -91 callsubr
          endchar
        </CharString>
        <CharString name="Imacron">
          -226 61 697 rmoveto
          217 52 -217 hlineto
          -23 -749 rmoveto
          -23 callgsubr
          505 vlineto
          -91 callsubr
          endchar
        </CharString>
        <CharString name="Iogonek">
          -226 207 -236 rmoveto
          64 30 50 0 hvcurveto
          -17 -24 callgsubr
          51 28 58 93 24 hvcurveto
          33 vlineto
          -18 callsubr
          505 vlineto
          -91 callsubr
          -33 185 17 callsubr
        </CharString>
        <CharString name="Itilde">
          -226 242 699 -63 callsubr
          -204 -699 rmoveto
          -23 callgsubr
          505 vlineto
          -91 callsubr
          endchar
        </CharString>
        <CharString name="J">
          -273 55 -149 -77 callgsubr
        </CharString>
        <CharString name="Jcircumflex">
          -273 259 651 -92 callsubr
          -88 -882 -77 callgsubr
        </CharString>
        <CharString name="K">
          19 574 hmoveto
          33 vlineto
          -26 callgsubr
          -33 -9 callgsubr
          vlineto
          -18 callsubr
          259 vlineto
          220 -312 rlineto
          endchar
        </CharString>
        <CharString name="Kcommaaccent">
          19 38 hmoveto
          -23 callgsubr
          259 vlineto
          220 -312 rlineto
          143 33 hlineto
          -26 callgsubr
          233 -254 rmoveto
          33 hlineto
          65 -29 callsubr
        </CharString>
        <CharString name="L">
          -87 466 hmoveto
          147 -38 vlineto
          -25 -91 rlineto
          -192 502 hlineto
          -91 callsubr
          -33 vlineto
          endchar
        </CharString>
        <CharString name="Lacute">
          -87 110 650 -97 callgsubr
          372 -669 rmoveto
          147 -38 vlineto
          -25 -91 rlineto
          -192 502 hlineto
          -91 callsubr
          -33 vlineto
          endchar
        </CharString>
        <CharString name="Lcaron">
          -87 134 -82 callsubr
          6 -782 rmoveto
          428 147 -38 hlineto
          -25 -91 rlineto
          -192 502 hlineto
          -91 callsubr
          endchar
        </CharString>
        <CharString name="Lcommaaccent">
          -87 38 hmoveto
          428 147 -38 hlineto
          -25 -91 rlineto
          -192 502 hlineto
          -91 callsubr
          186 -254 rmoveto
          34 hlineto
          64 -29 callsubr
        </CharString>
        <CharString name="Ldot">
          -87 466 hmoveto
          147 -38 vlineto
          -25 -91 rlineto
          -192 502 hlineto
          -91 callsubr
          -33 vlineto
          423 434 -19 callgsubr
        </CharString>
        <CharString name="Lslash">
          -87 38 hmoveto
          428 147 -38 hlineto
          -25 -91 rlineto
          -192 248 hlineto
          123 69 -24 39 -99 -57 rlineto
          203 vlineto
          -44 callsubr
          -263 -33 vlineto
          90 -20 rlineto
          -250 vlineto
          -92 -53 22 -37 70 39 rlineto
          -204 21 callgsubr
          endchar
        </CharString>
        <CharString name="M">
          229 247 hmoveto
          33 vlineto
          -89 20 15 458 187 -521 50 10 177 508 16 -455 -15 callgsubr
          -92 20 -19 505 -44 callsubr
          -191 vlineto
          -165 -489 -174 489 rlineto
          -185 -33 hlineto
          80 -19 -17 -506 -81 -20 rlineto
          -33 vlineto
          endchar
        </CharString>
        <CharString name="N">
          127 444 611 rmoveto
          -87 callsubr
          349 -498 -36 callgsubr
          vlineto
          endchar
        </CharString>
        <CharString name="Nacute">
          129 266 650 -97 callgsubr
          192 -58 rmoveto
          -87 callsubr
          349 -498 -36 callgsubr
          vlineto
          endchar
        </CharString>
        <CharString name="Nacute.loclPLK">
          127 337 -42 callgsubr
          129 -56 rmoveto
          -87 callsubr
          349 -498 -36 callgsubr
          vlineto
          endchar
        </CharString>
        <CharString name="Ncaron">
          129 324 -82 callsubr
          299 -792 rmoveto
          -36 callgsubr
          -222 -87 callsubr
          endchar
        </CharString>
        <CharString name="Ncommaaccent">
          129 521 -10 rmoveto
          -36 callgsubr
          -222 -87 callsubr
          137 -709 rmoveto
          33 hlineto
          65 179 -14 14 -70 -15 rlineto
          endchar
        </CharString>
        <CharString name="Ntilde">
          129 501 762 -102 callsubr
          -59 -151 rmoveto
          -87 callsubr
          349 -498 -36 callgsubr
          vlineto
          endchar
        </CharString>
        <CharString name="O">
          93 330 626 rmoveto
          -105 callsubr
          endchar
        </CharString>
        <CharString name="OE">
          254 754 611 rmoveto
          -424 hlineto
          -208 -81 -129 -174 -174 83 -134 206 hvcurveto
          450 147 -39 hlineto
          -27 -91 rlineto
          -213 221 140 hlineto
          23 -69 rlineto
          37 181 -37 hlineto
          -21 -66 rlineto
          -142 236 193 hlineto
          22 -80 rlineto
          38 hlineto
          -336 79 rmoveto
          -505 vlineto
          -6 -27 -30 -1 -28 hhcurveto
          -166 -37 151 111 113 33 145 161 43 13 -2 -6 38 hvcurveto
          endchar
        </CharString>
        <CharString name="Oacute">
          93 283 650 -97 callgsubr
          63 -43 rmoveto
          -105 callsubr
          endchar
        </CharString>
        <CharString name="Oacute.loclPLK">
          93 320 -42 callgsubr
          32 -41 rmoveto
          -105 callsubr
          endchar
        </CharString>
        <CharString name="Obreve">
          93 330 -75 callgsubr
          -39 vmoveto
          -105 callsubr
          endchar
        </CharString>
        <CharString name="Ocircumflex">
          93 443 651 -92 callsubr
          3 -107 rmoveto
          -105 callsubr
          endchar
        </CharString>
        <CharString name="Odieresis">
          93 289 723 -100 callgsubr
          -154 -97 rmoveto
          -105 callsubr
          endchar
        </CharString>
        <CharString name="Ograve">
          93 422 650 -75 callsubr
          124 -127 rmoveto
          -105 callsubr
          endchar
        </CharString>
        <CharString name="Ohorn">
          93 668 646 -95 callgsubr
          endchar
        </CharString>
        <CharString name="Ohungarumlaut">
          93 216 652 14 callgsubr
          -74 vlineto
          -76 -133 rlineto
          184 -15 14 callgsubr
          -74 vlineto
          -76 -133 rlineto
          -24 -676 rmoveto
          206 81 143 174 -60 callgsubr
          -208 -81 -144 -174 -174 83 -143 206 hvcurveto
          3 48 -38 callgsubr
        </CharString>
        <CharString name="Omacron">
          93 220 749 -43 callgsubr
          -107 -123 rmoveto
          -105 callsubr
          endchar
        </CharString>
        <CharString name="Oslash">
          93 163 -96 -62 callgsubr
        </CharString>
        <CharString name="Oslashacute">
          93 233 650 -97 callgsubr
          -54 -765 -62 callgsubr
        </CharString>
        <CharString name="Otilde">
          93 474 762 -102 callsubr
          -144 -136 rmoveto
          -105 callsubr
          endchar
        </CharString>
        <CharString name="P">
          -44 268 611 rmoveto
          -229 -35 hlineto
          91 -22 rlineto
          -501 vlineto
          -91 -20 rlineto
          -33 278 34 vlineto
          -104 19 rlineto
          206 vlineto
          -7 28 28 -3 25 hhcurveto
          110 92 64 128 115 -92 55 -136 hvcurveto
          -55 -314 rmoveto
          262 vlineto
          6 19 25 4 20 hhcurveto
          72 55 -40 -96 -108 -61 -36 -71 -20 -20 1 7 -19 hvcurveto
          endchar
        </CharString>
        <CharString name="Q">
          93 682 -126 rmoveto
          -3 28 rlineto
          -81 hlineto
          -24 -94 44 53 -111 hvcurveto
          165 19 84 121 169 vvcurveto
          174 -79 144 -209 -208 -81 -144 -174 -150 81 -127 149 -31 vhcurveto
          180 -109 rlineto
          -41 68 22 -1 36 hhcurveto
          35 47 14 11 23 hvcurveto
          -551 434 rmoveto
          113 32 157 161 167 37 -157 -113 -111 -39 -156 -156 -159 -43 156 111 vhcurveto
          endchar
        </CharString>
        <CharString name="R">
          -7 441 hmoveto
          -88 callsubr
          endchar
        </CharString>
        <CharString name="Racute">
          -7 191 650 -97 callgsubr
          266 -669 rmoveto
          -88 callsubr
          endchar
        </CharString>
        <CharString name="Rcaron">
          -7 250 -82 callsubr
          -108 -782 rmoveto
          -51 callgsubr
          endchar
        </CharString>
        <CharString name="Rcommaaccent">
          -7 40 hmoveto
          -51 callgsubr
          -1 -540 rmoveto
          33 hlineto
          64 -29 callsubr
        </CharString>
        <CharString name="S">
          -107 45 456 -90 callsubr
          endchar
        </CharString>
        <CharString name="Sacute">
          -107 154 650 -97 callgsubr
          -89 -213 -90 callsubr
          endchar
        </CharString>
        <CharString name="Sacute.loclPLK">
          -107 220 -42 callgsubr
          -153 -211 -90 callsubr
          endchar
        </CharString>
        <CharString name="Scaron">
          -107 206 -82 callsubr
          102 -793 -57 callgsubr
          endchar
        </CharString>
        <CharString name="Scedilla">
          -107 190 -219 rmoveto
          -30 callsubr
          11 35 rlineto
          134 6 68 66 102 vvcurveto
          86 -35 45 -69 26 vhcurveto
          -108 44 rlineto
          -60 24 -32 28 58 vvcurveto
          67 49 36 78 25 43 -4 -6 19 vhcurveto
          22 -97 rlineto
          37 hlineto
          10 130 rlineto
          17 -52 -56 10 -54 hhcurveto
          -128 -71 -64 -107 -87 42 -45 60 -23 hvcurveto
          111 -43 rlineto
          66 -26 22 -38 -53 vvcurveto
          -61 -51 -42 -83 -44 -41 8 6 -23 vhcurveto
          -19 86 rlineto
          -37 hlineto
          -14 -118 48 -20 63 -10 50 -1 rlinecurve
          -19 -56 -73 callgsubr
          endchar
        </CharString>
        <CharString name="Scircumflex">
          -107 342 651 -92 callsubr
          -181 -277 -90 callsubr
          endchar
        </CharString>
        <CharString name="Scommaaccent">
          -107 210 -11 -57 callgsubr
          -29 -210 rmoveto
          33 hlineto
          65 -29 callsubr
        </CharString>
        <CharString name="T">
          -26 callsubr
          endchar
        </CharString>
        <CharString name="Tbar">
          -52 440 559 rmoveto
          19 -88 rlineto
          39 hlineto
          6 140 rlineto
          -494 hlineto
          8 -140 rlineto
          36 hlineto
          20 88 rlineto
          142 -227 -174 -46 174 -233 hlineto
          -107 -20 rlineto
          -33 296 33 vlineto
          -106 20 rlineto
          233 178 46 -178 227 vlineto
          endchar
        </CharString>
        <CharString name="Tcaron">
          -52 225 -82 callsubr
          -14 -782 rmoveto
          296 -48 callsubr
          endchar
        </CharString>
        <CharString name="Thorn">
          -65 38 hmoveto
          -23 callgsubr
          81 vlineto
          -5 23 23 -2 22 hhcurveto
          110 91 64 128 114 -91 56 -137 hvcurveto
          -41 69 hlineto
          -91 callsubr
          218 134 rmoveto
          -15 -15 1 3 -15 hvcurveto
          269 vlineto
          4 17 17 3 16 hhcurveto
          72 56 -40 -96 -108 -62 -36 -71 hvcurveto
          endchar
        </CharString>
        <CharString name="U">
          86 556 236 -104 callsubr
          endchar
        </CharString>
        <CharString name="Uacute">
          86 247 650 -97 callgsubr
          325 -433 -104 callsubr
          endchar
        </CharString>
        <CharString name="Ubreve">
          86 327 -75 callgsubr
          229 -429 -104 callsubr
          endchar
        </CharString>
        <CharString name="Ucircumflex">
          86 456 651 -92 callsubr
          216 -497 -104 callsubr
          endchar
        </CharString>
        <CharString name="Udieresis">
          86 302 722 -100 callgsubr
          59 -486 -104 callsubr
          endchar
        </CharString>
        <CharString name="Ugrave">
          86 392 650 -75 callsubr
          380 -517 -104 callsubr
          endchar
        </CharString>
        <CharString name="Uhorn">
          86 697 675 -92 callgsubr
          endchar
        </CharString>
        <CharString name="Uhungarumlaut">
          86 230 -37 callsubr
          187 -431 -104 callsubr
          endchar
        </CharString>
        <CharString name="Umacron">
          86 231 749 -43 callgsubr
          108 -513 -104 callsubr
          endchar
        </CharString>
        <CharString name="Uogonek">
          86 361 -236 rmoveto
          64 30 50 0 hvcurveto
          -17 -24 callgsubr
          42 12 70 63 21 hvcurveto
          126 37 21 124 75 vvcurveto
          -54 callgsubr
          -223 -101 callsubr
          vhcurveto
          10 hlineto
          -50 -38 -23 -52 -51 vvcurveto
          -43 28 -42 67 vhcurveto
          endchar
        </CharString>
        <CharString name="Uring">
          86 345 633 -74 callgsubr
          -16 -678 rmoveto
          -59 callsubr
          hvcurveto
          -54 callgsubr
          -223 -101 callsubr
          vhcurveto
          endchar
        </CharString>
        <CharString name="Utilde">
          86 490 792 -102 callsubr
          66 -556 -104 callsubr
          endchar
        </CharString>
        <CharString name="V">
          35 273 -10 rmoveto
          63 12 187 556 22 callsubr
          -204 -33 vlineto
          72 -20 -139 -432 -6 -25 -6 25 -149 432 59 -53 callgsubr
          -217 -33 vlineto
          72 -20 rlineto
          endchar
        </CharString>
        <CharString name="W">
          183 569 611 -78 callgsubr
        </CharString>
        <CharString name="Wacute">
          183 537 753 -24 callsubr
          246 -39 -78 callgsubr
        </CharString>
        <CharString name="Wcircumflex">
          183 366 733 rmoveto
          15 callsubr
          17 -18 rlineto
          314 -40 -78 callgsubr
        </CharString>
        <CharString name="Wdieresis">
          183 271 667 -47 callsubr
          104 -56 -78 callgsubr
        </CharString>
        <CharString name="Wgrave">
          183 434 669 -28 callgsubr
          149 -39 -78 callgsubr
        </CharString>
        <CharString name="X">
          0 208 33 rmoveto
          -68 20 128 201 131 -202 -59 -19 rlineto
          -33 226 33 vlineto
          -68 19 -167 259 161 247 69 -53 callgsubr
          -206 -33 vlineto
          67 -20 -124 -195 -124 195 57 -53 callgsubr
          -224 -33 vlineto
          67 -20 161 -251 -165 -254 -69 -20 rlineto
          -33 207 vlineto
          endchar
        </CharString>
        <CharString name="Y">
          2 363 578 rmoveto
          -84 callsubr
          -206 vlineto
          endchar
        </CharString>
        <CharString name="Y.loclGUA">
          98 193 -83 rmoveto
          -49 callsubr
          -94 callgsubr
          endchar
        </CharString>
        <CharString name="Yacute">
          2 204 650 -97 callgsubr
          167 -91 rmoveto
          -84 callsubr
          -206 vlineto
          endchar
        </CharString>
        <CharString name="Yacute.loclGUA">
          98 262 650 rmoveto
          215 103 rlineto
          18 vlineto
          -77 28 -153 -130 rlineto
          -45 -752 rmoveto
          -49 callsubr
          -94 callgsubr
          endchar
        </CharString>
        <CharString name="Ycircumflex">
          2 407 651 -92 callsubr
          64 -155 rmoveto
          -84 callsubr
          -206 vlineto
          endchar
        </CharString>
        <CharString name="Ycircumflex.loclGUA">
          98 230 -2 callsubr
          117 -836 rmoveto
          -94 callgsubr
          -49 callsubr
          endchar
        </CharString>
        <CharString name="Ydieresis">
          2 196 668 rmoveto
          28 28 25 31 31 -28 26 -28 -32 -26 -26 -31 -31 26 -25 32 hvcurveto
          194 hmoveto
          29 28 25 31 31 -28 9 callsubr
          hvcurveto
          -258 -668 -35 callsubr
        </CharString>
        <CharString name="Ydieresis.loclGUA">
          98 303 730 rmoveto
          31 -27 9 callsubr
          29 27 25 31 vhcurveto
          195 hmoveto
          31 -28 9 callsubr
          29 28 25 31 vhcurveto
          -296 -813 rmoveto
          -49 callsubr
          -94 callgsubr
          endchar
        </CharString>
        <CharString name="Ygrave">
          2 393 650 rmoveto
          15 19 -152 130 -77 -28 rlineto
          -18 vlineto
          -47 -753 -35 callsubr
        </CharString>
        <CharString name="Ygrave.loclGUA">
          98 424 650 rmoveto
          16 19 -153 130 -77 -28 rlineto
          -18 vlineto
          -8 -836 rmoveto
          -49 callsubr
          -94 callgsubr
          endchar
        </CharString>
        <CharString name="Z">
          -47 474 147 -80 callsubr
          endchar
        </CharString>
        <CharString name="Zacute">
          -47 180 650 -97 callgsubr
          310 -522 -80 callsubr
          endchar
        </CharString>
        <CharString name="Zacute.loclPLK">
          -47 250 -42 callgsubr
          246 -520 -80 callsubr
          endchar
        </CharString>
        <CharString name="Zcaron">
          -47 250 -82 callsubr
          -83 -782 rmoveto
          402 hlineto
          11 147 rlineto
          -39 hlineto
          -37 -93 rlineto
          -251 hlineto
          324 525 -5 32 rlineto
          -402 hlineto
          9 -132 rlineto
          38 hlineto
          22 79 rlineto
          237 hlineto
          -327 -525 rlineto
          endchar
        </CharString>
        <CharString name="Zdotaccent">
          -47 331 -46 callsubr
          143 -578 -80 callsubr
          endchar
        </CharString>
        <CharString name="a">
          -56 231 446 rmoveto
          -107 callgsubr
          endchar
        </CharString>
        <CharString name="aacute">
          -56 175 558 -97 callgsubr
          72 -131 rmoveto
          -107 callgsubr
          endchar
        </CharString>
        <CharString name="abreve">
          -56 230 578 -98 callsubr
          1 -132 rmoveto
          -107 callgsubr
          endchar
        </CharString>
        <CharString name="acircumflex">
          -56 336 552 -83 callgsubr
          2 -196 rmoveto
          -107 callgsubr
          endchar
        </CharString>
        <CharString name="acute">
          -310 28 558 -97 callgsubr
          endchar
        </CharString>
        <CharString name="acute.case">
          -310 28 650 -97 callgsubr
          endchar
        </CharString>
        <CharString name="acute.loclPLK">
          -310 93 -43 callsubr
          endchar
        </CharString>
        <CharString name="acute.loclPLK.case">
          -310 95 -42 callgsubr
          endchar
        </CharString>
        <CharString name="acutecomb">
          -565 -227 650 -97 callgsubr
          endchar
        </CharString>
        <CharString name="adieresis">
          -56 191 635 -100 callgsubr
          -155 -189 rmoveto
          -107 callgsubr
          endchar
        </CharString>
        <CharString name="ae">
          111 140 -10 -72 callgsubr
        </CharString>
        <CharString name="aeacute">
          111 264 558 -97 callgsubr
          -108 -587 -72 callgsubr
        </CharString>
        <CharString name="agrave">
          -56 321 558 -75 callsubr
          126 -215 rmoveto
          -107 callgsubr
          endchar
        </CharString>
        <CharString name="amacron">
          -56 117 661 -43 callgsubr
          -103 -215 rmoveto
          -107 callgsubr
          endchar
        </CharString>
        <CharString name="ampersand">
          -68 callgsubr
        </CharString>
        <CharString name="ampersand.001">
          -68 callgsubr
        </CharString>
        <CharString name="aogonek">
          -56 491 12 rmoveto
          28 vlineto
          -90 18 rlineto
          -98 callgsubr
          70 17 -33 -51 hvcurveto
          -84 -17 callgsubr
          -27 rlineto
          -111 -20 -16 -71 -48 vvcurveto
          -61 37 -62 70 65 57 25 37 51 vhcurveto
          -37 7 27 -18 32 hhcurveto
          11 hlineto
          -58 -41 -37 -55 -51 vvcurveto
          -43 28 -42 67 64 30 50 0 vhcurveto
          -17 -24 callgsubr
          67 37 51 84 27 hvcurveto
          -173 76 rmoveto
          -17 -32 -48 -20 -38 hhcurveto
          -42 -31 19 57 40 20 39 67 11 hvcurveto
          104 17 rlineto
          endchar
        </CharString>
        <CharString name="approxequal">
          -56 83 323 rmoveto
          40 26 23 16 30 54 68 -55 53 hhcurveto
          43 39 33 2 callsubr
          -67 -33 hvcurveto
          30 -169 rmoveto
          40 26 23 16 30 54 68 -53 53 hhcurveto
          43 39 31 64 35 hvcurveto
          -32 19 rlineto
          -39 -25 -19 -15 -37 -59 -56 53 -60 hhcurveto
          -42 -38 -28 -66 -33 hvcurveto
          endchar
        </CharString>
        <CharString name="aring">
          -56 334 629 -46 callgsubr
          -249 vmoveto
          -107 callgsubr
          endchar
        </CharString>
        <CharString name="aringacute">
          -56 205 711 -97 callgsubr
          60 -217 -74 callgsubr
          -18 -102 rmoveto
          -107 callgsubr
          endchar
        </CharString>
        <CharString name="arrowdown">
          -9 67 319 rmoveto
          211 -290 rlineto
          13 hlineto
          198 290 -27 28 -145 -173 13 317 rlineto
          -92 hlineto
          13 -317 -157 173 rlineto
          endchar
        </CharString>
        <CharString name="arrowleft">
          -9 192 299 rmoveto
          172 145 -27 27 -290 -198 rlineto
          -13 vlineto
          290 -211 27 28 -172 156 317 -13 rlineto
          93 vlineto
          endchar
        </CharString>
        <CharString name="arrowright">
          -9 219 49 rmoveto
          290 211 rlineto
          13 vlineto
          -290 198 -28 -27 172 -145 -316 14 rlineto
          -93 vlineto
          316 13 -172 -156 rlineto
          endchar
        </CharString>
        <CharString name="arrowup">
          -9 489 201 rmoveto
          -211 290 rlineto
          -14 hlineto
          -197 -290 26 -28 146 173 -15 -317 rlineto
          94 hlineto
          -14 317 157 -173 rlineto
          endchar
        </CharString>
        <CharString name="asciicircum">
          -56 50 252 rmoveto
          69 hlineto
          137 280 135 -280 rlineto
          69 hlineto
          -176 358 rlineto
          -57 hlineto
          endchar
        </CharString>
        <CharString name="asciitilde">
          -56 162 283 rmoveto
          54 68 -53 53 hhcurveto
          43 39 31 2 callsubr
          -66 -33 hvcurveto
          30 -20 rlineto
          40 26 23 15 30 hhcurveto
          endchar
        </CharString>
        <CharString name="asterisk">
          -227 108 431 rmoveto
          59 110 rlineto
          4 hlineto
          59 -110 61 46 -87 90 2 5 123 19 -23 76 -112 -57 -5 3 18 125 rlineto
          -77 hlineto
          19 -125 -6 -1 -112 55 -23 -76 122 -19 2 -5 -88 -90 rlineto
          endchar
        </CharString>
        <CharString name="at">
          159 110 238 rmoveto
          153 69 125 195 170 72 -107 -123 -110 -22 -80 -75 -13 -14 11 12 vhcurveto
          223 vlineto
          60 -42 20 -69 -49 -50 -15 -21 -39 vhcurveto
          12 -28 rlineto
          10 29 39 11 44 hhcurveto
          46 14 -21 -37 hvcurveto
          -58 vlineto
          -110 -25 rlineto
          -74 -17 -14 -44 -35 vvcurveto
          -45 28 -45 60 34 40 18 27 37 vhcurveto
          -28 6 36 -13 29 hhcurveto
          122 69 96 120 136 -63 150 -264 -239 -90 -158 -156 -172 87 -155 217 96 74 20 38 80 hvcurveto
          -11 31 rlineto
          -28 -81 -62 -16 -78 hhcurveto
          -146 -100 77 199 hvcurveto
          244 -25 rmoveto
          73 16 rlineto
          -105 vlineto
          -11 -18 -31 -12 -26 hhcurveto
          -39 -15 13 38 31 11 20 45 10 hvcurveto
          endchar
        </CharString>
        <CharString name="atilde">
          -56 381 675 -102 callsubr
          -150 -229 rmoveto
          -107 callgsubr
          endchar
        </CharString>
        <CharString name="b">
          -10 167 474 rmoveto
          253 -25 vlineto
          -147 -38 rlineto
          -23 vlineto
          88 -10 rlineto
          -638 vlineto
          -16 45 93 -12 53 hhcurveto
          193 47 132 127 174 -89 77 -148 -34 -45 -12 -14 -31 hvcurveto
          -422 vmoveto
          377 vlineto
          13 30 30 10 43 hhcurveto
          121 31 -74 -131 -140 -34 -73 -122 -43 -37 9 9 -19 hvcurveto
          endchar
        </CharString>
        <CharString name="backslash">
          -223 64 696 rmoveto
          -56 hlineto
          270 -834 rlineto
          58 hlineto
          endchar
        </CharString>
        <CharString name="bar">
          -206 216 696 rmoveto
          -73 -834 73 hlineto
          endchar
        </CharString>
        <CharString name="braceleft">
          -287 102 674 rmoveto
          22 -372 -71 -35 rlineto
          -15 vlineto
          71 -35 -22 -374 157 -35 11 26 -91 37 21 357 -101 31 101 32 -21 356 91 37 -11 27 rlineto
          endchar
        </CharString>
        <CharString name="braceright">
          -287 19 -192 rmoveto
          155 35 -21 374 71 35 rlineto
          15 vlineto
          -71 35 21 372 -155 37 -11 -27 91 -37 -21 -356 101 -32 -101 -31 21 -357 -91 -37 rlineto
          endchar
        </CharString>
        <CharString name="bracketleft">
          -287 257 -166 rmoveto
          34 vlineto
          -117 8 rlineto
          780 vlineto
          117 7 rlineto
          33 -189 -862 vlineto
          endchar
        </CharString>
        <CharString name="bracketright">
          -287 21 696 rmoveto
          -33 vlineto
          117 -7 rlineto
          -780 vlineto
          -117 -8 rlineto
          -34 189 862 vlineto
          endchar
        </CharString>
        <CharString name="breve">
          -310 128 578 -98 callsubr
          endchar
        </CharString>
        <CharString name="breve.case">
          -310 128 -75 callgsubr
          endchar
        </CharString>
        <CharString name="brokenbar">
          -206 216 696 rmoveto
          -73 -323 73 hlineto
          -189 vmoveto
          -73 -322 73 hlineto
          endchar
        </CharString>
        <CharString name="bullet">
          -99 378 347 rmoveto
          81 -66 64 -79 -81 -64 -64 -81 -79 64 -66 81 79 66 66 79 vhcurveto
          endchar
        </CharString>
        <CharString name="c">
          -125 257 -10 rmoveto
          -86 callsubr
          -139 61 -114 155 hvcurveto
          endchar
        </CharString>
        <CharString name="cacute">
          -125 159 558 -97 callgsubr
          112 -587 rmoveto
          -86 callsubr
          -139 61 -114 155 hvcurveto
          endchar
        </CharString>
        <CharString name="cacute.loclPLK">
          -125 251 -43 callsubr
          25 -565 rmoveto
          -86 callsubr
          -139 61 -114 155 hvcurveto
          endchar
        </CharString>
        <CharString name="caron">
          -310 20 -74 callsubr
          endchar
        </CharString>
        <CharString name="caron.case">
          -310 98 -82 callsubr
          endchar
        </CharString>
        <CharString name="ccaron">
          -125 146 -74 callsubr
          1 -635 rmoveto
          -86 callsubr
          -139 61 -114 155 hvcurveto
          endchar
        </CharString>
        <CharString name="ccedilla">
          -125 215 -219 rmoveto
          -30 callsubr
          12 36 rlineto
          -86 callsubr
          -130 53 -107 133 -14 hvcurveto
          -20 -59 -73 callgsubr
          endchar
        </CharString>
        <CharString name="ccircumflex">
          -125 367 552 -83 callgsubr
          -3 -652 rmoveto
          -86 callsubr
          -139 61 -114 155 hvcurveto
          endchar
        </CharString>
        <CharString name="cdotaccent">
          -125 320 -45 callgsubr
          -63 -647 rmoveto
          -86 callsubr
          -139 61 -114 155 hvcurveto
          endchar
        </CharString>
        <CharString name="cedilla">
          -310 114 -46 rmoveto
          17 53 rlineto
          -30 hlineto
          -25 -74 -73 callgsubr
          -30 callsubr
          endchar
        </CharString>
        <CharString name="cent">
          -63 253 32 rmoveto
          -122 48 120 vlineto
          55 1 58 19 46 27 -7 32 rcurveline
          -15 -37 -59 -11 -60 hhcurveto
          -120 -29 96 130 132 42 82 100 31 38 -7 -8 25 hvcurveto
          24 -95 rlineto
          40 hlineto
          10 127 -37 19 -58 12 -46 2 rlinecurve
          120 -48 -120 vlineto
          -120 -9 -89 -78 -182 vvcurveto
          -157 64 -98 129 -17 vhcurveto
          endchar
        </CharString>
        <CharString name="circumflex">
          -310 234 552 -83 callgsubr
          endchar
        </CharString>
        <CharString name="circumflex.case">
          -310 240 651 -92 callsubr
          endchar
        </CharString>
        <CharString name="colon">
          -379 152 400 rmoveto
          -27 callsubr
          -351 vmoveto
          -27 callsubr
          endchar
        </CharString>
        <CharString name="comma">
          -401 63 -120 rmoveto
          84 211 -16 17 -75 -18 -16 -204 rlineto
          endchar
        </CharString>
        <CharString name="commaaccentInverted">
          -362 112 740 rmoveto
          -64 -179 12 -14 72 15 13 178 rlineto
          endchar
        </CharString>
        <CharString name="copyright">
          -71 4 452 rmoveto
          -133 109 -110 134 -6 callsubr
          vhcurveto
          33 hmoveto
          119 92 92 118 119 92 -92 -119 -119 -92 -92 -119 -118 -92 92 119 vhcurveto
          305 -137 rmoveto
          -4 56 rlineto
          -24 hlineto
          -13 -41 rlineto
          -4 -18 -12 -2 -15 hhcurveto
          -75 -11 66 65 78 16 52 72 13 14 -2 -4 16 hvcurveto
          13 -46 rlineto
          24 hlineto
          4 66 rlineto
          9 -31 -29 6 -31 hhcurveto
          -102 -39 -67 -92 -102 35 -57 106 37 25 5 14 29 hvcurveto
          endchar
        </CharString>
        <CharString name="currency">
          -18 57 79 rmoveto
          47 -50 55 54 rlineto
          -23 33 40 -13 44 hhcurveto
          43 41 12 24 33 hvcurveto
          54 -53 47 50 -53 51 rlineto
          25 33 13 42 43 vvcurveto
          43 -15 40 -23 34 vhcurveto
          53 53 -48 48 -53 -53 rlineto
          24 -33 -41 14 -43 hhcurveto
          -44 -40 -14 -24 -33 hvcurveto
          -52 54 -50 -49 53 -53 rlineto
          -23 -34 -14 -40 -43 vvcurveto
          -43 14 -42 23 -33 vhcurveto
          27 117 rmoveto
          78 62 63 77 77 64 -63 -78 -77 -64 -62 -77 -77 -62 62 77 vhcurveto
          endchar
        </CharString>
        <CharString name="d">
          8 389 46 rmoveto
          -77 callsubr
          20 callsubr
          vhcurveto
          -131 2 -32 callgsubr
        </CharString>
        <CharString name="dagger">
          -131 263 hmoveto
          -22 433 -9 callsubr
          -433 rlineto
          endchar
        </CharString>
        <CharString name="daggerdbl">
          -131 173 hmoveto
          86 hlineto
          -18 128 128 -19 rlineto
          88 vlineto
          -128 -19 25 128 -25 127 -9 callsubr
          -127 24 -128 -127 19 rlineto
          -88 vlineto
          126 19 rlineto
          endchar
        </CharString>
        <CharString name="dcaron">
          31 219 -10 rmoveto
          20 callsubr
          hvcurveto
          -77 callsubr
          vhcurveto
          338 523 rmoveto
          23 hlineto
          31 195 -55 18 rlineto
          -28 hlineto
          -270 -678 -32 callgsubr
        </CharString>
        <CharString name="dcroat">
          11 469 58 rmoveto
          526 67 46 -67 97 -27 -10 callsubr
          -15 rlineto
          -22 vlineto
          90 -21 rlineto
          -39 -143 -46 143 -110 vlineto
          2 -63 24 -54 -145 -83 -98 -159 -133 59 -120 119 20 callsubr
          vhcurveto
          -32 5 32 -18 26 hhcurveto
          28 39 4 12 39 -12 callgsubr
          -172 43 rmoveto
          -14 -25 -50 -21 -53 hhcurveto
          -89 -38 81 117 127 47 80 96 36 46 -11 -15 30 hvcurveto
          endchar
        </CharString>
        <CharString name="degree">
          -124 378 557 rmoveto
          86 -71 71 -87 -87 -70 -71 -86 -88 70 -69 87 87 71 69 88 vhcurveto
          -158 123 rmoveto
          69 39 -56 -67 -68 -39 -55 -69 -68 -40 55 68 67 40 56 68 hvcurveto
          endchar
        </CharString>
        <CharString name="dieresis">
          -310 87 635 -100 callgsubr
          endchar
        </CharString>
        <CharString name="dieresis.case">
          -310 87 722 -100 callgsubr
          endchar
        </CharString>
        <CharString name="divide">
          -56 254 382 rmoveto
          32 28 26 32 33 -28 27 -32 -32 -28 -27 -33 -32 28 -26 32 hvcurveto
          -191 -100 26 callsubr
          191 -219 rmoveto
          32 28 24 33 34 -28 26 -32 -32 -28 -26 -34 -33 28 -24 32 hvcurveto
          endchar
        </CharString>
        <CharString name="dollar">
          -63 236 -116 rmoveto
          43 119 hlineto
          115 14 59 60 92 vvcurveto
          82 -35 44 -69 26 vhcurveto
          -108 41 rlineto
          -61 23 -32 26 57 vvcurveto
          62 49 34 80 24 45 -3 -5 18 vhcurveto
          23 -93 rlineto
          35 hlineto
          10 124 -44 13 -47 10 -47 2 rlinecurve
          101 -43 -101 vlineto
          -115 -5 -64 -60 -98 vvcurveto
          -90 41 -37 61 -22 vhcurveto
          112 -41 rlineto
          61 -22 27 -39 -51 vvcurveto
          -57 -51 -41 -84 -45 -41 8 6 -23 vhcurveto
          -19 83 rlineto
          -37 hlineto
          -13 -114 rlineto
          -19 49 66 -11 60 hhcurveto
          endchar
        </CharString>
        <CharString name="dotaccent">
          -310 187 -45 callgsubr
          endchar
        </CharString>
        <CharString name="dotaccent.case">
          -310 187 -46 callsubr
          endchar
        </CharString>
        <CharString name="dotbelowcomb">
          -565 -68 -101 -100 callsubr
          endchar
        </CharString>
        <CharString name="dotlessi">
          -251 291 32 rmoveto
          -87 callgsubr
          -32 261 vlineto
          endchar
        </CharString>
        <CharString name="e">
          -94 263 -11 -102 callgsubr
        </CharString>
        <CharString name="eacute">
          -94 170 558 -97 callgsubr
          109 -588 -102 callgsubr
        </CharString>
        <CharString name="ebreve">
          -94 237 578 -98 callsubr
          26 -589 -102 callgsubr
        </CharString>
        <CharString name="ecaron">
          -94 222 558 rmoveto
          60 hlineto
          98 139 -21 18 -107 -90 -108 90 -22 -18 rlineto
          141 -708 -102 callgsubr
        </CharString>
        <CharString name="ecircumflex">
          -94 144 552 6 callgsubr
          140 -581 -102 callgsubr
        </CharString>
        <CharString name="edieresis">
          -94 154 580 -47 callsubr
          -85 -591 -102 callgsubr
        </CharString>
        <CharString name="edotaccent">
          -94 252 580 -50 callgsubr
          11 -591 -102 callgsubr
        </CharString>
        <CharString name="egrave">
          -94 330 558 -75 callsubr
          149 -672 -102 callgsubr
        </CharString>
        <CharString name="eight">
          -61 callgsubr
        </CharString>
        <CharString name="eight.dnom">
          47 97 -90 callgsubr
        </CharString>
        <CharString name="eight.numr">
          47 269 rmoveto
          -52 30 -54 109 102 53 53 29 callgsubr
          43 35 vvcurveto
          51 -3 callsubr
          -56 29 -29 46 -27 -50 callsubr
          -37 -36 -21 -24 -42 -23 vhcurveto
          -46 24 12 callgsubr
          -47 vvcurveto
          -46 -36 -24 -46 -42 -31 18 57 43 25 32 30 19 vhcurveto
          endchar
        </CharString>
        <CharString name="eight.osf">
          -61 callgsubr
        </CharString>
        <CharString name="ellipsis">
          -9 37 47 rmoveto
          -31 24 -25 30 31 26 25 31 31 -26 24 -31 -30 -24 -24 -31 vhcurveto
          185 hmoveto
          -31 25 -25 30 31 25 25 31 31 -25 24 -31 -30 -25 -24 -31 vhcurveto
          186 hmoveto
          -31 23 -25 31 30 27 25 31 31 -27 24 -30 -31 -23 -24 -31 vhcurveto
          endchar
        </CharString>
        <CharString name="emacron">
          -94 141 609 rmoveto
          217 52 -217 hlineto
          122 -672 -102 callgsubr
        </CharString>
        <CharString name="emdash">
          265 829 212 rmoveto
          49 -829 -49 vlineto
          endchar
        </CharString>
        <CharString name="endash">
          151 716 212 rmoveto
          49 -716 -49 vlineto
          endchar
        </CharString>
        <CharString name="eng">
          29 382 500 rmoveto
          -66 -74 -23 -17 -39 hvcurveto
          -69 callgsubr
          -28 254 28 vlineto
          -82 25 -25 callsubr
          36 51 6 42 hhcurveto
          79 21 -13 -53 hvcurveto
          -394 vlineto
          -39 -16 -54 -53 vhcurveto
          -46 hlineto
          -5 -31 rlineto
          -17 33 32 -6 16 hhcurveto
          74 48 54 170 hvcurveto
          334 vlineto
          82 -62 27 -71 vhcurveto
          endchar
        </CharString>
        <CharString name="eogonek">
          -94 340 -236 rmoveto
          64 29 50 0 hvcurveto
          -16 -24 callgsubr
          71 46 58 74 37 hvcurveto
          -6 31 rlineto
          -14 -50 -57 -8 -43 hhcurveto
          -93 -54 71 117 hvcurveto
          32 308 vlineto
          1 19 1 15 16 vvcurveto
          129 -60 59 -128 -139 -75 -90 -167 -167 76 -87 149 26 22 2 4 21 vhcurveto
          -65 -57 -21 -52 -37 vvcurveto
          -43 28 -42 66 vhcurveto
          -208 533 rmoveto
          111 5 35 43 86 hhcurveto
          64 28 -39 -82 hvcurveto
          -23 vlineto
          endchar
        </CharString>
        <CharString name="equal">
          -56 63 363 26 callsubr
          -217 vmoveto
          11 callsubr
        </CharString>
        <CharString name="estimated">
          121 148 289 rmoveto
          511 14 hlineto
          176 -140 140 -176 -174 -141 -140 -176 -174 141 -141 174 103 108 53 78 49 vhcurveto
          -51 hlineto
          -65 -50 -76 -34 -82 hhcurveto
          -75 -69 30 58 -50 hvcurveto
          -3 4 -4 7 8 vvcurveto
          159 vlineto
          2 3 1 2 vhcurveto
          396 193 rmoveto
          -159 vlineto
          -2 -1 -2 -2 vhcurveto
          -393 hlineto
          -2 -3 2 2 hvcurveto
          156 vlineto
          8 4 7 4 6 vhcurveto
          57 50 61 29 82 hhcurveto
          89 54 -28 -56 50 hvcurveto
          4 -5 3 -7 -8 vvcurveto
          endchar
        </CharString>
        <CharString name="eth">
          -18 273 -10 rmoveto
          168 65 113 149 86 -25 158 -108 131 hvcurveto
          130 75 -23 38 -137 -79 -36 36 -43 33 -51 28 rlinecurve
          -21 -28 34 -30 34 -33 31 -36 rlinecurve
          -134 -77 22 -38 139 80 31 -42 26 -47 16 -53 rlinecurve
          30 -29 -43 16 -46 hhcurveto
          -169 -63 -116 -141 -140 66 -113 166 hvcurveto
          3 48 rmoveto
          -116 -26 103 106 104 23 102 113 120 24 -100 -106 -109 -21 -100 -117 hvcurveto
          endchar
        </CharString>
        <CharString name="exclam">
          -362 124 187 rmoveto
          32 424 rlineto
          -104 hlineto
          31 -424 rlineto
          -36 -140 rmoveto
          -31 23 -25 31 31 26 25 31 31 -26 24 -31 -31 -23 -24 -31 vhcurveto
          endchar
        </CharString>
        <CharString name="exclamdown">
          -362 47 446 rmoveto
          -33 23 -24 31 31 26 24 33 30 -26 24 -31 -31 -23 -24 -30 vhcurveto
          109 -566 rmoveto
          -32 424 rlineto
          -41 hlineto
          -31 -424 rlineto
          endchar
        </CharString>
        <CharString name="f">
          -208 31 hmoveto
          4 callsubr
          rlineto
          388 vlineto
          151 -9 rlineto
          59 -150 39 vlineto
          -66 callgsubr
          endchar
        </CharString>
        <CharString name="f_f">
          149 31 hmoveto
          4 callsubr
          rlineto
          388 vlineto
          151 -9 rlineto
          59 -150 39 vlineto
          -66 callgsubr
          357 -28 rmoveto
          4 callsubr
          rlineto
          388 vlineto
          151 -9 rlineto
          59 -150 39 vlineto
          -66 callgsubr
          endchar
        </CharString>
        <CharString name="fi">
          85 28 hmoveto
          4 callsubr
          rlineto
          388 251 -388 vlineto
          -88 -21 rlineto
          -32 261 32 vlineto
          -89 21 rlineto
          438 -334 39 vlineto
          90 19 49 68 14 22 -3 -8 17 vhcurveto
          13 -64 rlineto
          36 hlineto
          13 114 rlineto
          11 -20 -45 8 -32 hhcurveto
          -109 -81 -88 -149 hvcurveto
          -79 -20 rlineto
          -29 79 -388 vlineto
          -89 -25 rlineto
          466 552 rmoveto
          -64 callsubr
          33 -29 27 -31 -33 -27 -27 -33 -33 27 -24 33 hvcurveto
          endchar
        </CharString>
        <CharString name="five">
          -63 414 611 rmoveto
          -306 hlineto
          -24 -264 18 -19 rlineto
          167 88 -34 -113 -84 -67 -51 -94 -38 -42 5 19 -54 hvcurveto
          -15 -46 rlineto
          -18 46 57 -15 76 hhcurveto
          144 77 75 115 91 -34 114 -273 hvcurveto
          13 158 rlineto
          261 hlineto
          endchar
        </CharString>
        <CharString name="five.dnom">
          314 441 8 callsubr
          -34 -63 -24 -30 4 16 -43 hvcurveto
          -10 -39 rlineto
          -15 35 47 -10 47 hhcurveto
          105 56 55 80 59 -24 77 -191 3 30 callgsubr
        </CharString>
        <CharString name="five.numr">
          314 -33 callgsubr
          endchar
        </CharString>
        <CharString name="five.osf">
          -63 176 -100 rmoveto
          182 79 92 112 90 -52 104 -245 hvcurveto
          13 158 rlineto
          261 67 -306 hlineto
          -24 -264 18 -19 rlineto
          133 112 -24 -116 -97 -77 -53 -126 -17 -16 1 8 -50 hvcurveto
          -1 -46 rlineto
          -8 35 38 -5 43 hhcurveto
          endchar
        </CharString>
        <CharString name="fiveeighths">
          421 421 hmoveto
          -55 callgsubr
          -48 -33 callgsubr
          330 -460 -90 callgsubr
        </CharString>
        <CharString name="fl">
          74 28 hmoveto
          288 32 hlineto
          -115 21 rlineto
          388 vlineto
          151 -9 rlineto
          59 -150 39 vlineto
          90 38 56 83 71 35 -25 -17 20 vhcurveto
          -581 21 callgsubr
          -33 -9 callgsubr
          vlineto
          -89 20 rlineto
          674 -27 vlineto
          -17 -21 rlineto
          5 -14 -44 22 -79 hhcurveto
          -130 -105 -94 -149 hvcurveto
          -79 -20 rlineto
          -29 79 -388 vlineto
          -89 -25 rlineto
          endchar
        </CharString>
        <CharString name="florin">
          -147 391 567 rmoveto
          17 -65 rlineto
          29 hlineto
          10 92 rlineto
          13 -34 -39 9 -38 hhcurveto
          -97 -57 -80 -162 -16 hvcurveto
          -89 hlineto
          -6 -38 rlineto
          90 hlineto
          -42 -344 rlineto
          -79 -9 -22 -35 -48 hhcurveto
          -26 -37 1 0 hvcurveto
          -5 -23 rlineto
          -15 27 35 -10 22 hhcurveto
          60 61 39 93 11 hvcurveto
          45 373 rlineto
          135 hlineto
          4 38 rlineto
          -133 hlineto
          132 10 37 67 61 hhcurveto
          14 20 -3 -3 10 hvcurveto
          endchar
        </CharString>
        <CharString name="four">
          -63 299 hmoveto
          78 140 -16 callgsubr
        </CharString>
        <CharString name="four.dnom">
          233 hmoveto
          68 96 60 46 -60 287 hlineto
          -54 5 -228 -305 1 callsubr
        </CharString>
        <CharString name="four.numr">
          233 171 rmoveto
          68 96 60 46 -60 287 hlineto
          -54 6 -228 -306 1 callsubr
        </CharString>
        <CharString name="four.osf">
          -63 299 -90 rmoveto
          78 147 -16 callgsubr
        </CharString>
        <CharString name="fraction">
          -257 81 hmoveto
          -55 callgsubr
          endchar
        </CharString>
        <CharString name="g">
          -55 206 -177 -103 callgsubr
        </CharString>
        <CharString name="g_tilde.loclGUA">
          -37 325 582 -63 callsubr
          -110 -759 -103 callgsubr
        </CharString>
        <CharString name="gbreve">
          -37 257 578 -98 callsubr
          -42 -755 -103 callgsubr
        </CharString>
        <CharString name="gcaron">
          -55 148 -74 callsubr
          -50 -802 -103 callgsubr
        </CharString>
        <CharString name="gcircumflex">
          -55 362 552 -83 callgsubr
          -49 -819 -103 callgsubr
        </CharString>
        <CharString name="gcommaaccent">
          -37 216 547 rmoveto
          72 15 13 178 rlineto
          -33 hlineto
          -64 -179 rlineto
          11 -738 -103 callgsubr
        </CharString>
        <CharString name="gdotaccent">
          -55 315 -45 callgsubr
          -109 -814 -103 callgsubr
        </CharString>
        <CharString name="germandbls">
          34 420 -10 rmoveto
          101 60 49 80 hvcurveto
          142 -206 59 64 73 111 16 88 vvcurveto
          69 -78 70 -104 -95 -92 -39 -171 vhcurveto
          -79 -20 rlineto
          -29 79 -388 10 callgsubr
          250 36 vlineto
          -77 17 rlineto
          466 vlineto
          78 12 54 86 74 26 -48 -51 vhcurveto
          -92 -103 -25 -69 -113 206 -35 -114 vvcurveto
          -38 -22 -30 -52 -27 -27 7 5 -13 vhcurveto
          -21 82 rlineto
          -32 hlineto
          -12 -114 rlineto
          -14 35 39 -12 50 hhcurveto
          endchar
        </CharString>
        <CharString name="grave">
          -310 228 558 -75 callsubr
          endchar
        </CharString>
        <CharString name="grave.case">
          -310 228 650 -75 callsubr
          endchar
        </CharString>
        <CharString name="gravecomb">
          -565 -27 650 -75 callsubr
          endchar
        </CharString>
        <CharString name="greater">
          -5 callgsubr
          endchar
        </CharString>
        <CharString name="greaterequal">
          -5 callgsubr
          -6 -139 rmoveto
          11 callsubr
        </CharString>
        <CharString name="guillemotleft">
          -185 29 5 callsubr
          158 -355 rmoveto
          35 22 -82 155 82 155 -35 23 -135 -178 rlineto
          endchar
        </CharString>
        <CharString name="guillemotright">
          -185 193 248 rmoveto
          -136 178 -33 -23 81 -155 -81 -155 33 -22 rlineto
          159 355 25 callgsubr
          135 177 rlineto
          endchar
        </CharString>
        <CharString name="guilsinglleft">
          -323 28 5 callsubr
          endchar
        </CharString>
        <CharString name="guilsinglright">
          -323 80 426 25 callgsubr
          134 177 rlineto
          endchar
        </CharString>
        <CharString name="h">
          52 596 hmoveto
          -68 callsubr
          endchar
        </CharString>
        <CharString name="hbar">
          52 507 53 rmoveto
          338 vlineto
          82 -63 27 -71 -65 -72 -23 -17 -40 vhcurveto
          124 120 46 -120 97 -25 vlineto
          -148 -15 rlineto
          -22 vlineto
          89 -21 rlineto
          -39 -89 -46 89 -531 vlineto
          -90 -21 rlineto
          -32 257 32 vlineto
          -83 21 -25 callsubr
          34 50 6 43 hhcurveto
          79 21 -13 -53 hvcurveto
          -321 vlineto
          -83 -21 rlineto
          -32 256 32 vlineto
          endchar
        </CharString>
        <CharString name="hcircumflex">
          52 267 741 -92 callsubr
          445 -823 rmoveto
          -68 callsubr
          endchar
        </CharString>
        <CharString name="hookabovecomb">
          -565 -43 632 rmoveto
          33 -33 16 -52 -18 -25 -2 -4 -25 vhcurveto
          6 -53 -19 callsubr
          8 32 rlineto
          8 7 1 5 hhcurveto
          22 13 -10 -17 -18 -14 -14 -42 hvcurveto
          4 -40 rlineto
          38 hlineto
          6 25 rlineto
          49 8 13 22 21 vvcurveto
          endchar
        </CharString>
        <CharString name="hungarumlaut">
          -310 -17 -37 callgsubr
          endchar
        </CharString>
        <CharString name="hungarumlaut.case">
          -310 -6 -37 callsubr
          endchar
        </CharString>
        <CharString name="hyphen">
          17 callgsubr
        </CharString>
        <CharString name="i">
          -254 160 580 -50 callgsubr
          -130 -580 rmoveto
          261 32 hlineto
          -87 callgsubr
          endchar
        </CharString>
        <CharString name="i.loclTRK">
          -251 217 -45 callgsubr
          74 -605 rmoveto
          -87 callgsubr
          -32 261 vlineto
          endchar
        </CharString>
        <CharString name="iacute">
          -251 54 558 -97 callgsubr
          253 -545 rmoveto
          -87 callgsubr
          -32 261 vlineto
          endchar
        </CharString>
        <CharString name="iacute_j.loclNLD">
          47 83 558 -97 callgsubr
          322 -19 -97 callgsubr
          -82 -545 rmoveto
          -87 callgsubr
          -32 261 vlineto
          50 463 -82 callgsubr
        </CharString>
        <CharString name="ibreve">
          -251 158 578 -98 callsubr
          133 -546 rmoveto
          -87 callgsubr
          -32 261 vlineto
          endchar
        </CharString>
        <CharString name="icircumflex">
          -251 244 552 -83 callgsubr
          154 -610 rmoveto
          -87 callgsubr
          -32 261 vlineto
          endchar
        </CharString>
        <CharString name="idieresis">
          -251 103 635 -100 callgsubr
          -7 -603 rmoveto
          -87 callgsubr
          -32 261 vlineto
          endchar
        </CharString>
        <CharString name="igrave">
          -251 211 558 -75 callsubr
          296 -629 rmoveto
          -87 callgsubr
          -32 261 vlineto
          endchar
        </CharString>
        <CharString name="ij">
          44 160 580 -50 callgsubr
          370 57 -51 callsubr
          -500 -637 rmoveto
          261 32 hlineto
          -87 callgsubr
          308 431 -82 callgsubr
        </CharString>
        <CharString name="imacron">
          -251 20 661 -43 callgsubr
          54 -629 rmoveto
          -87 callgsubr
          -32 261 vlineto
          endchar
        </CharString>
        <CharString name="infinity">
          143 353 351 rmoveto
          40 -29 -53 56 -79 hhcurveto
          -119 -26 -84 -55 -56 26 -83 119 79 53 57 40 29 hvcurveto
          -40 30 53 -57 78 hhcurveto
          120 27 83 56 55 -27 84 -120 -78 -53 -56 -40 -30 hvcurveto
          -247 -43 rmoveto
          33 11 52 74 63 47 -56 -29 23 vhcurveto
          -28 -23 -47 -57 -63 hhcurveto
          -74 -11 51 34 hvcurveto
          496 hmoveto
          -34 -11 -51 -74 -65 -46 57 28 -23 vhcurveto
          29 24 45 56 65 hhcurveto
          74 11 -52 -33 hvcurveto
          endchar
        </CharString>
        <CharString name="integral">
          -177 122 -134 rmoveto
          79 45 44 89 hvcurveto
          607 vlineto
          44 22 15 22 12 11 -4 -7 8 vhcurveto
          12 -63 rlineto
          31 hlineto
          13 83 rlineto
          18 -20 -40 9 -25 hhcurveto
          -79 -44 -44 -89 hvcurveto
          -607 vlineto
          -45 -23 -15 -22 -12 -11 4 7 -8 vhcurveto
          -12 62 rlineto
          -31 hlineto
          -12 -83 rlineto
          -17 21 39 -8 24 hhcurveto
          endchar
        </CharString>
        <CharString name="iogonek">
          -251 160 580 -50 callgsubr
          37 -816 rmoveto
          64 30 50 0 hvcurveto
          -17 -24 callgsubr
          51 28 58 93 24 hvcurveto
          32 vlineto
          -87 callgsubr
          -32 183 17 callsubr
        </CharString>
        <CharString name="itilde">
          -251 282 675 -102 callsubr
          9 -643 rmoveto
          -87 callgsubr
          -32 261 vlineto
          endchar
        </CharString>
        <CharString name="j">
          -267 219 -21 callsubr
          -192 -174 -82 callgsubr
        </CharString>
        <CharString name="jcircumflex">
          -267 256 552 -83 callgsubr
          -122 -179 -82 callgsubr
        </CharString>
        <CharString name="k">
          -14 258 hmoveto
          32 vlineto
          -61 21 rlineto
          674 -25 vlineto
          -150 -38 rlineto
          -23 vlineto
          91 -10 rlineto
          -603 vlineto
          -91 -21 rlineto
          -32 vlineto
          539 hmoveto
          31 vlineto
          -38 callsubr
          -32 vlineto
          endchar
        </CharString>
        <CharString name="kcommaaccent">
          6 22 hmoveto
          236 32 hlineto
          -61 21 rlineto
          674 -25 vlineto
          -150 -38 rlineto
          -23 vlineto
          91 -10 rlineto
          -603 vlineto
          -91 -21 rlineto
          315 -32 rmoveto
          224 31 hlineto
          -38 callsubr
          -90 -253 rmoveto
          33 hlineto
          63 -29 callsubr
        </CharString>
        <CharString name="kgreenlandic">
          -7 265 hmoveto
          32 vlineto
          -61 21 rlineto
          447 -25 vlineto
          -148 -38 rlineto
          -22 -36 callsubr
          -91 -21 rlineto
          -32 vlineto
          539 hmoveto
          31 vlineto
          -38 callsubr
          -32 vlineto
          endchar
        </CharString>
        <CharString name="l">
          -268 17 hmoveto
          -65 callgsubr
          endchar
        </CharString>
        <CharString name="lacute">
          -268 27 728 -97 callgsubr
          6 -747 rmoveto
          -65 callgsubr
          endchar
        </CharString>
        <CharString name="lcaron">
          -252 17 hmoveto
          -65 callgsubr
          257 480 3 callgsubr
          endchar
        </CharString>
        <CharString name="lcommaaccent">
          -268 17 hmoveto
          -65 callgsubr
          84 -254 rmoveto
          33 hlineto
          64 179 -12 14 -72 -15 rlineto
          endchar
        </CharString>
        <CharString name="ldot">
          -268 17 hmoveto
          -65 callgsubr
          335 401 -19 callgsubr
        </CharString>
        <CharString name="less">
          -4 callgsubr
          endchar
        </CharString>
        <CharString name="lessequal">
          -4 callgsubr
          5 -278 rmoveto
          11 callsubr
        </CharString>
        <CharString name="logicalnot">
          -56 397 137 rmoveto
          50 199 -385 -54 335 hlineto
          endchar
        </CharString>
        <CharString name="longs">
          -208 31 hmoveto
          4 callsubr
          1 477 rlineto
          -66 callgsubr
          endchar
        </CharString>
        <CharString name="lozenge">
          -56 226 -1 rmoveto
          57 hlineto
          169 305 -169 306 rlineto
          -57 hlineto
          -169 -306 rlineto
          197 -227 rmoveto
          -130 227 130 228 128 -228 rlineto
          endchar
        </CharString>
        <CharString name="lslash">
          -262 20 hmoveto
          -23 callgsubr
          289 vlineto
          108 61 -24 39 -84 -48 rlineto
          333 -27 -10 callsubr
          -27 callgsubr
          -310 vlineto
          -107 -61 22 -37 85 48 rlineto
          -243 21 callgsubr
          endchar
        </CharString>
        <CharString name="m">
          336 28 hmoveto
          246 28 hlineto
          -73 25 -25 callsubr
          29 44 6 34 hhcurveto
          82 21 -13 -53 hvcurveto
          -321 vlineto
          -74 -25 rlineto
          -28 232 28 vlineto
          -75 25 rlineto
          338 vlineto
          13 -1 12 -3 8 vhcurveto
          10 31 46 6 37 hhcurveto
          83 19 -16 -50 hvcurveto
          -321 vlineto
          -75 -25 rlineto
          -28 249 28 vlineto
          -91 25 rlineto
          338 vlineto
          72 -44 37 -82 -72 -75 -23 -17 -43 vhcurveto
          28 -22 -42 12 -40 hhcurveto
          -62 -69 -23 -17 -37 hvcurveto
          40 -27 -10 callsubr
          -55 callsubr
          -25 rlineto
          endchar
        </CharString>
        <CharString name="macron">
          -310 19 661 -43 callgsubr
          endchar
        </CharString>
        <CharString name="macron.case">
          -310 19 749 -43 callgsubr
          endchar
        </CharString>
        <CharString name="minus">
          -56 63 282 26 callsubr
          endchar
        </CharString>
        <CharString name="multiply">
          -56 123 141 rmoveto
          131 132 132 -131 36 38 -131 130 131 131 -38 37 -130 -130 -130 131 -38 -38 131 -131 -131 -130 rlineto
          endchar
        </CharString>
        <CharString name="n">
          59 203 460 -94 callsubr
          endchar
        </CharString>
        <CharString name="nacute">
          59 220 558 -97 callgsubr
          -4 -117 -94 callsubr
          endchar
        </CharString>
        <CharString name="nacute.loclPLK">
          59 303 -43 callsubr
          -81 -95 -94 callsubr
          endchar
        </CharString>
        <CharString name="napostrophe">
          35 114 513 3 callgsubr
          117 -266 -94 callsubr
          endchar
        </CharString>
        <CharString name="ncaron">
          59 204 -74 callsubr
          -112 -165 -94 callsubr
          endchar
        </CharString>
        <CharString name="ncommaaccent">
          59 28 hmoveto
          254 28 hlineto
          -82 25 -25 callsubr
          36 51 6 42 hhcurveto
          79 21 -13 -53 hvcurveto
          -321 vlineto
          -82 -25 rlineto
          -28 255 28 vlineto
          -90 25 rlineto
          338 vlineto
          82 -62 27 -71 -66 -74 -23 -17 -39 vhcurveto
          -69 callgsubr
          235 -249 rmoveto
          34 hlineto
          63 -29 callsubr
        </CharString>
        <CharString name="nine">
          -63 69 62 rmoveto
          -13 -49 rlineto
          -16 42 48 -9 62 hhcurveto
          116 140 59 287 140 -40 153 -168 -185 -30 -130 -76 -102 62 -85 110 46 55 15 34 62 hvcurveto
          -173 -3 -79 -67 -110 hhcurveto
          -35 -40 7 12 -40 hvcurveto
          309 285 rmoveto
          -34 -42 -50 -22 -45 hhcurveto
          -62 -51 41 104 81 48 57 76 98 28 -78 -149 hvcurveto
          endchar
        </CharString>
        <CharString name="nine.dnom">
          61 51 27 callgsubr
          -8 44 hhcurveto
          86 102 45 200 97 20 callgsubr
          -52 -73 46 -60 82 31 36 9 19 40 hvcurveto
          -110 -4 -52 -45 -72 hhcurveto
          -24 -30 5 10 callsubr
          27 68 25 callsubr
        </CharString>
        <CharString name="nine.numr">
          61 222 27 callgsubr
          -7 44 hhcurveto
          86 102 45 199 97 20 callgsubr
          -52 -73 46 -58 82 31 36 7 20 40 hvcurveto
          -111 -4 -52 -44 -72 hhcurveto
          -24 -30 4 10 callsubr
          28 68 54 32 39 50 63 18 -53 -102 hvcurveto
          endchar
        </CharString>
        <CharString name="nine.osf">
          -63 170 -100 rmoveto
          114 180 36 319 123 -30 156 -187 -171 -35 -130 -76 -102 62 -85 110 47 57 16 36 64 hvcurveto
          -175 1 -121 -68 -107 hhcurveto
          -18 -19 2 3 -23 hvcurveto
          -6 -46 rlineto
          -5 24 27 -4 31 hhcurveto
          71 298 rmoveto
          -62 -51 44 94 92 48 53 78 96 28 -80 -147 hvcurveto
          -34 -42 -50 -22 -45 hhcurveto
          endchar
        </CharString>
        <CharString name="notequal">
          -56 158 90 rmoveto
          64 110 rlineto
          225 52 -195 hlineto
          65 111 rlineto
          130 54 -100 hlineto
          50 84 -46 27 -64 -111 rlineto
          -224 -54 194 hlineto
          -66 -111 rlineto
          -128 -52 98 hlineto
          -48 -84 rlineto
          endchar
        </CharString>
        <CharString name="ntilde">
          59 455 675 -102 callsubr
          -255 -215 -94 callsubr
          endchar
        </CharString>
        <CharString name="numbersign">
          -9 392 222 rmoveto
          32 111 rlineto
          117 hlineto
          15 53 rlineto
          -117 hlineto
          49 177 rlineto
          -56 hlineto
          -50 -177 rlineto
          -139 hlineto
          49 177 rlineto
          -54 hlineto
          -50 -177 rlineto
          -128 hlineto
          -14 -53 rlineto
          127 hlineto
          -31 -111 rlineto
          -128 hlineto
          -14 -53 rlineto
          129 hlineto
          -49 -178 rlineto
          54 hlineto
          48 178 rlineto
          141 hlineto
          -49 -178 rlineto
          55 hlineto
          49 178 rlineto
          118 hlineto
          14 53 rlineto
          -313 hmoveto
          32 111 rlineto
          140 hlineto
          -31 -111 rlineto
          endchar
        </CharString>
        <CharString name="o">
          -18 274 500 rmoveto
          -101 callgsubr
        </CharString>
        <CharString name="oacute">
          -18 200 558 -97 callgsubr
          90 -77 rmoveto
          -101 callgsubr
        </CharString>
        <CharString name="oacute.loclPLK">
          -18 265 -43 callsubr
          28 -55 rmoveto
          -101 callgsubr
        </CharString>
        <CharString name="obreve">
          -18 275 578 -98 callsubr
          -1 -78 rmoveto
          -101 callgsubr
        </CharString>
        <CharString name="ocircumflex">
          -53 callsubr
          endchar
        </CharString>
        <CharString name="odieresis">
          -18 233 635 -100 callgsubr
          -154 -135 rmoveto
          -101 callgsubr
        </CharString>
        <CharString name="oe">
          287 274 -10 rmoveto
          92 60 34 54 36 hvcurveto
          -59 36 62 -29 87 hhcurveto
          69 48 16 28 49 hvcurveto
          -5 30 rlineto
          -13 -40 -64 -8 -41 hhcurveto
          -141 -13 138 66 hvcurveto
          15 310 vlineto
          2 24 0 15 7 vvcurveto
          132 -78 60 -107 -63 -66 -19 -71 -44 vhcurveto
          54 -36 -59 36 -94 hhcurveto
          -168 -65 -114 -143 -140 67 -113 166 hvcurveto
          2 48 rmoveto
          -117 -27 92 117 119 27 87 111 118 25 -87 -119 -117 -19 -92 -118 hvcurveto
          235 259 rmoveto
          89 3 32 65 95 hhcurveto
          58 31 -49 -72 hvcurveto
          -23 vlineto
          endchar
        </CharString>
        <CharString name="ogonek">
          -310 161 hmoveto
          -34 hlineto
          -67 -53 -27 -56 -42 -32 callsubr
          -34 -21 21 38 51 31 51 30 31 hvcurveto
          endchar
        </CharString>
        <CharString name="ograve">
          -18 364 558 -75 callsubr
          126 -161 rmoveto
          -101 callgsubr
        </CharString>
        <CharString name="ohorn">
          -18 557 536 -93 callgsubr
          endchar
        </CharString>
        <CharString name="ohungarumlaut">
          -18 149 -37 callgsubr
          -17 -55 rmoveto
          -101 callgsubr
        </CharString>
        <CharString name="omacron">
          -18 164 661 -43 callgsubr
          -107 -161 rmoveto
          -101 callgsubr
        </CharString>
        <CharString name="one">
          -63 460 33 rmoveto
          -144 27 rlineto
          554 vlineto
          -243 -36 rlineto
          -37 158 -481 26 callgsubr
        </CharString>
        <CharString name="one.dnom">
          -213 66 373 13 callsubr
        </CharString>
        <CharString name="one.numr">
          -213 47 546 rmoveto
          113 -374 31 callgsubr
        </CharString>
        <CharString name="one.osf">
          -63 460 33 rmoveto
          -144 27 rlineto
          479 vlineto
          -243 -36 rlineto
          -37 158 -406 26 callgsubr
        </CharString>
        <CharString name="oneeighth">
          318 331 hmoveto
          -55 callgsubr
          -225 546 rmoveto
          113 -374 -25 callgsubr
          494 -477 -90 callgsubr
        </CharString>
        <CharString name="onehalf">
          305 291 hmoveto
          -55 callgsubr
          -213 543 rmoveto
          113 -372 -25 callgsubr
          605 -179 rmoveto
          50 27 -31 -43 -52 -27 -40 -47 -47 hvcurveto
          -147 -143 10 -38 rlineto
          298 hlineto
          9 102 -34 2 -27 -55 rlineto
          -178 hlineto
          113 103 rlineto
          56 51 50 59 60 vvcurveto
          86 -65 31 -78 -52 -52 -17 -20 -34 vhcurveto
          16 -35 rlineto
          17 39 35 10 38 hhcurveto
          endchar
        </CharString>
        <CharString name="onequarter">
          305 301 hmoveto
          -55 callgsubr
          -223 544 rmoveto
          113 -372 -25 callgsubr
          660 -574 -18 callgsubr
        </CharString>
        <CharString name="ordfeminine">
          -62 callsubr
        </CharString>
        <CharString name="ordmasculine">
          -30 callgsubr
        </CharString>
        <CharString name="oslash">
          -18 130 -92 -61 callsubr
        </CharString>
        <CharString name="oslashacute">
          -18 200 558 -97 callgsubr
          -54 -669 -61 callsubr
        </CharString>
        <CharString name="otilde">
          -18 420 675 -23 callsubr
          -175 rmoveto
          -101 callgsubr
        </CharString>
        <CharString name="p">
          12 17 -167 rmoveto
          273 29 hlineto
          -101 26 rlineto
          546 vlineto
          11 34 35 6 26 hhcurveto
          145 14 -110 -94 -100 -21 19 callsubr
          27 29 23 callsubr
          -57 114 -202 -75 -110 -18 -19 -74 hvcurveto
          -23 -28 callsubr
          -543 vlineto
          -89 -26 rlineto
          endchar
        </CharString>
        <CharString name="paragraph">
          -52 261 237 rmoveto
          407 vlineto
          2 -9 -12 1 -11 hhcurveto
          -132 -74 -94 -113 -114 74 -93 132 11 12 1 3 9 hvcurveto
          217 -204 rmoveto
          -95 20 rlineto
          539 vlineto
          95 21 rlineto
          34 -178 -593 vlineto
          -114 -20 rlineto
          -34 292 vlineto
          endchar
        </CharString>
        <CharString name="parenleft">
          -287 139 264 rmoveto
          206 0 154 135 60 vhcurveto
          -11 27 rlineto
          -189 -54 -12 -105 -288 vvcurveto
          -286 12 -105 189 -54 vhcurveto
          11 27 rlineto
          -135 58 0 155 205 vvcurveto
          endchar
        </CharString>
        <CharString name="parenright">
          -287 139 264 rmoveto
          -205 0 -155 -136 -58 vhcurveto
          11 -27 rlineto
          188 54 14 105 286 vvcurveto
          288 -14 105 -188 54 vhcurveto
          -11 -27 rlineto
          136 -60 0 -154 -206 vvcurveto
          endchar
        </CharString>
        <CharString name="partialdiff">
          -51 57 667 rmoveto
          13 -24 rlineto
          24 48 30 9 45 hhcurveto
          148 32 -109 -139 11 hvcurveto
          2 -58 23 -57 -146 -82 -89 -135 -133 58 -106 138 109 134 66 281 276 -111 116 -140 -66 -60 -17 -45 -46 vhcurveto
          202 -626 rmoveto
          -101 -28 67 116 128 56 56 84 53 36 -15 -13 29 hvcurveto
          3 -42 1 -25 -35 vvcurveto
          -150 -45 -87 -88 vhcurveto
          endchar
        </CharString>
        <CharString name="percent">
          305 368 -54 callsubr
          -158 -157 rmoveto
          -22 callsubr
          endchar
        </CharString>
        <CharString name="period">
          -379 152 49 rmoveto
          -27 callsubr
          endchar
        </CharString>
        <CharString name="periodcentered">
          -335 172 252 -19 callgsubr
        </CharString>
        <CharString name="perthousand">
          707 370 -54 callsubr
          375 hmoveto
          169 -71 55 -89 -90 -72 -58 -166 -167 72 -59 90 89 71 57 169 vhcurveto
          -533 -157 rmoveto
          -22 callsubr
          375 hmoveto
          -22 callsubr
          endchar
        </CharString>
        <CharString name="pi">
          26 158 -4 rmoveto
          33 19 21 54 hvcurveto
          344 163 -246 vlineto
          -145 28 -27 90 17 32 5 17 33 vhcurveto
          -5 31 rlineto
          -46 hlineto
          -53 -17 38 55 hvcurveto
          272 35 vlineto
          62 9 44 71 hvcurveto
          16 -34 vlineto
          -40 -18 -15 -32 vhcurveto
          -361 hlineto
          -62 -44 -52 -63 hvcurveto
          30 -7 rlineto
          37 25 10 9 58 hhcurveto
          8 -357 hlineto
          -77 -18 rlineto
          -28 vlineto
          -13 38 30 -3 29 hhcurveto
          endchar
        </CharString>
        <CharString name="plus">
          -7 callsubr
          endchar
        </CharString>
        <CharString name="plusminus">
          -7 callsubr
          -165 -251 rmoveto
          11 callsubr
        </CharString>
        <CharString name="product">
          94 39 hmoveto
          -23 callgsubr
          505 235 -505 -1 callgsubr
          505 vlineto
          -44 callsubr
          -581 -33 vlineto
          90 -20 rlineto
          -505 21 callgsubr
          endchar
        </CharString>
        <CharString name="q">
          -5 470 -113 rmoveto
          607 -26 vlineto
          -26 -31 rlineto
          27 -50 -55 10 -46 hhcurveto
          -154 -70 -114 -143 -142 61 -111 117 82 37 21 35 50 hvcurveto
          -159 vlineto
          -89 -26 rlineto
          -28 259 28 vlineto
          -173 558 rmoveto
          -331 vlineto
          -24 -30 -47 -15 -50 hhcurveto
          -77 -48 54 155 112 43 83 91 38 42 -12 -22 38 hvcurveto
          endchar
        </CharString>
        <CharString name="question">
          208 627 rmoveto
          -51 -63 -17 -18 -35 hvcurveto
          10 -105 rlineto
          28 hlineto
          21 80 rlineto
          6 26 22 4 20 hhcurveto
          66 34 -28 -68 -93 -49 -51 -125 -67 hvcurveto
          10 -111 rlineto
          41 hlineto
          12 88 rlineto
          158 87 36 73 82 vvcurveto
          85 -58 53 -103 vhcurveto
          -66 -525 rmoveto
          -31 -25 -24 -31 -31 25 -25 31 31 24 25 31 31 -24 24 -31 hvcurveto
          endchar
        </CharString>
        <CharString name="questiondown">
          241 389 rmoveto
          32 24 24 33 30 -24 24 -32 -30 -25 -24 -30 -33 25 -24 30 hvcurveto
          -65 -525 rmoveto
          51 63 17 18 34 hvcurveto
          -11 105 rlineto
          -27 hlineto
          -20 -80 rlineto
          -5 -26 -22 -5 -20 hhcurveto
          -66 -35 28 68 93 50 51 125 67 hvcurveto
          -10 111 rlineto
          -41 hlineto
          -12 -86 rlineto
          -158 -88 -38 -72 -84 vvcurveto
          -85 60 -53 103 vhcurveto
          endchar
        </CharString>
        <CharString name="quotedbl">
          -268 37 697 rmoveto
          34 -230 rlineto
          23 hlineto
          35 230 rlineto
          40 hmoveto
          35 -230 rlineto
          22 hlineto
          34 230 rlineto
          endchar
        </CharString>
        <CharString name="quotedblbase">
          -223 69 -120 rmoveto
          83 211 -14 17 7 callgsubr
          172 -6 rmoveto
          83 211 -15 17 7 callgsubr
          endchar
        </CharString>
        <CharString name="quotedblleft">
          -255 12 callsubr
          128 5 rmoveto
          -83 -211 14 -17 76 18 15 205 rlineto
          endchar
        </CharString>
        <CharString name="quotedblright">
          -255 58 424 rmoveto
          83 212 -14 16 7 callgsubr
          172 -6 rmoveto
          83 212 -14 16 7 callgsubr
          endchar
        </CharString>
        <CharString name="quoteleft">
          -405 12 callsubr
          endchar
        </CharString>
        <CharString name="quoteright">
          -405 58 424 rmoveto
          83 212 -14 16 7 callgsubr
          endchar
        </CharString>
        <CharString name="quotesinglbase">
          -372 69 -120 rmoveto
          83 211 -14 17 7 callgsubr
          endchar
        </CharString>
        <CharString name="quotesingle">
          -397 38 697 rmoveto
          34 -230 rlineto
          24 hlineto
          34 230 rlineto
          endchar
        </CharString>
        <CharString name="r">
          -166 309 436 -83 callsubr
          endchar
        </CharString>
        <CharString name="racute">
          -166 147 558 -97 callgsubr
          178 -141 -83 callsubr
          endchar
        </CharString>
        <CharString name="radical">
          -55 510 678 rmoveto
          84 20 -1 29 rlineto
          -123 hlineto
          -198 -615 -112 379 rlineto
          -137 hlineto
          1 -29 60 -21 155 -454 41 9 rlineto
          endchar
        </CharString>
        <CharString name="rcaron">
          -166 107 -74 callsubr
          94 -189 -83 callsubr
          endchar
        </CharString>
        <CharString name="rcommaaccent">
          -166 28 hmoveto
          285 30 hlineto
          -113 23 rlineto
          364 vlineto
          11 32 37 8 40 hhcurveto
          21 -79 rlineto
          33 hlineto
          15 144 rlineto
          1 -9 -7 0 -10 hhcurveto
          -50 -59 -19 -29 -46 hvcurveto
          46 -35 vlineto
          -134 -34 callsubr
          89 -12 rlineto
          -374 vlineto
          -89 -26 rlineto
          95 -249 rmoveto
          34 hlineto
          63 179 -12 14 -71 -15 rlineto
          endchar
        </CharString>
        <CharString name="registered">
          -71 247 209 rmoveto
          -6 callsubr
          -133 109 -110 134 hvcurveto
          32 vmoveto
          -118 -93 92 119 119 93 92 118 119 93 -92 -119 -119 -93 -92 -119 hvcurveto
          -123 63 rmoveto
          117 17 hlineto
          -33 9 rlineto
          114 6 vlineto
          30 3 -3 -137 66 hvcurveto
          77 18 hlineto
          -31 8 -35 63 -20 35 -8 17 -16 5 rlinecurve
          61 13 11 45 28 vvcurveto
          34 -28 40 -75 vhcurveto
          -125 -19 hlineto
          34 -7 rlineto
          -254 vlineto
          -34 -9 rlineto
          84 142 rmoveto
          123 20 vlineto
          48 20 -23 -34 -37 -20 -29 -42 hvcurveto
          endchar
        </CharString>
        <CharString name="ring">
          -310 231 613 -46 callgsubr
          endchar
        </CharString>
        <CharString name="ring.case">
          -310 128 633 -74 callgsubr
          endchar
        </CharString>
        <CharString name="s">
          -145 -58 callgsubr
          endchar
        </CharString>
        <CharString name="sacute">
          -140 125 558 -97 callgsubr
          112 -128 -93 callsubr
          endchar
        </CharString>
        <CharString name="sacute.loclPLK">
          -145 201 -43 callsubr
          39 -106 -93 callsubr
          endchar
        </CharString>
        <CharString name="scaron">
          -137 194 541 rmoveto
          60 hlineto
          98 139 -21 18 -107 -90 -107 90 -23 -18 rlineto
          108 -690 rmoveto
          122 63 59 83 78 -31 34 -83 29 hvcurveto
          -74 26 rlineto
          -52 19 -20 16 44 vvcurveto
          45 36 26 64 21 32 -7 -8 17 vhcurveto
          21 -73 -19 callsubr
          16 107 rlineto
          20 -44 -46 12 -44 hhcurveto
          -116 -57 -53 -88 -67 31 -38 72 -27 hvcurveto
          62 -23 rlineto
          65 -23 25 -23 -45 vvcurveto
          -44 -40 -31 -65 -38 -28 6 6 -21 vhcurveto
          -21 82 rlineto
          -31 hlineto
          -14 -116 rlineto
          -17 44 60 -9 44 hhcurveto
          endchar
        </CharString>
        <CharString name="scedilla">
          -140 171 -219 rmoveto
          -30 callsubr
          12 37 rlineto
          109 6 56 57 88 vvcurveto
          63 -22 37 -89 31 vhcurveto
          -72 26 rlineto
          -52 19 -20 16 44 vvcurveto
          45 36 26 64 21 32 -7 -8 17 vhcurveto
          21 -73 -19 callsubr
          16 107 rlineto
          20 -44 -46 12 -44 hhcurveto
          -116 -57 -53 -88 -67 31 -38 72 -27 hvcurveto
          63 -22 rlineto
          65 -23 19 -22 -33 vvcurveto
          -62 -40 -27 -65 -38 -28 6 6 -21 vhcurveto
          -21 82 rlineto
          -31 hlineto
          -14 -116 41 -16 54 -9 42 -1 rlinecurve
          -19 -57 -73 callgsubr
          endchar
        </CharString>
        <CharString name="scircumflex">
          -145 317 552 -83 callgsubr
          11 -193 -93 callsubr
          endchar
        </CharString>
        <CharString name="scommaaccent">
          -140 -58 callgsubr
          -24 -670 16 callsubr
        </CharString>
        <CharString name="section">
          -237 249 569 rmoveto
          19 -76 rlineto
          31 hlineto
          17 106 rlineto
          0 -65 28 -78 -77 -73 -33 -80 -84 54 -14 241 -199 vhcurveto
          3 10 1 6 18 77 -233 102 83 vvcurveto
          61 45 4 40 28 34 -5 -4 13 vhcurveto
          -196 -439 rmoveto
          -27 hlineto
          -12 -118 rlineto
          2 74 -21 79 hhcurveto
          91 66 51 76 62 -55 19 -248 205 hvcurveto
          -4 -7 0 -13 -11 -83 238 -99 -78 vvcurveto
          -49 -43 -27 -56 -38 -32 9 4 -14 vhcurveto
          endchar
        </CharString>
        <CharString name="semicolon">
          -379 152 400 rmoveto
          -27 callsubr
          -98 -520 rmoveto
          84 211 -15 17 -76 -18 -16 -204 rlineto
          endchar
        </CharString>
        <CharString name="seven">
          -63 50 473 rmoveto
          33 hlineto
          21 78 rlineto
          286 hlineto
          -254 -551 90 -9 233 569 -15 51 rlineto
          -402 hlineto
          endchar
        </CharString>
        <CharString name="seven.dnom">
          47 329 -7 callgsubr
        </CharString>
        <CharString name="seven.numr">
          47 -8 callsubr
          endchar
        </CharString>
        <CharString name="seven.osf">
          -63 50 385 rmoveto
          33 hlineto
          21 78 rlineto
          286 hlineto
          -125 -184 -84 -183 -45 -184 90 -9 rcurveline
          38 190 67 189 128 190 -15 51 rcurveline
          -402 hlineto
          endchar
        </CharString>
        <CharString name="seveneighths">
          374 361 hmoveto
          -55 callgsubr
          -255 -8 callsubr
          556 -505 -90 callgsubr
        </CharString>
        <CharString name="six">
          -52 callgsubr
        </CharString>
        <CharString name="six.dnom">
          116 227 8 callgsubr
          6 -21 -22 3 -22 callgsubr
          -52 -54 6 callsubr
        </CharString>
        <CharString name="six.numr">
          191 162 rmoveto
          143 23 97 53 62 -33 60 -96 -45 -37 -13 -24 -30 hvcurveto
          115 8 77 57 69 hhcurveto
          10 17 -1 -4 21 hvcurveto
          5 37 29 callsubr
          -59 -209 -98 29 -81 122 hvcurveto
          -1 40 rmoveto
          -58 -19 58 71 -1 hvcurveto
          32 21 41 28 39 hhcurveto
          56 13 -43 -51 -55 -29 -40 -63 hvcurveto
          endchar
        </CharString>
        <CharString name="six.osf">
          -52 callgsubr
        </CharString>
        <CharString name="slash">
          -223 336 696 rmoveto
          -58 hlineto
          -270 -834 rlineto
          56 hlineto
          endchar
        </CharString>
        <CharString name="space">
          -362 endchar
        </CharString>
        <CharString name="sterling">
          -63 222 151 rmoveto
          112 187 vlineto
          9 44 rlineto
          -196 36 hlineto
          129 8 94 91 22 18 -3 -5 21 vhcurveto
          22 -94 rlineto
          40 hlineto
          10 127 rlineto
          17 -42 -50 11 -55 hhcurveto
          -140 -23 -103 -209 hvcurveto
          -94 hlineto
          -8 -44 rlineto
          102 -110 hlineto
          -69 -102 -43 0 vhcurveto
          14 -41 rlineto
          400 hlineto
          28 90 -16 14 -50 -44 -278 -10 rlineto
          41 20 41 47 34 vvcurveto
          endchar
        </CharString>
        <CharString name="summation">
          -43 424 474 rmoveto
          38 147 -452 -45 hlineto
          233 -307 -233 -317 rlineto
          -30 457 169 -38 vlineto
          -25 -91 rlineto
          -294 hlineto
          213 288 rlineto
          10 vlineto
          -200 271 rlineto
          277 hlineto
          endchar
        </CharString>
        <CharString name="t">
          -211 329 11 rmoveto
          -65 callsubr
          -41 17 -41 61 27 callsubr
          vhcurveto
          endchar
        </CharString>
        <CharString name="tbar">
          -211 343 432 rmoveto
          59 -165 110 -37 vlineto
          -37 -100 -81 -25 rlineto
          -36 73 -128 -64 -46 64 -193 vlineto
          -41 17 -41 61 27 callsubr
          vhcurveto
          27 -17 callgsubr
          20 rlineto
          208 145 46 -145 128 vlineto
          endchar
        </CharString>
        <CharString name="tcaron">
          -211 257 726 rmoveto
          29 -213 rlineto
          23 hlineto
          31 195 -55 18 rlineto
          44 -715 rmoveto
          -65 callsubr
          -41 17 -41 61 27 callsubr
          vhcurveto
          endchar
        </CharString>
        <CharString name="thorn">
          14 20 -167 rmoveto
          272 29 hlineto
          -101 26 rlineto
          546 vlineto
          10 20 36 7 34 hhcurveto
          153 10 -110 -94 -100 -20 19 callsubr
          31 25 23 callsubr
          -61 114 -186 -33 -33 -2 -4 -33 hvcurveto
          233 -25 vlineto
          -147 -27 callgsubr
          -769 vlineto
          -89 -26 rlineto
          endchar
        </CharString>
        <CharString name="three">
          -63 247 627 rmoveto
          -70 -70 -25 -28 -46 hvcurveto
          -4 callsubr
          87 98 -11 -119 -88 -67 -38 -94 -38 -41 5 20 -55 hvcurveto
          -11 -49 rlineto
          -19 46 63 -12 67 hhcurveto
          144 77 59 122 91 -63 61 -96 12 24 callgsubr
          vhcurveto
          endchar
        </CharString>
        <CharString name="three.dnom">
          197 439 -71 callgsubr
        </CharString>
        <CharString name="three.numr">
          197 -47 callgsubr
          endchar
        </CharString>
        <CharString name="three.osf">
          -63 174 -100 rmoveto
          160 96 84 107 87 -58 55 -91 10 24 callgsubr
          -70 -70 -25 -28 -46 vhcurveto
          -4 callsubr
          105 72 -19 -100 -91 -80 -49 -115 -20 -21 0 6 -46 hvcurveto
          -1 -46 rlineto
          -8 41 25 -2 50 hhcurveto
          endchar
        </CharString>
        <CharString name="threeeighths">
          406 411 hmoveto
          -55 callgsubr
          -155 -47 callgsubr
          432 -512 -90 callgsubr
        </CharString>
        <CharString name="threequarters">
          345 380 hmoveto
          -55 callgsubr
          -133 610 rmoveto
          -50 -51 -18 -20 -35 hvcurveto
          16 -36 rlineto
          19 37 34 9 24 hhcurveto
          47 23 -23 -35 -46 -30 -38 -82 -9 hvcurveto
          3 -34 rlineto
          60 68 -8 -79 -58 -43 -27 -61 -26 -29 4 15 -44 hvcurveto
          -10 -39 rlineto
          -13 36 46 -10 47 hhcurveto
          104 57 42 86 60 -41 42 -66 11 hvcurveto
          47 20 39 36 55 vvcurveto
          64 -55 30 -65 vhcurveto
          531 -610 -18 callgsubr
        </CharString>
        <CharString name="tilde">
          -310 272 675 -102 callsubr
          endchar
        </CharString>
        <CharString name="tilde.case">
          -310 272 762 -102 callsubr
          endchar
        </CharString>
        <CharString name="tildecomb">
          -565 17 762 -102 callsubr
          endchar
        </CharString>
        <CharString name="trademark">
          282 58 277 rmoveto
          192 25 hlineto
          -64 11 rlineto
          291 78 vlineto
          12 -52 -19 callsubr
          4 92 rlineto
          -311 hlineto
          3 -92 rlineto
          29 hlineto
          13 52 rlineto
          78 -291 hlineto
          -64 -11 rlineto
          468 -31 rmoveto
          47 7 106 299 12 -264 -54 -11 rlineto
          -24 171 24 vlineto
          -56 11 -13 294 53 12 rlineto
          25 -126 vlineto
          -105 -293 -101 293 rlineto
          -129 -25 hlineto
          48 -11 -12 -295 -48 -11 rlineto
          -24 141 24 vlineto
          -53 11 9 266 rlineto
          endchar
        </CharString>
        <CharString name="two">
          -63 47 hmoveto
          406 hlineto
          14 144 rlineto
          -37 hlineto
          -39 -81 rlineto
          -271 hlineto
          169 154 rlineto
          80 73 64 79 91 vvcurveto
          122 -86 45 -106 -70 -69 -25 -26 -46 vhcurveto
          18 -43 rlineto
          24 50 48 12 57 hhcurveto
          74 43 -46 -65 -81 -35 -53 -73 -72 hvcurveto
          -206 -202 rlineto
          endchar
        </CharString>
        <CharString name="two.dnom">
          180 394 -40 callgsubr
        </CharString>
        <CharString name="two.numr">
          -41 callsubr
          endchar
        </CharString>
        <CharString name="two.osf">
          -63 430 144 rmoveto
          -39 -81 rlineto
          -262 hlineto
          157 110 rlineto
          96 67 51 44 88 vvcurveto
          114 -87 48 -102 -74 -68 -25 -26 -46 vhcurveto
          18 -43 rlineto
          26 53 55 10 40 hhcurveto
          86 38 -46 -67 -63 -34 -33 -61 -46 hvcurveto
          -221 -166 17 -55 rlineto
          406 hlineto
          14 144 rlineto
          endchar
        </CharString>
        <CharString name="u">
          32 579 12 rmoveto
          -34 callgsubr
          442 -27 vlineto
          -107 callsubr
          endchar
        </CharString>
        <CharString name="uacute">
          37 202 558 -97 callgsubr
          392 -565 rmoveto
          -34 callgsubr
          442 -27 vlineto
          -107 callsubr
          endchar
        </CharString>
        <CharString name="ubreve">
          32 300 578 -98 callsubr
          279 -566 rmoveto
          -34 callgsubr
          442 -27 vlineto
          -107 callsubr
          endchar
        </CharString>
        <CharString name="ucircumflex">
          37 392 552 -83 callgsubr
          293 -630 rmoveto
          -34 callgsubr
          442 -27 vlineto
          -107 callsubr
          endchar
        </CharString>
        <CharString name="udieresis">
          37 249 635 -100 callgsubr
          134 -623 rmoveto
          -34 callgsubr
          442 -27 vlineto
          -107 callsubr
          endchar
        </CharString>
        <CharString name="ugrave">
          37 375 558 -75 callsubr
          419 -649 rmoveto
          -34 callgsubr
          442 -27 vlineto
          -107 callsubr
          endchar
        </CharString>
        <CharString name="uhorn">
          32 646 564 -96 callgsubr
          endchar
        </CharString>
        <CharString name="uhungarumlaut">
          37 172 -37 callgsubr
          264 -543 rmoveto
          -34 callgsubr
          442 -27 vlineto
          -107 callsubr
          endchar
        </CharString>
        <CharString name="umacron">
          37 182 661 -43 callgsubr
          179 -649 rmoveto
          -34 callgsubr
          442 -27 vlineto
          -107 callsubr
          endchar
        </CharString>
        <CharString name="underscore">
          -125 440 -59 rmoveto
          40 -440 -40 vlineto
          endchar
        </CharString>
        <CharString name="uni00A0">
          -362 endchar
        </CharString>
        <CharString name="uni00AD">
          17 callgsubr
        </CharString>
        <CharString name="uni00B2">
          180 674 rmoveto
          49 27 -30 -44 -53 -27 -40 -48 -46 hvcurveto
          -147 -143 10 -39 rlineto
          298 hlineto
          9 102 -33 4 -28 -56 rlineto
          -178 hlineto
          114 104 rlineto
          55 51 50 57 60 vvcurveto
          87 -64 30 -78 -52 -51 -17 -20 -36 vhcurveto
          17 -35 rlineto
          18 28 callgsubr
          endchar
        </CharString>
        <CharString name="uni00B3">
          197 714 rmoveto
          -50 -51 -18 -21 -35 hvcurveto
          16 -34 rlineto
          18 37 34 10 24 hhcurveto
          47 23 -24 -35 -46 -30 -39 -82 -9 hvcurveto
          3 -34 rlineto
          60 68 -7 -79 -59 -43 -26 -61 -26 -29 3 17 -44 hvcurveto
          -10 -39 rlineto
          -15 36 46 -8 47 hhcurveto
          104 57 41 86 60 -41 41 -66 12 hvcurveto
          47 21 39 34 56 vvcurveto
          63 -55 31 -65 vhcurveto
          endchar
        </CharString>
        <CharString name="uni00B5">
          -52 callsubr
        </CharString>
        <CharString name="uni00B9">
          69 650 rmoveto
          113 -372 31 callgsubr
        </CharString>
        <CharString name="uni0162">
          -52 224 -219 rmoveto
          -30 callsubr
          15 46 rlineto
          138 -48 callsubr
          -33 128 vlineto
          -23 -67 -73 callgsubr
          endchar
        </CharString>
        <CharString name="uni0163">
          -211 153 -219 rmoveto
          -30 callsubr
          12 38 37 2 65 8 34 9 rlinecurve
          -65 callsubr
          -38 15 -39 52 -5 vhcurveto
          -20 -58 -73 callgsubr
          endchar
        </CharString>
        <CharString name="uni018F">
          81 318 -9 rmoveto
          212 75 143 175 174 -76 145 -218 -81 -74 -20 -36 -67 hvcurveto
          8 -115 rlineto
          37 hlineto
          25 88 rlineto
          26 54 53 9 41 hhcurveto
          151 51 -122 -129 5 hvcurveto
          -473 -21 hlineto
          -213 96 -104 181 vhcurveto
          1 48 rmoveto
          -119 -59 72 169 -9 hvcurveto
          382 hlineto
          -116 -7 -32 -125 -156 hhcurveto
          endchar
        </CharString>
        <CharString name="uni019D">
          127 444 611 rmoveto
          -67 callsubr
          -579 vlineto
          -39 -16 -54 -53 vhcurveto
          -46 hlineto
          -5 -31 rlineto
          -17 33 31 -6 20 hhcurveto
          52 42 42 132 hvcurveto
          481 vlineto
          349 -498 -36 callgsubr
          vlineto
          endchar
        </CharString>
        <CharString name="uni01C4">
          572 849 -82 callsubr
          -447 -171 rmoveto
          -262 -33 hlineto
          90 -20 rlineto
          -505 21 callgsubr
          -33 279 vlineto
          203 78 143 175 174 -82 119 -216 hvcurveto
          793 -464 -80 callsubr
          -792 564 -13 callsubr
        </CharString>
        <CharString name="uni01C5">
          534 762 -74 callsubr
          -570 -14 -76 callsubr
          662 -126 -89 callsubr
          endchar
        </CharString>
        <CharString name="uni01C6">
          468 389 46 rmoveto
          -77 callsubr
          20 callsubr
          vhcurveto
          307 669 rmoveto
          -22 -18 100 -139 rlineto
          60 hlineto
          98 139 -21 18 -107 -90 rlineto
          82 -187 -89 callsubr
          -429 -390 -32 callgsubr
        </CharString>
        <CharString name="uni01C7">
          205 466 hmoveto
          147 -38 vlineto
          -25 -91 rlineto
          -192 502 hlineto
          -91 callsubr
          -33 vlineto
          495 -149 -77 callgsubr
        </CharString>
        <CharString name="uni01C8">
          211 697 -21 callsubr
          -231 -637 rmoveto
          147 -38 vlineto
          -25 -91 rlineto
          -192 502 hlineto
          -91 callsubr
          -33 vlineto
          467 463 -82 callgsubr
        </CharString>
        <CharString name="uni01C9">
          30 17 hmoveto
          -65 callgsubr
          499 604 -51 callsubr
          -192 -174 -82 callgsubr
        </CharString>
        <CharString name="uni01CA">
          419 444 611 rmoveto
          -87 callsubr
          349 -498 -36 callgsubr
          vlineto
          81 -760 -77 callgsubr
        </CharString>
        <CharString name="uni01CB">
          425 911 -21 callsubr
          -467 -26 rmoveto
          -87 callsubr
          349 -498 -36 callgsubr
          vlineto
          53 -148 -82 callgsubr
        </CharString>
        <CharString name="uni01CC">
          357 843 -21 callsubr
          -640 -177 -94 callsubr
          448 3 -82 callgsubr
        </CharString>
        <CharString name="uni01CD">
          29 268 -82 callsubr
          -35 -730 -99 callsubr
        </CharString>
        <CharString name="uni01CE">
          -56 142 -74 callsubr
          -19 -179 rmoveto
          -107 callgsubr
          endchar
        </CharString>
        <CharString name="uni01CF">
          -226 141 -82 callsubr
          -1 -782 rmoveto
          -23 callgsubr
          505 vlineto
          -91 callsubr
          endchar
        </CharString>
        <CharString name="uni01D0">
          -251 50 -74 callsubr
          133 -593 rmoveto
          -87 callgsubr
          -32 261 vlineto
          endchar
        </CharString>
        <CharString name="uni01D1">
          93 300 -82 callsubr
          132 -156 rmoveto
          -105 callsubr
          endchar
        </CharString>
        <CharString name="uni01D2">
          -18 167 -74 callsubr
          -1 -125 rmoveto
          -101 callgsubr
        </CharString>
        <CharString name="uni01D3">
          86 297 -82 callsubr
          361 -546 -104 callsubr
          endchar
        </CharString>
        <CharString name="uni01D4">
          32 192 -74 callsubr
          279 -613 rmoveto
          -34 callgsubr
          442 -27 vlineto
          -107 callsubr
          endchar
        </CharString>
        <CharString name="uni01D5">
          86 219 918 -43 callgsubr
          -151 -196 -100 callgsubr
          76 -486 -104 callsubr
          endchar
        </CharString>
        <CharString name="uni01D6">
          32 192 798 -43 callgsubr
          -151 -196 -100 callgsubr
          126 -590 rmoveto
          -34 callgsubr
          442 -27 vlineto
          -107 callsubr
          endchar
        </CharString>
        <CharString name="uni01D7">
          86 282 819 -97 callgsubr
          19 -116 -100 callgsubr
          76 -486 -104 callsubr
          endchar
        </CharString>
        <CharString name="uni01D8">
          32 255 699 -97 callgsubr
          19 -116 -100 callgsubr
          126 -590 rmoveto
          -34 callgsubr
          442 -27 vlineto
          -107 callsubr
          endchar
        </CharString>
        <CharString name="uni01D9">
          86 299 820 rmoveto
          60 hlineto
          100 131 -18 18 -111 -82 -116 82 -17 -18 rlineto
          88 -229 -100 callgsubr
          76 -486 -104 callsubr
          endchar
        </CharString>
        <CharString name="uni01DA">
          32 272 700 rmoveto
          60 hlineto
          100 131 -18 18 -111 -82 -116 82 -17 -18 rlineto
          88 -229 -100 callgsubr
          126 -590 rmoveto
          -34 callgsubr
          442 -27 vlineto
          -107 callsubr
          endchar
        </CharString>
        <CharString name="uni01DB">
          86 379 819 -75 callsubr
          122 -200 -100 callgsubr
          76 -486 -104 callsubr
          endchar
        </CharString>
        <CharString name="uni01DC">
          32 352 699 -75 callsubr
          122 -200 -100 callgsubr
          126 -590 rmoveto
          -34 callgsubr
          442 -27 vlineto
          -107 callsubr
          endchar
        </CharString>
        <CharString name="uni01EA">
          93 501 -151 rmoveto
          -34 -21 21 38 52 24 52 40 32 hvcurveto
          75 57 32 97 110 vvcurveto
          -60 callgsubr
          -208 -81 -144 -174 -174 83 -143 206 39 35 5 10 30 vhcurveto
          -39 -42 -16 -41 -33 -32 callsubr
          -370 459 rmoveto
          -84 callgsubr
          -69 callsubr
          -166 -36 158 111 vhcurveto
          endchar
        </CharString>
        <CharString name="uni01EB">
          -18 419 -155 rmoveto
          -34 -21 21 38 50 33 56 31 29 hvcurveto
          55 47 23 74 83 vvcurveto
          143 -63 114 -169 -167 -66 -114 -143 -139 67 -114 166 28 26 3 6 22 vhcurveto
          -37 -41 -16 -40 -32 -32 callsubr
          -286 401 rmoveto
          117 29 90 109 114 29 -90 -117 -64 callgsubr
          -114 -30 89 119 vhcurveto
          endchar
        </CharString>
        <CharString name="uni01F1">
          572 300 611 rmoveto
          -262 -33 hlineto
          90 -20 rlineto
          -505 21 callgsubr
          -33 279 vlineto
          203 78 143 175 174 -82 119 -216 hvcurveto
          793 -464 -80 callsubr
          -792 564 -13 callsubr
        </CharString>
        <CharString name="uni01F2">
          534 300 611 -76 callsubr
          662 -126 -89 callsubr
          endchar
        </CharString>
        <CharString name="uni01F3">
          468 389 46 rmoveto
          -77 callsubr
          20 callsubr
          vhcurveto
          497 392 -89 callsubr
          -429 -390 -32 callgsubr
        </CharString>
        <CharString name="uni01F4">
          35 254 650 -97 callgsubr
          210 -102 -95 callsubr
        </CharString>
        <CharString name="uni01F5">
          -55 181 558 -97 callgsubr
          41 -754 -103 callgsubr
        </CharString>
        <CharString name="uni0200">
          29 218 -70 callsubr
          -121 -731 -99 callsubr
        </CharString>
        <CharString name="uni0201">
          -56 192 -70 callgsubr
          24 -251 rmoveto
          -107 callgsubr
          endchar
        </CharString>
        <CharString name="uni0202">
          29 296 786 -86 callgsubr
          -165 -734 -99 callsubr
        </CharString>
        <CharString name="uni0203">
          -56 248 704 -86 callgsubr
          -17 -258 rmoveto
          -107 callgsubr
          endchar
        </CharString>
        <CharString name="uni0204">
          -21 193 -70 callsubr
          156 -394 -99 callgsubr
          endchar
        </CharString>
        <CharString name="uni0205">
          -94 179 -70 callgsubr
          69 -708 -102 callgsubr
        </CharString>
        <CharString name="uni0206">
          -21 271 786 -86 callgsubr
          112 -397 -99 callgsubr
          endchar
        </CharString>
        <CharString name="uni0207">
          -94 235 704 -86 callgsubr
          28 -715 -102 callgsubr
        </CharString>
        <CharString name="uni0208">
          -226 91 -70 callsubr
          -87 -783 rmoveto
          -23 callgsubr
          505 vlineto
          -91 callsubr
          endchar
        </CharString>
        <CharString name="uni0209">
          -251 100 -70 callgsubr
          176 -665 rmoveto
          -87 callgsubr
          -32 261 vlineto
          endchar
        </CharString>
        <CharString name="uni020A">
          -226 169 786 -86 callgsubr
          -131 -786 rmoveto
          -23 callgsubr
          505 vlineto
          -91 callsubr
          endchar
        </CharString>
        <CharString name="uni020B">
          -251 156 704 -86 callgsubr
          135 -672 rmoveto
          -87 callgsubr
          -32 261 vlineto
          endchar
        </CharString>
        <CharString name="uni020C">
          93 250 -70 callsubr
          46 -157 rmoveto
          -105 callsubr
          endchar
        </CharString>
        <CharString name="uni020D">
          -18 217 -70 callgsubr
          42 -197 rmoveto
          -101 callgsubr
        </CharString>
        <CharString name="uni020E">
          93 328 786 -86 callgsubr
          2 -160 rmoveto
          -105 callsubr
          endchar
        </CharString>
        <CharString name="uni020F">
          -18 273 704 -86 callgsubr
          1 -204 rmoveto
          -101 callgsubr
        </CharString>
        <CharString name="uni0210">
          -7 200 -70 callsubr
          207 -783 rmoveto
          -88 callsubr
          endchar
        </CharString>
        <CharString name="uni0211">
          -166 143 -70 callgsubr
          151 -261 -83 callsubr
          endchar
        </CharString>
        <CharString name="uni0212">
          -7 278 786 -86 callgsubr
          163 -786 rmoveto
          -88 callsubr
          endchar
        </CharString>
        <CharString name="uni0213">
          -166 199 704 -86 callgsubr
          110 -268 -83 callsubr
          endchar
        </CharString>
        <CharString name="uni0214">
          86 247 -70 callsubr
          275 -547 -104 callsubr
          endchar
        </CharString>
        <CharString name="uni0215">
          32 242 -70 callgsubr
          322 -685 rmoveto
          -34 callgsubr
          442 -27 vlineto
          -107 callsubr
          endchar
        </CharString>
        <CharString name="uni0216">
          86 325 786 -86 callgsubr
          231 -550 -104 callsubr
          endchar
        </CharString>
        <CharString name="uni0217">
          32 298 704 -86 callgsubr
          281 -692 rmoveto
          -34 callgsubr
          442 -27 vlineto
          -107 callsubr
          endchar
        </CharString>
        <CharString name="uni021A">
          -52 109 hmoveto
          296 -48 callsubr
          99 -254 rmoveto
          33 hlineto
          63 -29 callsubr
        </CharString>
        <CharString name="uni021B">
          -211 174 -9 rmoveto
          27 callsubr
          hvcurveto
          -65 callsubr
          -41 17 -41 61 vhcurveto
          -27 -212 rmoveto
          33 hlineto
          64 -29 callsubr
        </CharString>
        <CharString name="uni0232">
          2 175 749 -43 callgsubr
          -29 -171 rmoveto
          -84 callsubr
          -206 vlineto
          endchar
        </CharString>
        <CharString name="uni0232.loclGUA">
          98 223 749 -43 callgsubr
          -247 -832 rmoveto
          -49 callsubr
          -94 callgsubr
          endchar
        </CharString>
        <CharString name="uni0233">
          -76 136 661 -43 callgsubr
          -146 -170 -80 callgsubr
        </CharString>
        <CharString name="uni0233.loclGUA">
          4 176 661 -43 callgsubr
          13 -570 -89 callgsubr
        </CharString>
        <CharString name="uni0237">
          -267 27 463 -82 callgsubr
        </CharString>
        <CharString name="uni0259">
          -94 208 502 rmoveto
          -68 -45 -12 -32 -57 hvcurveto
          6 -31 rlineto
          14 50 57 8 43 hhcurveto
          93 54 -71 -117 hvcurveto
          -32 -308 vlineto
          -1 -19 -1 -15 -16 vvcurveto
          -129 60 -59 128 139 75 90 167 167 -76 87 -149 vhcurveto
          131 -308 rmoveto
          -111 -5 -35 -43 -86 hhcurveto
          -64 -28 39 82 hvcurveto
          23 vlineto
          endchar
        </CharString>
        <CharString name="uni0272">
          59 515 53 rmoveto
          338 vlineto
          82 -62 27 -71 -66 -74 -23 -17 -39 vhcurveto
          40 -27 vlineto
          -145 -37 rlineto
          -23 -28 callsubr
          -450 vlineto
          -39 -16 -54 -53 vhcurveto
          -46 hlineto
          -5 -31 rlineto
          -17 33 32 -6 16 hhcurveto
          75 48 54 170 hvcurveto
          367 vlineto
          10 36 50 6 42 hhcurveto
          79 21 -13 -53 hvcurveto
          -321 vlineto
          -82 -25 rlineto
          -28 255 28 vlineto
          endchar
        </CharString>
        <CharString name="uni02B0">
          -96 385 321 rmoveto
          19 callgsubr
          200 -22 vlineto
          -113 -29 14 callsubr
          -446 -20 callsubr
          endchar
        </CharString>
        <CharString name="uni02BC">
          -310 114 513 3 callgsubr
          endchar
        </CharString>
        <CharString name="uni02C9">
          -310 19 631 -43 callgsubr
          endchar
        </CharString>
        <CharString name="uni02E1">
          -331 218 304 rmoveto
          -66 17 rlineto
          502 -22 vlineto
          -113 -29 14 callsubr
          -446 vlineto
          -64 -17 rlineto
          -26 201 vlineto
          endchar
        </CharString>
        <CharString name="uni02E2">
          -216 186 611 rmoveto
          16 22 -4 -7 14 hvcurveto
          14 -54 rlineto
          28 hlineto
          11 83 rlineto
          14 -33 -35 9 -35 hhcurveto
          -89 -42 -41 -65 -53 23 -28 51 -19 hvcurveto
          53 -20 rlineto
          45 -17 17 -15 -31 vvcurveto
          -33 -29 -21 -47 -28 -20 4 6 -14 vhcurveto
          -17 61 rlineto
          -27 hlineto
          -10 -90 rlineto
          -13 34 45 -7 34 hhcurveto
          94 47 47 62 59 -24 25 -60 21 hvcurveto
          -60 22 rlineto
          -34 12 -16 12 30 vvcurveto
          32 27 19 45 vhcurveto
          endchar
        </CharString>
        <CharString name="uni0302">
          -565 -15 651 -92 callsubr
          endchar
        </CharString>
        <CharString name="uni0304">
          -565 -236 749 -43 callgsubr
          endchar
        </CharString>
        <CharString name="uni0306">
          -565 -127 -75 callgsubr
          endchar
        </CharString>
        <CharString name="uni0307">
          -565 -68 -46 callsubr
          endchar
        </CharString>
        <CharString name="uni0308">
          -565 -168 722 -100 callgsubr
          endchar
        </CharString>
        <CharString name="uni030A">
          -565 -127 633 -74 callgsubr
          endchar
        </CharString>
        <CharString name="uni030B">
          -565 -261 -37 callsubr
          endchar
        </CharString>
        <CharString name="uni030C">
          -565 -157 -82 callsubr
          endchar
        </CharString>
        <CharString name="uni030F">
          -565 -145 -70 callgsubr
          endchar
        </CharString>
        <CharString name="uni030F.case">
          -565 -156 -70 callsubr
          endchar
        </CharString>
        <CharString name="uni0311">
          -565 -129 704 -86 callgsubr
          endchar
        </CharString>
        <CharString name="uni0311.case">
          -565 -129 786 -86 callgsubr
          endchar
        </CharString>
        <CharString name="uni031B">
          -565 -158 529 rmoveto
          -6 -13 rlineto
          3 -13 2 -16 -12 vvcurveto
          -44 -27 -9 -39 vhcurveto
          -37 -43 7 hlineto
          90 88 39 68 15 -4 24 -9 18 hvcurveto
          endchar
        </CharString>
        <CharString name="uni0326">
          -565 -143 -221 16 callsubr
        </CharString>
        <CharString name="uni0327">
          -565 -141 -46 rmoveto
          17 53 rlineto
          -30 hlineto
          -25 -74 -73 callgsubr
          -30 callsubr
          endchar
        </CharString>
        <CharString name="uni0328">
          -565 -94 hmoveto
          -34 hlineto
          -67 -53 -27 -56 -42 -32 callsubr
          -34 -21 21 38 51 31 51 30 31 hvcurveto
          endchar
        </CharString>
        <CharString name="uni0394">
          -17 callsubr
        </CharString>
        <CharString name="uni03A9">
          -56 callgsubr
        </CharString>
        <CharString name="uni03BC">
          -52 callsubr
        </CharString>
        <CharString name="uni1E0C">
          74 300 611 -76 callsubr
          90 -665 -100 callsubr
          endchar
        </CharString>
        <CharString name="uni1E0D">
          8 389 46 rmoveto
          -77 callsubr
          20 callsubr
          vhcurveto
          -131 2 -59 callgsubr
          89 -149 -100 callsubr
          endchar
        </CharString>
        <CharString name="uni1E24">
          158 39 hmoveto
          -66 callsubr
          383 -134 -100 callsubr
          endchar
        </CharString>
        <CharString name="uni1E25">
          52 596 hmoveto
          -68 callsubr
          29 -101 -100 callsubr
          endchar
        </CharString>
        <CharString name="uni1E44">
          127 406 -46 callsubr
          38 -114 rmoveto
          -87 callsubr
          349 -498 -36 callgsubr
          vlineto
          endchar
        </CharString>
        <CharString name="uni1E45">
          59 372 -45 callgsubr
          -169 -177 -94 callsubr
          endchar
        </CharString>
        <CharString name="uni1E5A">
          -7 441 hmoveto
          -88 callsubr
          62 -420 -100 callsubr
          endchar
        </CharString>
        <CharString name="uni1E5B">
          -166 309 436 -83 callsubr
          -90 -537 -100 callsubr
          endchar
        </CharString>
        <CharString name="uni1E62">
          -107 45 456 -90 callsubr
          244 -557 -100 callsubr
          endchar
        </CharString>
        <CharString name="uni1E63">
          -145 -58 callgsubr
          49 -550 -100 callsubr
          endchar
        </CharString>
        <CharString name="uni1E6C">
          -26 callsubr
          -187 -712 -100 callsubr
          endchar
        </CharString>
        <CharString name="uni1E6D">
          -211 329 11 rmoveto
          -65 callsubr
          -41 17 -41 61 27 callsubr
          vhcurveto
          -92 -112 -100 callsubr
          endchar
        </CharString>
        <CharString name="uni1E92">
          -47 474 147 -80 callsubr
          -144 -101 -100 callsubr
          endchar
        </CharString>
        <CharString name="uni1E93">
          -105 313 438 -89 callsubr
          176 -539 -100 callsubr
          endchar
        </CharString>
        <CharString name="uni1E9E">
          27 9 hmoveto
          244 37 hlineto
          -72 16 rlineto
          359 vlineto
          114 51 51 109 50 42 -13 -20 20 vhcurveto
          -153 -238 18 -33 rlineto
          144 28 -72 -57 -67 -39 -39 -57 -23 -15 6 6 -8 hvcurveto
          -19 88 rlineto
          -37 hlineto
          -14 -118 rlineto
          -21 31 41 -10 43 hhcurveto
          115 63 70 100 87 -49 64 -120 14 hvcurveto
          130 208 -5 32 rlineto
          38 -38 -76 24 -80 hhcurveto
          -153 -82 -80 -163 hvcurveto
          -330 vlineto
          -89 -20 rlineto
          endchar
        </CharString>
        <CharString name="uni1EA0">
          29 131 52 -44 callgsubr
        </CharString>
        <CharString name="uni1EA1">
          -56 231 446 rmoveto
          -107 callgsubr
          95 -318 -100 callsubr
          endchar
        </CharString>
        <CharString name="uni1EA2">
          29 277 742 -105 callgsubr
          267 -690 -60 callsubr
        </CharString>
        <CharString name="uni1EA3">
          -56 229 622 -105 callgsubr
          202 -564 -76 callgsubr
        </CharString>
        <CharString name="uni1EA4">
          29 413 697 -40 callsubr
          -3 -59 -92 callsubr
          -143 -681 -99 callsubr
        </CharString>
        <CharString name="uni1EA5">
          -56 385 606 -40 callsubr
          -9 -67 -83 callgsubr
          -18 -196 rmoveto
          -107 callgsubr
          endchar
        </CharString>
        <CharString name="uni1EA6">
          29 453 697 -31 callsubr
          104 -217 -92 callsubr
          -143 -681 -99 callsubr
        </CharString>
        <CharString name="uni1EA7">
          -56 415 606 -31 callsubr
          98 -225 -83 callgsubr
          -8 -196 rmoveto
          -107 callgsubr
          endchar
        </CharString>
        <CharString name="uni1EA8">
          29 377 826 -105 callgsubr
          -53 -93 rmoveto
          15 callsubr
          17 -18 rlineto
          331 -599 -60 callsubr
        </CharString>
        <CharString name="uni1EA9">
          -56 327 735 -105 callgsubr
          -48 -93 rmoveto
          18 callsubr
          21 -18 rlineto
          260 -494 -76 callgsubr
        </CharString>
        <CharString name="uni1EAA">
          29 444 901 -102 callsubr
          -34 -250 -92 callsubr
          -163 -681 -99 callsubr
        </CharString>
        <CharString name="uni1EAB">
          -56 396 781 -102 callsubr
          -34 -250 -92 callsubr
          -15 -167 rmoveto
          -107 callgsubr
          endchar
        </CharString>
        <CharString name="uni1EAC">
          29 410 651 -92 callsubr
          -163 -681 -44 callgsubr
        </CharString>
        <CharString name="uni1EAD">
          -56 356 552 -83 callgsubr
          -18 -196 rmoveto
          -107 callgsubr
          95 -318 -100 callsubr
          endchar
        </CharString>
        <CharString name="uni1EAE">
          29 253 779 -97 callgsubr
          61 -133 -79 callsubr
          endchar
        </CharString>
        <CharString name="uni1EAF">
          -56 205 659 -97 callgsubr
          61 -133 -31 callgsubr
          -99 rmoveto
          -107 callgsubr
          endchar
        </CharString>
        <CharString name="uni1EB0">
          29 350 779 -75 callsubr
          164 -217 -79 callsubr
          endchar
        </CharString>
        <CharString name="uni1EB1">
          -56 302 659 -75 callsubr
          164 -217 -31 callgsubr
          -99 rmoveto
          -107 callgsubr
          endchar
        </CharString>
        <CharString name="uni1EB2">
          29 279 871 -105 callgsubr
          49 -206 -98 callsubr
          216 -613 -60 callsubr
        </CharString>
        <CharString name="uni1EB3">
          -56 231 751 -105 callgsubr
          49 -206 -98 callsubr
          151 -487 -76 callgsubr
        </CharString>
        <CharString name="uni1EB4">
          29 444 891 -23 callsubr
          -226 -79 callsubr
          endchar
        </CharString>
        <CharString name="uni1EB5">
          -56 396 771 -23 callsubr
          -226 -31 callgsubr
          -99 rmoveto
          -107 callgsubr
          endchar
        </CharString>
        <CharString name="uni1EB6">
          29 298 665 -79 callsubr
          179 -299 -100 callsubr
          endchar
        </CharString>
        <CharString name="uni1EB7">
          -56 250 578 -31 callgsubr
          -132 rmoveto
          -107 callgsubr
          95 -318 -100 callsubr
          endchar
        </CharString>
        <CharString name="uni1EB8">
          -21 383 389 -99 callgsubr
          -87 -490 -100 callsubr
          endchar
        </CharString>
        <CharString name="uni1EB9">
          -94 263 -11 -106 callgsubr
          -54 -408 -100 callsubr
          endchar
        </CharString>
        <CharString name="uni1EBA">
          -21 252 742 -105 callgsubr
          237 -595 -35 callgsubr
        </CharString>
        <CharString name="uni1EBB">
          -94 216 622 -105 callgsubr
          252 -360 -45 callsubr
        </CharString>
        <CharString name="uni1EBC">
          -21 434 792 -102 callsubr
          -51 -403 -99 callgsubr
          endchar
        </CharString>
        <CharString name="uni1EBD">
          -94 318 582 -63 callsubr
          -55 -593 -102 callgsubr
        </CharString>
        <CharString name="uni1EBE">
          -21 388 697 -40 callsubr
          -3 -59 -92 callsubr
          134 -344 -99 callgsubr
          endchar
        </CharString>
        <CharString name="uni1EBF">
          -94 372 606 -40 callsubr
          -9 -67 -83 callgsubr
          27 -653 -102 callgsubr
        </CharString>
        <CharString name="uni1EC0">
          -21 428 697 -31 callsubr
          104 -217 -92 callsubr
          134 -344 -99 callgsubr
          endchar
        </CharString>
        <CharString name="uni1EC1">
          -94 402 606 -31 callsubr
          98 -225 -83 callgsubr
          37 -653 -102 callgsubr
        </CharString>
        <CharString name="uni1EC2">
          -21 352 826 -105 callgsubr
          -53 -93 rmoveto
          15 callsubr
          17 -18 rlineto
          301 -504 -35 callgsubr
        </CharString>
        <CharString name="uni1EC3">
          -94 314 735 -105 callgsubr
          -48 -93 rmoveto
          18 callsubr
          21 -18 rlineto
          310 -290 -45 callsubr
        </CharString>
        <CharString name="uni1EC4">
          -21 419 901 -102 callsubr
          -34 -250 -92 callsubr
          114 -344 -99 callgsubr
          endchar
        </CharString>
        <CharString name="uni1EC5">
          -94 383 781 -102 callsubr
          -34 -250 -92 callsubr
          30 -624 -102 callgsubr
        </CharString>
        <CharString name="uni1EC6">
          -21 385 651 -92 callsubr
          114 -344 -99 callgsubr
          -87 -490 -100 callsubr
          endchar
        </CharString>
        <CharString name="uni1EC7">
          -94 343 552 -83 callgsubr
          27 -653 -106 callgsubr
          -54 -408 -100 callsubr
          endchar
        </CharString>
        <CharString name="uni1EC8">
          -226 150 742 -105 callgsubr
          181 -164 rmoveto
          33 -263 -33 vlineto
          90 -20 rlineto
          -505 21 callgsubr
          -33 -9 callgsubr
          vlineto
          -18 callsubr
          505 vlineto
          endchar
        </CharString>
        <CharString name="uni1EC9">
          -251 137 622 -105 callgsubr
          95 -569 rmoveto
          -81 callgsubr
          -32 261 32 vlineto
          endchar
        </CharString>
        <CharString name="uni1ECA">
          -226 38 hmoveto
          -23 callgsubr
          505 vlineto
          -91 callsubr
          192 -134 -100 callsubr
          endchar
        </CharString>
        <CharString name="uni1ECB">
          -254 160 580 -50 callgsubr
          -130 -580 rmoveto
          261 32 hlineto
          -87 callgsubr
          187 -133 -100 callsubr
          endchar
        </CharString>
        <CharString name="uni1ECC">
          93 330 626 rmoveto
          -105 callsubr
          -138 -409 -100 callsubr
          endchar
        </CharString>
        <CharString name="uni1ECD">
          -18 274 500 rmoveto
          -104 callgsubr
          -80 -347 -100 callsubr
          endchar
        </CharString>
        <CharString name="uni1ECE">
          93 309 742 -105 callgsubr
          51 -116 -42 callsubr
        </CharString>
        <CharString name="uni1ECF">
          -18 254 622 -105 callgsubr
          50 -122 -39 callsubr
        </CharString>
        <CharString name="uni1ED0">
          93 445 697 -40 callsubr
          -3 -59 -92 callsubr
          24 -107 rmoveto
          -105 callsubr
          endchar
        </CharString>
        <CharString name="uni1ED1">
          -18 410 606 -40 callsubr
          -9 -67 -83 callgsubr
          -142 vmoveto
          -101 callgsubr
        </CharString>
        <CharString name="uni1ED2">
          93 485 697 -31 callsubr
          104 -217 -92 callsubr
          24 -107 rmoveto
          -105 callsubr
          endchar
        </CharString>
        <CharString name="uni1ED3">
          -18 440 606 -31 callsubr
          98 -225 -83 callgsubr
          10 -142 rmoveto
          -101 callgsubr
        </CharString>
        <CharString name="uni1ED4">
          93 409 826 -105 callgsubr
          -53 -93 rmoveto
          15 callsubr
          17 -18 rlineto
          115 -25 -42 callsubr
        </CharString>
        <CharString name="uni1ED5">
          -18 352 735 -105 callgsubr
          -48 -93 rmoveto
          18 callsubr
          21 -18 rlineto
          108 -52 -39 callsubr
        </CharString>
        <CharString name="uni1ED6">
          93 476 901 -102 callsubr
          -34 -250 -92 callsubr
          4 -107 rmoveto
          -105 callsubr
          endchar
        </CharString>
        <CharString name="uni1ED7">
          -18 421 781 -102 callsubr
          -34 -250 -92 callsubr
          3 -113 rmoveto
          -101 callgsubr
        </CharString>
        <CharString name="uni1ED8">
          93 442 651 -92 callsubr
          4 -107 rmoveto
          -105 callsubr
          -138 -409 -100 callsubr
          endchar
        </CharString>
        <CharString name="uni1ED9">
          -53 callsubr
          -80 -347 -100 callsubr
          endchar
        </CharString>
        <CharString name="uni1EDA">
          93 497 753 -24 callsubr
          385 -4 -95 callgsubr
          endchar
        </CharString>
        <CharString name="uni1EDB">
          -18 414 661 -24 callsubr
          357 -22 -93 callgsubr
          endchar
        </CharString>
        <CharString name="uni1EDC">
          93 394 669 -28 callgsubr
          288 -4 -95 callgsubr
          endchar
        </CharString>
        <CharString name="uni1EDD">
          -18 349 577 -28 callgsubr
          222 -22 -93 callgsubr
          endchar
        </CharString>
        <CharString name="uni1EDE">
          93 309 742 -105 callgsubr
          389 -96 -95 callgsubr
          endchar
        </CharString>
        <CharString name="uni1EDF">
          -18 254 622 -105 callgsubr
          333 -86 -93 callgsubr
          endchar
        </CharString>
        <CharString name="uni1EE0">
          93 259 709 -63 callgsubr
          409 -63 -95 callgsubr
          endchar
        </CharString>
        <CharString name="uni1EE1">
          -18 204 622 -63 callgsubr
          353 -86 -93 callgsubr
          endchar
        </CharString>
        <CharString name="uni1EE2">
          93 668 646 -95 callgsubr
          -4 -80 -33 callsubr
        </CharString>
        <CharString name="uni1EE3">
          -18 557 536 -93 callgsubr
          -3 -79 -33 callsubr
        </CharString>
        <CharString name="uni1EE4">
          86 556 236 -104 callsubr
          -170 -337 -100 callsubr
          endchar
        </CharString>
        <CharString name="uni1EE5">
          32 579 12 rmoveto
          -34 callgsubr
          442 -27 vlineto
          -107 callsubr
          -220 -113 -100 callsubr
          endchar
        </CharString>
        <CharString name="uni1EE6">
          86 306 742 -105 callgsubr
          137 -131 rmoveto
          -33 vlineto
          -81 callsubr
          -54 callgsubr
          vlineto
          endchar
        </CharString>
        <CharString name="uni1EE7">
          32 279 622 -105 callgsubr
          239 -564 rmoveto
          442 -27 vlineto
          -85 callgsubr
          endchar
        </CharString>
        <CharString name="uni1EE8">
          86 494 753 -24 callsubr
          417 25 -92 callgsubr
          endchar
        </CharString>
        <CharString name="uni1EE9">
          32 439 661 -24 callsubr
          421 6 -96 callgsubr
          endchar
        </CharString>
        <CharString name="uni1EEA">
          86 391 669 -28 callgsubr
          320 25 -92 callgsubr
          endchar
        </CharString>
        <CharString name="uni1EEB">
          32 374 577 -28 callgsubr
          286 6 -96 callgsubr
          endchar
        </CharString>
        <CharString name="uni1EEC">
          86 306 742 -105 callgsubr
          421 -67 -92 callgsubr
          endchar
        </CharString>
        <CharString name="uni1EED">
          32 279 622 -105 callgsubr
          397 -58 -96 callgsubr
          endchar
        </CharString>
        <CharString name="uni1EEE">
          86 256 709 -63 callgsubr
          441 -34 -92 callgsubr
          endchar
        </CharString>
        <CharString name="uni1EEF">
          32 229 622 -63 callgsubr
          417 -58 -96 callgsubr
          endchar
        </CharString>
        <CharString name="uni1EF0">
          86 697 675 -92 callgsubr
          -371 -716 -33 callsubr
        </CharString>
        <CharString name="uni1EF1">
          32 646 564 -96 callgsubr
          -347 -605 -33 callsubr
        </CharString>
        <CharString name="uni1EF4">
          2 363 578 rmoveto
          -84 callsubr
          -206 vlineto
          -19 -712 -100 callsubr
          endchar
        </CharString>
        <CharString name="uni1EF5">
          -76 207 491 -79 callgsubr
          226 -563 -100 callsubr
          endchar
        </CharString>
        <CharString name="uni1EF6">
          2 264 742 -105 callgsubr
          129 -131 rmoveto
          -33 vlineto
          -84 callsubr
          vlineto
          endchar
        </CharString>
        <CharString name="uni1EF7">
          -76 225 622 -105 callgsubr
          105 -131 rmoveto
          -29 vlineto
          74 -21 -105 -2 callgsubr
          -44 -30 -32 -72 hhcurveto
          -42 hlineto
          -6 -32 rlineto
          -16 28 27 -7 23 hhcurveto
          85 45 75 126 45 hvcurveto
          144 407 64 21 rlineto
          29 vlineto
          endchar
        </CharString>
        <CharString name="uni1EF8">
          2 447 792 -102 callsubr
          -92 -214 rmoveto
          -84 callsubr
          -206 vlineto
          endchar
        </CharString>
        <CharString name="uni1EF8.loclGUA">
          98 411 703 -63 callsubr
          -81 -870 rmoveto
          -94 callgsubr
          -49 callsubr
          endchar
        </CharString>
        <CharString name="uni1EF9">
          -46 426 675 -102 callsubr
          -197 -184 -80 callgsubr
        </CharString>
        <CharString name="uni1EF9.loclGUA">
          4 432 675 -102 callsubr
          -26 -584 -89 callgsubr
        </CharString>
        <CharString name="uni2070">
          356 493 rmoveto
          170 -70 56 -89 -90 -73 -59 -167 -167 73 -57 90 89 70 56 168 vhcurveto
          -159 -157 rmoveto
          -53 -64 28 128 132 64 27 53 51 64 -26 30 callsubr
        </CharString>
        <CharString name="uni2074">
          233 278 rmoveto
          68 96 60 48 -60 285 hlineto
          -54 6 -228 -306 11 -33 rlineto
          203 hlineto
          -145 48 rmoveto
          145 194 rlineto
          -194 vlineto
          endchar
        </CharString>
        <CharString name="uni2075">
          314 706 rmoveto
          -226 hlineto
          -18 -188 16 -15 rlineto
          115 60 -23 -75 -57 -44 -35 -63 -24 -30 5 16 -43 hvcurveto
          -10 -39 rlineto
          -16 35 47 -9 47 hhcurveto
          105 56 54 81 58 -24 77 -191 4 30 callgsubr
        </CharString>
        <CharString name="uni2076">
          116 504 rmoveto
          115 8 77 57 69 hhcurveto
          10 17 -2 -2 21 hvcurveto
          5 36 29 callsubr
          -58 -210 -97 29 -82 122 143 23 97 53 62 -33 60 -96 -45 -37 -12 -25 -30 hvcurveto
          -4 -65 rmoveto
          32 21 41 27 39 hhcurveto
          56 13 -43 -52 -53 6 callsubr
        </CharString>
        <CharString name="uni2077">
          47 607 rmoveto
          34 hlineto
          16 53 rlineto
          186 hlineto
          -176 -381 75 -7 165 396 -11 38 rlineto
          -295 hlineto
          endchar
        </CharString>
        <CharString name="uni2078">
          47 374 rmoveto
          -52 30 -53 109 102 53 52 29 callgsubr
          44 34 -14 callgsubr
          -48 -59 -57 13 callgsubr
          44 34 19 40 43 22 -28 -38 -36 -21 -24 -42 -22 vhcurveto
          -46 23 12 callgsubr
          -46 vvcurveto
          -47 -36 -23 -46 -42 -31 17 57 43 25 33 30 18 vhcurveto
          endchar
        </CharString>
        <CharString name="uni2079">
          61 328 rmoveto
          -10 -39 rlineto
          -14 33 35 -7 44 hhcurveto
          86 102 44 200 98 -29 105 -125 -134 -22 -91 -52 -13 callgsubr
          -15 -30 hhcurveto
          -41 -33 27 69 53 32 40 50 63 18 -53 -101 hvcurveto
          endchar
        </CharString>
        <CharString name="uni207D">
          -287 147 497 rmoveto
          146 0 111 100 45 vhcurveto
          -11 25 rlineto
          -144 -40 -9 -77 -5 callsubr
        </CharString>
        <CharString name="uni207E">
          -287 131 497 21 callsubr
          144 41 8 77 211 vvcurveto
          210 -8 77 -144 40 vhcurveto
          -11 -25 rlineto
          100 -45 0 -111 -146 vvcurveto
          endchar
        </CharString>
        <CharString name="uni207F">
          -83 170 623 rmoveto
          29 -22 vlineto
          -113 -28 rlineto
          -20 vlineto
          64 -7 rlineto
          -276 -20 callsubr
          -65 19 rlineto
          19 callgsubr
          endchar
        </CharString>
        <CharString name="uni2080">
          356 107 -12 callsubr
          126 133 11 callgsubr
        </CharString>
        <CharString name="uni2081">
          -213 66 262 13 callsubr
        </CharString>
        <CharString name="uni2082">
          180 283 -40 callgsubr
        </CharString>
        <CharString name="uni2083">
          197 328 rmoveto
          -50 -51 -18 -20 -35 hvcurveto
          16 -36 rlineto
          19 37 34 9 24 hhcurveto
          47 23 -23 -35 -46 -30 -38 -82 -10 hvcurveto
          3 -33 rlineto
          60 68 -8 -79 -58 -43 -28 -61 -26 -29 5 15 -44 hvcurveto
          -10 -38 rlineto
          -15 36 46 -9 47 hhcurveto
          104 57 42 86 60 -41 42 -66 11 hvcurveto
          47 20 39 36 55 vvcurveto
          63 -55 31 -65 vhcurveto
          endchar
        </CharString>
        <CharString name="uni2084">
          233 -111 rmoveto
          68 95 60 47 -60 287 hlineto
          -54 5 -228 -305 11 -34 rlineto
          203 hlineto
          -145 47 rmoveto
          145 2 callgsubr
        </CharString>
        <CharString name="uni2085">
          314 330 8 callsubr
          -35 -63 -24 -30 5 15 -43 hvcurveto
          -10 -38 rlineto
          -15 35 47 -10 47 hhcurveto
          105 56 55 80 58 -24 78 -191 2 hvcurveto
          10 117 rlineto
          182 hlineto
          endchar
        </CharString>
        <CharString name="uni2086">
          116 116 8 callgsubr
          5 -21 -22 4 -22 callgsubr
          -53 -53 6 callsubr
        </CharString>
        <CharString name="uni2087">
          47 218 -7 callgsubr
        </CharString>
        <CharString name="uni2088">
          47 -14 rmoveto
          -53 30 -53 109 102 53 52 74 66 -51 25 -54 25 vhcurveto
          80 35 14 43 34 vvcurveto
          52 -3 callsubr
          -57 29 -29 46 -26 -50 callsubr
          -38 -35 -21 -25 -42 -22 vhcurveto
          -46 23 -30 28 35 vvcurveto
          43 -139 rmoveto
          13 -6 rlineto
          45 -20 42 -26 -47 vvcurveto
          -47 -36 -23 -46 -42 -31 18 56 44 25 32 30 19 vhcurveto
          endchar
        </CharString>
        <CharString name="uni2089">
          61 -60 27 callgsubr
          -8 44 hhcurveto
          86 102 44 200 98 20 callgsubr
          -53 -13 callgsubr
          -14 -30 hhcurveto
          -41 -33 26 69 25 callsubr
        </CharString>
        <CharString name="uni208D">
          -287 147 118 rmoveto
          146 0 112 100 44 vhcurveto
          -11 27 rlineto
          -144 -41 -9 -78 -5 callsubr
        </CharString>
        <CharString name="uni208E">
          -287 130 118 21 callsubr
          143 41 9 77 211 vvcurveto
          210 -9 78 -143 41 vhcurveto
          -11 -27 rlineto
          100 -44 0 -112 -146 vvcurveto
          endchar
        </CharString>
        <CharString name="uni20B2">
          -15 287 304 rmoveto
          -34 vlineto
          89 -20 rlineto
          -178 vlineto
          -14 -31 -40 -5 -23 hhcurveto
          -129 -22 150 108 113 24 133 134 26 46 -5 -6 27 hvcurveto
          24 -97 rlineto
          38 hlineto
          14 127 -41 18 -67 9 -49 2 rlinecurve
          88 -48 -88 vlineto
          -164 -11 -54 -130 -159 vvcurveto
          -150 49 -133 157 -15 vhcurveto
          -97 48 95 vlineto
          55 3 65 14 44 25 rrcurveto
          203 vlineto
          71 20 rlineto
          34 vlineto
          endchar
        </CharString>
        <CharString name="uni20BA">
          -63 43 hmoveto
          131 hlineto
          202 102 146 160 4 hvcurveto
          -51 hlineto
          -120 -93 -124 -124 vhcurveto
          227 24 callsubr
          56 24 callsubr
          123 vlineto
          -44 callsubr
          -261 -33 vlineto
          90 -20 rlineto
          -153 vlineto
          -99 -36 rlineto
          -45 vlineto
          99 36 rlineto
          -55 vlineto
          -99 -36 rlineto
          -46 vlineto
          99 36 rlineto
          -206 21 callgsubr
          endchar
        </CharString>
        <CharString name="uni20BD">
          -63 39 hmoveto
          278 34 hlineto
          -104 19 rlineto
          106 173 38 -173 62 67 vlineto
          110 90 54 128 115 -76 55 -136 hvcurveto
          -229 -35 hlineto
          91 -22 rlineto
          -257 -90 -38 90 -62 -90 -38 90 -106 vlineto
          -91 -20 rlineto
          174 264 rmoveto
          262 vlineto
          8 20 15 2 21 hhcurveto
          85 36 -40 -96 -123 -71 -13 -83 hvcurveto
          endchar
        </CharString>
        <CharString name="uni2113">
          -177 323 64 rmoveto
          -1 -1 -71 -17 -35 hhcurveto
          -49 -15 45 87 hvcurveto
          42 vlineto
          65 43 109 90 142 vvcurveto
          69 -17 61 -91 -127 -18 -129 -142 vhcurveto
          -125 vlineto
          -72 -62 27 -34 45 34 rlineto
          -56 vlineto
          -81 29 -41 74 85 69 44 0 vhcurveto
          -178 356 rmoveto
          129 7 55 52 40 11 -30 -48 -92 -44 -73 -66 -47 vhcurveto
          endchar
        </CharString>
        <CharString name="uni2126">
          -56 callgsubr
        </CharString>
        <CharString name="uni2153">
          308 341 hmoveto
          -55 callgsubr
          -235 546 rmoveto
          113 -374 -25 callgsubr
          634 -135 -71 callgsubr
        </CharString>
        <CharString name="uni2154">
          423 -41 callsubr
          241 -567 rmoveto
          -55 callgsubr
          434 439 -71 callgsubr
        </CharString>
        <CharString name="uni2196">
          -9 459 368 rmoveto
          -355 56 -8 -10 65 -345 rlineto
          39 hlineto
          -20 223 214 -233 66 65 -233 216 232 -11 rlineto
          endchar
        </CharString>
        <CharString name="uni2197">
          -9 403 71 rmoveto
          57 355 -9 10 -345 -67 -3 -39 226 19 -233 -213 65 -66 215 233 -12 -232 rlineto
          endchar
        </CharString>
        <CharString name="uni2198">
          -9 329 157 rmoveto
          -226 17 3 -38 345 -66 9 10 -57 354 rlineto
          -39 hlineto
          12 -232 -215 234 -65 -67 rlineto
          endchar
        </CharString>
        <CharString name="uni2199">
          -9 180 191 rmoveto
          20 223 rlineto
          -39 hlineto
          -65 -345 8 -10 355 57 rlineto
          38 vlineto
          -232 -11 233 215 -66 66 rlineto
          endchar
        </CharString>
        <CharString name="uni2206">
          -17 callsubr
        </CharString>
        <CharString name="uni2215">
          -341 -47 -68 rmoveto
          60 hlineto
          239 737 rlineto
          -61 hlineto
          endchar
        </CharString>
        <CharString name="uni2219">
          -379 151 252 rmoveto
          34 -24 23 -34 -31 -26 -23 -34 -32 26 -26 31 34 24 26 32 vhcurveto
          endchar
        </CharString>
        <CharString name="uniA78B">
          -459 46 281 rmoveto
          69 314 -14 16 rlineto
          -72 hlineto
          -15 -324 rlineto
          endchar
        </CharString>
        <CharString name="uniA78C">
          -413 81 354 rmoveto
          73 332 -14 16 -76 -18 -15 -324 rlineto
          endchar
        </CharString>
        <CharString name="uniF6E9">
          -62 callsubr
        </CharString>
        <CharString name="uniF6EA">
          -122 147 633 rmoveto
          190 -23 vlineto
          -113 -29 rlineto
          -20 vlineto
          63 -7 rlineto
          -476 vlineto
          -11 35 70 -10 40 hhcurveto
          147 36 99 95 132 -66 56 -109 -25 -33 -9 -10 -22 hvcurveto
          -314 vmoveto
          278 vlineto
          10 21 20 6 30 hhcurveto
          84 22 -54 -96 -103 -23 -53 -85 -30 -27 6 6 -12 hvcurveto
          endchar
        </CharString>
        <CharString name="uniF6EB">
          -117 298 313 rmoveto
          -24 4 26 -15 23 hhcurveto
          21 28 4 9 30 hvcurveto
          23 vlineto
          -66 14 rlineto
          499 -22 vlineto
          -112 -29 rlineto
          -20 vlineto
          66 -7 rlineto
          -134 vlineto
          3 -47 16 -40 -107 -61 -72 -120 -100 43 -90 88 52 37 18 25 37 vhcurveto
          -91 5 rmoveto
          -64 -25 59 85 94 32 58 68 24 32 -7 -13 22 hvcurveto
          -250 vlineto
          -11 -18 -36 -15 -35 hhcurveto
          endchar
        </CharString>
        <CharString name="uniF6EC">
          -191 209 269 rmoveto
          54 34 11 24 42 hvcurveto
          -5 26 rlineto
          -11 -37 -40 -6 -33 hhcurveto
          -67 -43 48 88 hvcurveto
          22 229 39 vlineto
          98 -1 -43 44 -97 hhcurveto
          -103 -61 -62 -130 -119 53 -72 118 hvcurveto
          -92 232 rmoveto
          78 2 24 34 65 hhcurveto
          43 18 -31 -58 hvcurveto
          -16 vlineto
          endchar
        </CharString>
        <CharString name="uniF6ED">
          -312 179 757 rmoveto
          26 -23 23 -26 -27 -23 -23 -26 -27 23 -20 27 26 23 20 27 vhcurveto
          51 -453 rmoveto
          -66 17 rlineto
          331 -21 15 callgsubr
          -17 rlineto
          -26 200 vlineto
          endchar
        </CharString>
        <CharString name="uniF6EF">
          126 28 278 rmoveto
          189 24 hlineto
          -54 19 rlineto
          272 vlineto
          7 21 30 4 26 hhcurveto
          58 15 -10 -37 hvcurveto
          -236 vlineto
          -52 -19 rlineto
          -24 176 24 vlineto
          -53 19 rlineto
          246 vlineto
          10 -1 9 -2 7 vhcurveto
          7 22 31 4 28 hhcurveto
          58 13 -11 -36 hvcurveto
          -236 vlineto
          -51 -19 rlineto
          -24 188 24 vlineto
          -66 19 rlineto
          251 vlineto
          61 -35 19 -62 vhcurveto
          -51 -2 -57 -16 -30 -12 rrcurveto
          22 -14 -34 8 -35 hhcurveto
          -46 -1 -50 -17 -27 -11 rrcurveto
          29 -22 15 callgsubr
          -19 rlineto
          endchar
        </CharString>
        <CharString name="uniF6F0">
          -30 callgsubr
        </CharString>
        <CharString name="uniF6F1">
          -248 239 601 rmoveto
          15 -61 rlineto
          29 hlineto
          13 113 rlineto
          1 -6 -7 0 -7 hhcurveto
          -36 -43 -13 -22 -35 hvcurveto
          33 -28 vlineto
          -106 -28 rlineto
          -20 vlineto
          64 -8 rlineto
          -274 vlineto
          -64 -20 rlineto
          -24 221 24 vlineto
          -86 19 rlineto
          266 vlineto
          9 23 25 5 28 hhcurveto
          endchar
        </CharString>
        <CharString name="uniF6F3">
          -291 252 287 rmoveto
          22 vlineto
          -104 15 rlineto
          280 vlineto
          115 -5 rlineto
          48 -115 82 -32 vlineto
          -32 -76 -61 -20 rlineto
          -29 55 -272 vlineto
          -30 13 -31 46 20 65 8 8 30 vhcurveto
          endchar
        </CharString>
        <CharString name="uogonek">
          37 570 10 rmoveto
          8 2 rlineto
          -34 callgsubr
          442 -27 vlineto
          -147 -15 callsubr
          -347 vlineto
          -15 -40 -60 -16 -36 hhcurveto
          -69 -12 24 44 hvcurveto
          380 -26 -73 callsubr
          89 -10 rlineto
          -321 vlineto
          -60 27 -59 87 70 66 33 23 56 vhcurveto
          -32 5 33 -18 26 hhcurveto
          13 hlineto
          -57 -41 -38 -55 -51 vvcurveto
          -43 28 -42 66 65 29 50 0 vhcurveto
          -17 16 rlineto
          -16 -14 -18 -6 -18 hhcurveto
          -32 -21 21 38 50 26 67 86 26 hvcurveto
          endchar
        </CharString>
        <CharString name="uring">
          37 386 613 -46 callgsubr
          295 -667 rmoveto
          -34 callgsubr
          442 -27 vlineto
          -107 callsubr
          endchar
        </CharString>
        <CharString name="utilde">
          37 441 675 -102 callsubr
          137 -663 rmoveto
          -34 callgsubr
          442 -27 vlineto
          -107 callsubr
          endchar
        </CharString>
        <CharString name="v">
          -65 428 441 rmoveto
          66 21 rlineto
          29 -208 -29 vlineto
          85 -21 -121 -329 -121 329 66 21 -1 29 rlineto
          -214 hlineto
          1 -29 60 -21 176 -454 39 9 rlineto
          endchar
        </CharString>
        <CharString name="w">
          169 687 441 -78 callsubr
        </CharString>
        <CharString name="wacute">
          169 293 558 -97 callgsubr
          410 -136 -78 callsubr
        </CharString>
        <CharString name="wcircumflex">
          169 474 552 -83 callgsubr
          320 -201 -78 callsubr
        </CharString>
        <CharString name="wdieresis">
          169 326 635 -100 callgsubr
          166 -194 -78 callsubr
        </CharString>
        <CharString name="wgrave">
          169 428 558 -75 callsubr
          475 -220 -78 callsubr
        </CharString>
        <CharString name="x">
          -62 511 hmoveto
          31 vlineto
          -77 20 -142 206 131 191 56 10 rlineto
          33 -184 -33 vlineto
          61 -11 -96 -144 -101 146 47 8 rlineto
          34 -194 -31 vlineto
          56 -14 139 -206 -127 -189 -72 -19 rlineto
          -32 200 32 vlineto
          -63 18 96 144 100 -145 -52 -17 rlineto
          -32 vlineto
          endchar
        </CharString>
        <CharString name="y">
          -76 207 491 -80 callgsubr
        </CharString>
        <CharString name="y.loclGUA">
          4 406 91 -89 callgsubr
        </CharString>
        <CharString name="yacute">
          -46 192 558 -97 callgsubr
          53 -86 -80 callgsubr
        </CharString>
        <CharString name="yacute.loclGUA">
          4 224 530 -97 callgsubr
          61 -716 rmoveto
          156 60 115 142 hvcurveto
          410 -27 -10 callsubr
          -15 callsubr
          -300 vlineto
          -17 -40 -60 -15 -38 hhcurveto
          -68 -13 23 46 hvcurveto
          333 -20 callgsubr
          88 -10 rlineto
          -274 vlineto
          -60 27 -60 88 70 67 30 25 55 vhcurveto
          -61 vlineto
          -99 -3 -44 -47 -91 hhcurveto
          -30 -30 5 9 -26 hvcurveto
          -24 81 rlineto
          -31 hlineto
          -19 -115 rlineto
          -21 54 44 -10 63 hhcurveto
          endchar
        </CharString>
        <CharString name="ycircumflex">
          -46 161 532 6 callgsubr
          -7 -717 rmoveto
          85 44 75 126 46 hvcurveto
          144 407 65 21 rlineto
          29 -195 -29 vlineto
          75 -21 -106 -2 callgsubr
          -43 -30 -32 -73 hhcurveto
          -42 hlineto
          -5 -32 rlineto
          -16 27 27 -7 23 hhcurveto
          endchar
        </CharString>
        <CharString name="ycircumflex.loclGUA">
          4 164 532 rmoveto
          108 90 107 -90 23 18 -100 139 rlineto
          -60 hlineto
          -99 -139 rlineto
          126 -717 rmoveto
          156 60 115 142 hvcurveto
          410 -27 -10 callsubr
          -15 callsubr
          -300 vlineto
          -17 -40 -60 -15 -38 hhcurveto
          -68 -13 23 46 hvcurveto
          333 -20 callgsubr
          88 -10 rlineto
          -274 vlineto
          -60 27 -60 88 70 67 30 25 55 vhcurveto
          -61 vlineto
          -99 -3 -44 -47 -91 hhcurveto
          -30 -30 5 9 -26 hvcurveto
          -24 81 rlineto
          -31 hlineto
          -19 -115 rlineto
          -21 54 44 -10 63 hhcurveto
          endchar
        </CharString>
        <CharString name="ydieresis">
          -46 244 635 -100 callgsubr
          -210 -144 -80 callgsubr
        </CharString>
        <CharString name="ydieresis.loclGUA">
          4 242 635 -100 callgsubr
          -31 -544 -89 callgsubr
        </CharString>
        <CharString name="yen">
          -63 42 329 rmoveto
          122 hlineto
          29 -61 rlineto
          -151 -41 168 -174 hlineto
          -97 -20 rlineto
          -33 275 33 vlineto
          -97 20 rlineto
          174 168 41 -150 vlineto
          28 61 rlineto
          122 39 -103 hlineto
          87 190 68 -53 callgsubr
          -192 -33 vlineto
          65 -20 -115 -261 -112 261 54 -53 callgsubr
          -214 -33 vlineto
          62 -20 88 -190 rlineto
          -105 hlineto
          endchar
        </CharString>
        <CharString name="ygrave">
          -46 372 530 rmoveto
          15 19 -153 130 -76 -28 rlineto
          -18 vlineto
          -25 -800 rmoveto
          85 45 75 126 45 hvcurveto
          144 407 65 21 rlineto
          29 -195 -29 vlineto
          75 -21 -106 -2 callgsubr
          -43 -30 -32 -73 hhcurveto
          -42 hlineto
          -5 -32 rlineto
          -16 27 27 -7 23 hhcurveto
          endchar
        </CharString>
        <CharString name="ygrave.loclGUA">
          4 335 558 -75 callsubr
          287 -570 -89 callgsubr
        </CharString>
        <CharString name="z">
          -105 313 438 -89 callsubr
          endchar
        </CharString>
        <CharString name="zacute">
          -105 153 558 -97 callgsubr
          187 -139 -89 callsubr
          endchar
        </CharString>
        <CharString name="zacute.loclPLK">
          -105 221 -43 callsubr
          111 -117 -89 callsubr
          endchar
        </CharString>
        <CharString name="zcaron">
          -105 127 -74 callsubr
          78 -187 -89 callsubr
          endchar
        </CharString>
        <CharString name="zdotaccent">
          -105 306 -45 callgsubr
          18 -199 -89 callsubr
          endchar
        </CharString>
        <CharString name="zero">
          -63 463 311 rmoveto
          241 -94 80 -117 -118 -95 -83 -238 -239 95 -83 118 117 94 81 241 vhcurveto
          -211 -243 rmoveto
          -70 -79 42 198 205 79 42 70 67 80 -41 -198 -202 -80 -46 -67 hvcurveto
          endchar
        </CharString>
        <CharString name="zero.dnom">
          356 218 -12 callsubr
          127 132 11 callgsubr
        </CharString>
        <CharString name="zero.numr">
          356 387 rmoveto
          170 -70 55 -89 -90 -73 -59 -166 -167 73 -58 90 89 70 57 168 vhcurveto
          -159 -157 rmoveto
          -53 -64 28 128 132 23 callgsubr
          -31 -51 hvcurveto
          endchar
        </CharString>
        <CharString name="zero.osf">
          -63 463 262 rmoveto
          194 -94 78 -117 -118 -95 -80 -192 -193 95 -80 118 117 94 79 194 vhcurveto
          -211 -194 rmoveto
          -70 -79 33 158 164 79 34 70 67 80 -33 -157 -162 -80 -37 -67 hvcurveto
          endchar
        </CharString>
      <CharString index="0">
        70 17 -33 -51 hvcurveto
        -84 -17 callgsubr
        -27 rlineto
        -111 -20 -16 -71 -48 vvcurveto
        -61 37 -62 70 65 57 25 37 51 vhcurveto
        -37 7 27 -18 32 hhcurveto
        27 39 4 12 39 -12 callgsubr
        -90 18 rlineto
        -98 callgsubr
        -17 -229 rmoveto
        104 17 rlineto
        -146 vlineto
        -17 -32 -48 -20 -38 hhcurveto
        -42 -31 19 57 40 20 39 67 11 hvcurveto
        return
      </CharString>
      <CharString index="1">
        rmoveto
        68 45 12 32 57 hvcurveto
        -6 31 rlineto
        -14 -50 -57 -8 -43 hhcurveto
        -93 -54 71 117 hvcurveto
        32 308 vlineto
        1 19 1 15 16 vvcurveto
        129 -60 59 -128 -139 -75 -90 -167 -167 76 -87 149 vhcurveto
        -131 308 rmoveto
        111 5 35 43 86 hhcurveto
        64 28 -39 -82 hvcurveto
        -23 vlineto
        return
      </CharString>
      <CharString index="2">
        rmoveto
        8 32 rlineto
        8 7 1 5 hhcurveto
        22 13 -10 -17 -18 -14 -14 -42 hvcurveto
        4 -40 rlineto
        38 hlineto
        6 25 rlineto
        49 8 13 22 21 vvcurveto
        33 -33 16 -52 -18 -25 -2 -4 -25 vhcurveto
        6 -53 rlineto
        return
      </CharString>
      <CharString index="3">
        -167 -66 -114 -143 -139 67 -114 166 167 65 114 139 143 -63 114 -169 hvcurveto
        140 -254 rmoveto
        -64 callgsubr
        -114 -30 89 119 117 29 90 109 114 29 -90 -117 vhcurveto
        return
      </CharString>
      <CharString index="4">
        rmoveto
        193 77 87 75 84 -61 15 -86 hvcurveto
        -165 hlineto
        -20 -11 18 14 16 9 15 18 25 hvcurveto
        -1 32 -7 38 145 47 83 83 40 -13 44 -30 27 vhcurveto
        113 70 hlineto
        -142 -37 rlineto
        17 -31 -31 9 -47 hhcurveto
        -123 -59 -84 -86 -56 14 -55 48 -33 hvcurveto
        -33 -36 -29 -36 -31 vvcurveto
        -24 9 -20 22 -11 vhcurveto
        -44 -38 -14 -41 -29 vvcurveto
        -49 21 -48 153 vhcurveto
        37 388 rmoveto
        -75 -24 46 73 71 20 52 76 72 26 -52 -71 -72 -21 -47 -74 hvcurveto
        -29 -338 rmoveto
        -86 -23 20 48 25 11 27 22 27 hvcurveto
        196 hlineto
        47 23 -10 -40 -56 -52 -41 -138 hvcurveto
        endchar
      </CharString>
      <CharString index="5">
        -106 callgsubr
        endchar
      </CharString>
      <CharString index="6">
        -104 callgsubr
        endchar
      </CharString>
      <CharString index="7">
        rmoveto
        -1 callsubr
        30 27 25 30 vhcurveto
        195 hmoveto
        0 callgsubr
        30 28 25 30 vhcurveto
        return
      </CharString>
      <CharString index="8">
        rmoveto
        -91 callgsubr
        -14 callsubr
        -39 vlineto
        -26 -91 rlineto
        -216 221 142 hlineto
        24 -69 rlineto
        36 181 hlineto
        return
      </CharString>
      <CharString index="9">
        333 vlineto
        83 -60 26 -92 -68 -64 -16 -21 -56 vhcurveto
        17 -117 -19 callsubr
        24 86 rlineto
        9 31 38 5 30 hhcurveto
        return
      </CharString>
      <CharString index="10">
        rmoveto
        214 103 rlineto
        18 vlineto
        -76 28 -154 -130 rlineto
        return
      </CharString>
      <CharString index="11">
        -96 callsubr
        -37 hlineto
        -85 callgsubr
        -91 18 rlineto
        400 vlineto
        83 5 75 38 63 vvcurveto
        return
      </CharString>
      <CharString index="12">
        -96 callsubr
        -23 hlineto
        28 -42 -55 16 -70 hhcurveto
        -208 -81 -144 -174 -174 83 -143 206 206 81 143 174 93 -22 84 -53 58 hvcurveto
        69 12 57 36 55 vvcurveto
        -335 -607 rmoveto
        -166 -36 158 111 -84 callgsubr
        -69 callsubr
        hvcurveto
        return
      </CharString>
      <CharString index="13">
        153 80 98 126 hvcurveto
        501 vlineto
        89 -53 callgsubr
        -256 -33 vlineto
        90 -20 rlineto
        -364 vlineto
        -43 -19 -44 -51 -99 hhcurveto
        -121 -21 107 123 hvcurveto
        228 vlineto
        -44 callsubr
        -263 -33 vlineto
        91 -20 rlineto
        -228 -10 callsubr
        30 -130 189 75 53 24 33 39 vhcurveto
        -53 vlineto
        -127 -67 -47 -89 -41 -51 12 21 -36 vhcurveto
        return
      </CharString>
      <CharString index="14">
        -96 callsubr
        -11 hlineto
        18 -33 -41 10 -50 hhcurveto
        -167 -66 -114 -143 -139 67 -114 166 167 65 114 139 77 -18 69 -44 47 hvcurveto
        63 14 50 35 51 vvcurveto
        -280 -498 rmoveto
        -114 -30 89 119 117 29 90 109 114 29 -90 -117 -64 callgsubr
        hvcurveto
        return
      </CharString>
      <CharString index="15">
        -96 callsubr
        -136 -33 hlineto
        -81 callsubr
        323 vlineto
        63 26 rlineto
        46 18 32 31 41 vvcurveto
        return
      </CharString>
      <CharString index="16">
        -97 callsubr
        -33 return
      </CharString>
      <CharString index="17">
        rmoveto
        -53 30 -53 109 102 53 52 74 66 -51 25 -54 25 vhcurveto
        80 35 14 43 35 vvcurveto
        51 -3 callsubr
        -57 29 -28 46 -27 -50 callsubr
        -38 -35 -21 -25 -42 -22 vhcurveto
        -46 24 -30 27 35 vvcurveto
        43 -139 rmoveto
        13 -6 rlineto
        45 -20 42 -26 -47 vvcurveto
        -47 -36 -23 -46 -42 -31 18 56 44 25 32 30 19 vhcurveto
        endchar
      </CharString>
      <CharString index="18">
        rmoveto
        -61 vlineto
        -99 -3 -44 -47 -91 hhcurveto
        -30 -30 5 9 -26 hvcurveto
        -24 81 rlineto
        -31 hlineto
        -19 -115 rlineto
        -21 54 44 -10 63 hhcurveto
        156 60 115 142 hvcurveto
        410 -27 -10 callsubr
        -15 callsubr
        -300 vlineto
        -17 -40 -60 -15 -38 hhcurveto
        -68 -13 23 46 hvcurveto
        333 -20 callgsubr
        88 -10 rlineto
        -274 vlineto
        -60 27 -60 88 70 67 30 25 55 vhcurveto
        endchar
      </CharString>
      <CharString index="19">
        -8 115 rlineto
        -37 hlineto
        -25 -84 rlineto
        -11 -35 -33 -4 -27 hhcurveto
        -158 -48 140 130 138 40 131 169 28 30 -4 -7 34 hvcurveto
        25 -97 rlineto
        36 hlineto
        9 127 rlineto
        14 -44 -50 16 -84 hhcurveto
        -205 -78 -144 -174 return
      </CharString>
      <CharString index="20">
        -89 21 rlineto
        -81 callgsubr
        return
      </CharString>
      <CharString index="21">
        rmoveto
        -92 -24 -55 -59 hvcurveto
        33 -2 rlineto
        32 15 30 70 68 14 -30 -32 vhcurveto
        34 2 rlineto
        59 -25 55 -93 vhcurveto
        return
      </CharString>
      <CharString index="22">
        -107 callsubr
        28 vlineto
        return
      </CharString>
      <CharString index="23">
        113 32 157 161 167 36 -157 -113 return
      </CharString>
      <CharString index="24">
        rmoveto
        22 18 -100 139 rlineto
        -60 hlineto
        -98 -139 21 -18 108 90 rlineto
        return
      </CharString>
      <CharString index="25">
        rmoveto
        -23 -28 callsubr
        -450 vlineto
        -39 -16 -54 -53 vhcurveto
        -46 hlineto
        -5 -31 rlineto
        -17 33 32 -6 16 hhcurveto
        75 48 54 170 hvcurveto
        443 -27 vlineto
        endchar
      </CharString>
      <CharString index="26">
        447 -25 vlineto
        -147 -55 callsubr
        -21 rlineto
        return
      </CharString>
      <CharString index="27">
        -79 callgsubr
        endchar
      </CharString>
      <CharString index="28">
        rmoveto
        -205 -29 hlineto
        58 -21 167 -421 rlineto
        -100 -44 -30 -32 -72 hhcurveto
        -42 hlineto
        -6 -32 rlineto
        -16 28 27 -7 23 hhcurveto
        85 45 75 126 45 hvcurveto
        144 407 64 21 rlineto
        29 -194 -39 callgsubr
        return
      </CharString>
      <CharString index="29">
        28 callsubr
        -97 -421 -128 433 -66 -12 -111 -409 -101 409 18 callgsubr
        -219 -33 vlineto
        72 -20 151 -567 55 11 121 416 135 -427 56 11 137 556 73 22 callgsubr
      </CharString>
      <CharString index="30">
        rmoveto
        88 48 47 165 hvcurveto
        495 vlineto
        88 -53 callgsubr
        -260 -33 vlineto
        89 -20 rlineto
        -528 vlineto
        -72 -11 -52 -64 vhcurveto
        -74 hlineto
        -4 -28 rlineto
        -15 23 30 -12 47 hhcurveto
        endchar
      </CharString>
</ttFont>
